<svg id="レイヤー_14" data-name="レイヤー 14" xmlns="http://www.w3.org/2000/svg" viewBox="0 0 141.6 92.03"><title>graphicLogo</title><path d="M600.1,488v14.75a11.13,11.13,0,0,1-2.67,2.46,16.3,16.3,0,0,1-3.11,1.58,16,16,0,0,1-3.36.88,23.39,23.39,0,0,1-3.44.26,15.67,15.67,0,0,1-6.29-1.24,14.1,14.1,0,0,1-5-3.67,17.31,17.31,0,0,1-3.36-6.11,30.13,30.13,0,0,1,0-17,17.35,17.35,0,0,1,3.36-6.08,14.34,14.34,0,0,1,5-3.7,15.44,15.44,0,0,1,6.26-1.27,16,16,0,0,1,5.8,1,14.08,14.08,0,0,1,4.81,3.11l-4.3,3.83A7.42,7.42,0,0,0,591,474.7a8.49,8.49,0,0,0-3.31-.67,9.37,9.37,0,0,0-3.65.72,7.83,7.83,0,0,0-3.11,2.46,12.73,12.73,0,0,0-2.15,4.48,26.3,26.3,0,0,0-.83,6.73,28,28,0,0,0,.8,6.73,13.83,13.83,0,0,0,2.07,4.66,8.76,8.76,0,0,0,3,2.69,7.54,7.54,0,0,0,3.54.88q.57,0,1.53-.08a18.15,18.15,0,0,0,1.91-.26,12.41,12.41,0,0,0,1.84-.49,2.62,2.62,0,0,0,1.29-.88v-9.42h-6.47V488Z" transform="translate(-571.63 -468.9)"/><path d="M636.74,507.67l-7.2-13.82-.41,0c-.17,0-.44,0-.8,0h-4.68v13.77h-6.21V469.52h11a15.45,15.45,0,0,1,4.81.78,13,13,0,0,1,4.27,2.33,12.16,12.16,0,0,1,3.05,3.75,10.39,10.39,0,0,1,1.17,4.94,12.48,12.48,0,0,1-1.92,7,11.48,11.48,0,0,1-5.18,4.3l8.7,15Zm-13.1-18.32h5.64a7,7,0,0,0,2.28-.39,5.64,5.64,0,0,0,2.07-1.27,6.19,6.19,0,0,0,1.5-2.46,11.62,11.62,0,0,0,.57-3.91,10.52,10.52,0,0,0-.26-2.15,6.16,6.16,0,0,0-1.06-2.33,6.26,6.26,0,0,0-2.25-1.86,8.37,8.37,0,0,0-3.83-.75h-4.66Z" transform="translate(-571.63 -468.9)"/><path d="M654.43,507.67l13.35-38.09h6.16l13.25,38.09h-6.42L678,499.75H663.7l-2.79,7.92Zm10.71-12.11h11.39l-5.64-16.46Z" transform="translate(-571.63 -468.9)"/><path d="M578.92,560.67h-6.21V522.52h11a15.44,15.44,0,0,1,4.81.78,13,13,0,0,1,4.27,2.33,12.19,12.19,0,0,1,3.05,3.75,10.41,10.41,0,0,1,1.16,4.94,13.51,13.51,0,0,1-1,5.25,11,11,0,0,1-2.74,4A12.3,12.3,0,0,1,589,546a16.33,16.33,0,0,1-5.49.88h-4.61Zm0-33.44v15.11h5.69a6.77,6.77,0,0,0,2.25-.39,5.68,5.68,0,0,0,2-1.27,6.21,6.21,0,0,0,1.5-2.46,11.62,11.62,0,0,0,.57-3.91,10.51,10.51,0,0,0-.26-2.15,6.17,6.17,0,0,0-1.06-2.33,6.27,6.27,0,0,0-2.25-1.86,8.37,8.37,0,0,0-3.83-.75Z" transform="translate(-571.63 -468.9)"/><path d="M639.58,522.52v38.15h-6.21V543.48H616.85v17.18h-6.31V522.52h6.31v16.72h16.51V522.52Z" transform="translate(-571.63 -468.9)"/><path d="M666.22,560.67h-6.31V522.52h6.31Z" transform="translate(-571.63 -468.9)"/><path d="M713.23,556.79a14.06,14.06,0,0,1-4.81,3.11,16,16,0,0,1-5.8,1,15.68,15.68,0,0,1-6.29-1.24,14.1,14.1,0,0,1-5-3.67,17.29,17.29,0,0,1-3.37-6.11,30.15,30.15,0,0,1,0-17,17.34,17.34,0,0,1,3.37-6.08,14.33,14.33,0,0,1,5-3.7,15.44,15.44,0,0,1,6.26-1.27,16,16,0,0,1,5.8,1,14.08,14.08,0,0,1,4.81,3.11l-4.3,3.83a7.91,7.91,0,0,0-2.87-2.17,8.3,8.3,0,0,0-3.29-.67,9.38,9.38,0,0,0-3.65.72,7.83,7.83,0,0,0-3.11,2.46,12.75,12.75,0,0,0-2.15,4.48,26.3,26.3,0,0,0-.83,6.73,26.75,26.75,0,0,0,.8,6.63,13,13,0,0,0,2.07,4.48,8.28,8.28,0,0,0,3,2.54,8.13,8.13,0,0,0,3.55.8,9,9,0,0,0,3.49-.67,8.2,8.2,0,0,0,3-2.17Z" transform="translate(-571.63 -468.9)"/></svg>