<svg id="レイヤー_18" data-name="レイヤー 18" xmlns="http://www.w3.org/2000/svg" viewBox="0 0 15.96 10.16"><title>behance</title><rect x="10.04" y="0.57" width="4.31" height="1"/><path d="M639.06,432a2.37,2.37,0,0,0,.76-.56,2.21,2.21,0,0,0,.46-1.46,2.52,2.52,0,0,0-.46-1.51,3,3,0,0,0-2.57-1.06h-4.79v9.91h4.46a6.86,6.86,0,0,0,1.4-.13,2.73,2.73,0,0,0,1.82-1.28,2.9,2.9,0,0,0,.44-1.58,2.62,2.62,0,0,0-.39-1.45A2.21,2.21,0,0,0,639.06,432Zm-4.62-2.87h2.16a3.72,3.72,0,0,1,1.17.15.89.89,0,0,1,.53.91.94.94,0,0,1-.4.87,2,2,0,0,1-1,.25h-2.41Zm3.41,6.29a2.34,2.34,0,0,1-1,.17h-2.41v-2.64h2.44a2.51,2.51,0,0,1,1,.17,1.06,1.06,0,0,1,.63,1.06A1.25,1.25,0,0,1,637.85,435.4Z" transform="translate(-632.46 -427.39)"/><path d="M648.35,432.72a3.6,3.6,0,0,0-.58-1.52,3,3,0,0,0-1.27-1.08,4.17,4.17,0,0,0-1.72-.34,3.53,3.53,0,0,0-2.62,1,4,4,0,0,0-1,2.92,3.55,3.55,0,0,0,1.12,2.93,4,4,0,0,0,2.58.9,3.56,3.56,0,0,0,2.76-1.07,2.39,2.39,0,0,0,.71-1.32h-2a1.49,1.49,0,0,1-1.46.84,1.94,1.94,0,0,1-1.06-.28,1.76,1.76,0,0,1-.77-1.55h5.34A9.3,9.3,0,0,0,648.35,432.72Zm-5.23.19a2,2,0,0,1,.51-1.13,1.52,1.52,0,0,1,1.14-.42,1.68,1.68,0,0,1,1.14.4,1.6,1.6,0,0,1,.51,1.16Z" transform="translate(-632.46 -427.39)"/></svg>