<svg id="レイヤー_7" data-name="レイヤー 7" xmlns="http://www.w3.org/2000/svg" viewBox="0 0 29.24 8.88"><title>menuGame</title><path d="M631.77,508.59l-.49,1a2.92,2.92,0,0,0-1.73-.66,2.6,2.6,0,0,0-2.13.95,3.84,3.84,0,0,0-.78,2.51,3.6,3.6,0,0,0,.76,2.4,2.58,2.58,0,0,0,2.08.91,2.09,2.09,0,0,0,1.52-.56v-2h-1.19v-1h2.36v3.74a3.52,3.52,0,0,1-1.31.64,5.83,5.83,0,0,1-1.63.24,3.49,3.49,0,0,1-2.8-1.2,4.76,4.76,0,0,1-1-3.2,4.61,4.61,0,0,1,1.13-3.23,3.91,3.91,0,0,1,3-1.24A3.18,3.18,0,0,1,631.77,508.59Z" transform="translate(-625.42 -507.84)"/><path d="M638.82,516.58l-.59-1.81H635l-.63,1.81h-1.31l3.49-8.7h.31l3.23,8.7Zm-2.14-6.45-1.33,3.78h2.55Z" transform="translate(-625.42 -507.84)"/><path d="M647.48,516.58l-1-5.51-1.87,5.63h-.29l-1.93-5.63-1,5.51h-1.11l1.61-8.58h.53l2,6.26,1.89-6.26h.53l1.74,8.58Z" transform="translate(-625.42 -507.84)"/><path d="M650.7,509v2.38h2.84v1H650.7v3.09h3.89v1.05h-5.06V508h5.13V509Z" transform="translate(-625.42 -507.84)"/></svg>