<svg id="レイヤー_6" data-name="レイヤー 6" xmlns="http://www.w3.org/2000/svg" viewBox="0 0 51.83 8.85"><title>webApp</title><path d="M621.18,516.69h-.37l-2-5.92-1.91,5.92h-.37l-2.71-8.7H615l1.72,6,1.89-6H619l1.86,6,1.75-6h1.22Z" transform="translate(-613.78 -507.84)"/><path d="M626,509v2.38h2.84v1H626v3.09h3.89v1.05h-5.06V508h5.13V509Z" transform="translate(-613.78 -507.84)"/><path d="M633.68,516.58h-2.45V508q1.56-.08,2.26-.08a3.12,3.12,0,0,1,2,.55,1.88,1.88,0,0,1,.7,1.57,1.59,1.59,0,0,1-.45,1.09,1.9,1.9,0,0,1-1,.62,2.66,2.66,0,0,1,1.49.81,2.37,2.37,0,0,1,.47,1.55,2.21,2.21,0,0,1-.83,1.8A3.33,3.33,0,0,1,633.68,516.58Zm-1.28-7.65v2.47q.37,0,.91,0,1.66,0,1.66-1.35,0-1.19-1.53-1.19Q632.87,508.89,632.41,508.93Zm0,3.38v3.28q.6.06.93.06a2.54,2.54,0,0,0,1.61-.41,1.6,1.6,0,0,0,.51-1.32,1.51,1.51,0,0,0-.48-1.24,2.56,2.56,0,0,0-1.61-.4Z" transform="translate(-613.78 -507.84)"/><path d="M642.59,516.28a4.63,4.63,0,0,1-2.05.42,2.45,2.45,0,0,1-1.89-.72,2.91,2.91,0,0,1-.67-2,3.12,3.12,0,0,1,.2-1.18,3.19,3.19,0,0,1,.74-1,2.41,2.41,0,0,1-.83-1.71,2,2,0,0,1,.68-1.53,2.54,2.54,0,0,1,1.81-.64,2.88,2.88,0,0,1,1.86.53l-.49.9a2,2,0,0,0-1.2-.56q-1.56,0-1.56,1.41a1.58,1.58,0,0,0,.68,1.29h2.18v-1.07l1.11-.43v1.52h1.46v.94h-1.46v1.93a2,2,0,0,0,.22,1.1.87.87,0,0,0,.75.29,1.7,1.7,0,0,0,.74-.22l.16,1a5.13,5.13,0,0,1-1.41.18A1.65,1.65,0,0,1,642.59,516.28Zm-.52-1.54v-2.37h-2.36a2.41,2.41,0,0,0-.56,1.5,1.6,1.6,0,0,0,1.79,1.83,2,2,0,0,0,1.2-.29A3,3,0,0,1,642.07,514.74Z" transform="translate(-613.78 -507.84)"/><path d="M651.37,516.58l-.59-1.81h-3.19l-.63,1.81h-1.31l3.49-8.7h.31l3.23,8.7Zm-2.14-6.45-1.33,3.78h2.55Z" transform="translate(-613.78 -507.84)"/><path d="M654.75,513.27v3.3h-1.17V508l1.61-.06q3.74,0,3.74,2.5,0,2.89-3.3,2.89Zm0-4.22v3.17l.79.06q2.18,0,2.18-1.72T655.39,509A4.72,4.72,0,0,0,654.75,509Z" transform="translate(-613.78 -507.84)"/><path d="M661.44,513.27v3.3h-1.17V508l1.61-.06q3.74,0,3.74,2.5,0,2.89-3.3,2.89Zm0-4.22v3.17l.79.06q2.18,0,2.18-1.72T662.08,509A4.72,4.72,0,0,0,661.44,509Z" transform="translate(-613.78 -507.84)"/></svg>