<svg id="レイヤー_5" data-name="レイヤー 5" xmlns="http://www.w3.org/2000/svg" viewBox="0 0 29.58 8.88"><title>home</title><path d="M630,516.58v-4.15h-3.75v4.15h-1.17V508h1.17v3.44H630V508h1.17v8.58Z" transform="translate(-625.08 -507.84)"/><path d="M632.52,512.21a5.07,5.07,0,0,1,.93-3.12,3,3,0,0,1,2.52-1.25,3.35,3.35,0,0,1,2.74,1.15,4.92,4.92,0,0,1,1,3.22,5.18,5.18,0,0,1-1,3.31,3.29,3.29,0,0,1-2.74,1.2,3,3,0,0,1-2.54-1.27A5.4,5.4,0,0,1,632.52,512.21Zm1.23,0a4.79,4.79,0,0,0,.58,2.47,1.82,1.82,0,0,0,1.64,1,2.09,2.09,0,0,0,1.83-.91,4.43,4.43,0,0,0,.63-2.55q0-3.32-2.46-3.32a1.85,1.85,0,0,0-1.66.89A4.48,4.48,0,0,0,633.75,512.21Z" transform="translate(-625.08 -507.84)"/><path d="M647.48,516.58l-1-5.51-1.87,5.63h-.29l-1.93-5.63-1,5.51h-1.11l1.61-8.58h.53l2,6.26,1.89-6.26h.53l1.74,8.58Z" transform="translate(-625.08 -507.84)"/><path d="M650.7,509v2.38h2.84v1H650.7v3.09h3.89v1.05h-5.06V508h5.13V509Z" transform="translate(-625.08 -507.84)"/></svg>