<svg id="レイヤー_9" data-name="レイヤー 9" xmlns="http://www.w3.org/2000/svg" viewBox="0 0 35.85 8.88"><title>menuOther</title><path d="M622.23,512.21a5.07,5.07,0,0,1,.93-3.12,3,3,0,0,1,2.52-1.25,3.35,3.35,0,0,1,2.74,1.15,4.92,4.92,0,0,1,1,3.22,5.18,5.18,0,0,1-1,3.31,3.29,3.29,0,0,1-2.74,1.2,3,3,0,0,1-2.54-1.27A5.4,5.4,0,0,1,622.23,512.21Zm1.23,0a4.79,4.79,0,0,0,.58,2.47,1.82,1.82,0,0,0,1.64,1,2.09,2.09,0,0,0,1.83-.91,4.43,4.43,0,0,0,.63-2.55q0-3.32-2.46-3.32a1.85,1.85,0,0,0-1.66.89A4.48,4.48,0,0,0,623.46,512.21Z" transform="translate(-622.23 -507.84)"/><path d="M633.86,509v7.53h-1.17V509H630V508h6.76V509Z" transform="translate(-622.23 -507.84)"/><path d="M642.62,516.58v-4.15h-3.75v4.15H637.7V508h1.17v3.44h3.75V508h1.17v8.58Z" transform="translate(-622.23 -507.84)"/><path d="M646.72,509v2.38h2.84v1h-2.84v3.09h3.89v1.05h-5.06V508h5.13V509Z" transform="translate(-622.23 -507.84)"/><path d="M656.74,516.58l-2.29-3.69q-.39,0-1.24-.06v3.74H652V508l.91,0,1.23,0q3.09,0,3.09,2.46a2.33,2.33,0,0,1-.5,1.46,2.07,2.07,0,0,1-1.18.81l2.49,3.95ZM653.21,509v2.79a6,6,0,0,0,.82.06,2.71,2.71,0,0,0,1.54-.34,1.39,1.39,0,0,0,.48-1.21,1.12,1.12,0,0,0-.52-1,3.22,3.22,0,0,0-1.63-.32Z" transform="translate(-622.23 -507.84)"/></svg>