<svg id="レイヤー_11" data-name="レイヤー 11" xmlns="http://www.w3.org/2000/svg" viewBox="0 0 256.78 168.75"><title>myself</title><path d="M511.94,430.24a5.38,5.38,0,0,0,0-.83v-.78a5.67,5.67,0,0,0,0-.83,11.64,11.64,0,0,0,1.21,0h7.69a11.32,11.32,0,0,0,1.22,0,4.82,4.82,0,0,0,0,.82v.78a5.44,5.44,0,0,0,0,.84h-.95v-1.6h-8.23v1.6Zm.66,4.64a10,10,0,0,0,0-1.18c.28,0,.52,0,1.15,0h6.58c.64,0,.89,0,1.16,0a10,10,0,0,0,0,1.18v2.3a8.53,8.53,0,0,0,.07,1.27h-1v-.58h-7v.58h-.95a8.79,8.79,0,0,0,.07-1.27Zm.8-5.58a6.93,6.93,0,0,0,1,0h5.28a6.81,6.81,0,0,0,1,0v.83a7.26,7.26,0,0,0-1,0h-5.28a7.27,7.27,0,0,0-1,0Zm.07,6.1h3v-.95h-3Zm0,1.74h3v-1h-3Zm7-4.88a5.71,5.71,0,0,0,0,.82,9.6,9.6,0,0,0-1,0h-4.92a9.45,9.45,0,0,0-1,0,6.29,6.29,0,0,0,0-.82v-.72a6.23,6.23,0,0,0,0-.83,9,9,0,0,0,1,0h4.93a8.87,8.87,0,0,0,1,0,6,6,0,0,0,0,.83Zm-6-.82v.9h5.13v-.9Zm2.91,4h3.17v-1h-3.17Zm0,1.74h3.17v-1h-3.17Z" transform="translate(-511.01 -427.37)"/><path d="M532.87,438.26v-.71h-7.72v.71h-1a12.32,12.32,0,0,0,.07-1.43v-7.46a10,10,0,0,0-.06-1.22,12.24,12.24,0,0,0,1.37.06h6.93a12.33,12.33,0,0,0,1.38-.06,9.31,9.31,0,0,0-.06,1.21v7.47a11.92,11.92,0,0,0,.07,1.43Zm-7.72-5.92h3.29V429h-3.29Zm0,4.38h3.29v-3.55h-3.29Zm4.2-4.38h3.53V429h-3.53Zm0,4.38h3.53v-3.55h-3.53Z" transform="translate(-511.01 -427.37)"/><path d="M538.68,429.08a10.14,10.14,0,0,0-.07-1.33h1.14a11.22,11.22,0,0,0-.07,1.33v2.35l5-.94a8.2,8.2,0,0,0,1.31-.34l.19,1.09a7.33,7.33,0,0,0-1.3.17l-5.17,1v4.08c0,.24,0,.34.18.38a9,9,0,0,0,2,.13,8.7,8.7,0,0,0,2-.14.6.6,0,0,0,.4-.4,8.83,8.83,0,0,0,.3-2,3.07,3.07,0,0,0,1,.41,5.31,5.31,0,0,1-.64,2.5c-.37.43-1,.53-3.23.53-2.64,0-3-.14-3-1.22v-4.09l-1.69.32a6.45,6.45,0,0,0-1.29.32l-.2-1.08a8.67,8.67,0,0,0,1.36-.17l1.83-.35Z" transform="translate(-511.01 -427.37)"/><path d="M547.91,430.65a10.27,10.27,0,0,1,1.94,1.5l-.61.71a7.39,7.39,0,0,0-1.91-1.57Zm2,4A23.18,23.18,0,0,1,548.6,438a2.07,2.07,0,0,0-.2.41l-.82-.66a12.15,12.15,0,0,0,1.63-3.71Zm-1.34-7a11,11,0,0,1,1.79,1.57l-.66.67a7.42,7.42,0,0,0-1.77-1.63Zm8.08,1a10,10,0,0,0,1.61-.07v.94a13.56,13.56,0,0,0-1.54,0H552.1a9.92,9.92,0,0,1-1.58,2.17,2.35,2.35,0,0,0-.67-.66,7.07,7.07,0,0,0,1.92-2.81,3.42,3.42,0,0,0,.25-.82l1,.19a2.48,2.48,0,0,0-.19.46c-.07.19-.14.35-.29.65Zm-5.13,8c-.07.3-.1.43-.22.83l-1-.11a17.13,17.13,0,0,0,.84-3.49h-.11a5.57,5.57,0,0,0-1.06.07V433a6.74,6.74,0,0,0,1.15.07h.12c.11-.93.18-1.65.18-2v-.18s0-.11,0-.31c.17,0,.46,0,.84,0h3.95a11.51,11.51,0,0,0,1.25,0,10.16,10.16,0,0,0-.1,1.4c0,.19,0,.58-.06,1.14h.08a5.19,5.19,0,0,0,1.09-.07V434a8,8,0,0,0-1.09-.07h-.12c0,.79-.1,1.21-.19,2h.11a3.79,3.79,0,0,0,.92-.07v.92a7.48,7.48,0,0,0-.95,0H557c-.24,1.43-.48,1.68-1.58,1.68-.28,0-.82,0-1.2-.07a2.49,2.49,0,0,0-.17-.9,7.57,7.57,0,0,0,1.33.14c.54,0,.61-.07.76-.85Zm.53-2.77c-.1.7-.11.77-.35,2h1.79c0-.18,0-.18.1-.56s.11-.68.19-1.4Zm1.81-.8c.06-.68.06-.68.11-1.71h-1.65c0,.73-.07.94-.16,1.71Zm.74.8c-.11.88-.11.88-.28,2h1.92c.11-.83.16-1.31.2-2Zm1.9-.8c0-.66,0-.93,0-1.71h-1.74c-.08,1.22-.08,1.22-.13,1.71Z" transform="translate(-511.01 -427.37)"/><path d="M574.51,430v7.53h-1.17V430h-2.73v-1.05h6.76V430Z" transform="translate(-511.01 -427.37)"/><path d="M577.94,433.13a5.07,5.07,0,0,1,.93-3.12,3,3,0,0,1,2.52-1.25,3.35,3.35,0,0,1,2.74,1.15,4.92,4.92,0,0,1,1,3.22,5.18,5.18,0,0,1-1,3.31,3.29,3.29,0,0,1-2.74,1.2,3,3,0,0,1-2.54-1.27A5.4,5.4,0,0,1,577.94,433.13Zm1.23,0a4.79,4.79,0,0,0,.58,2.47,1.82,1.82,0,0,0,1.64,1,2.09,2.09,0,0,0,1.83-.91,4.43,4.43,0,0,0,.63-2.55q0-3.32-2.46-3.32a1.85,1.85,0,0,0-1.66.89A4.48,4.48,0,0,0,579.17,433.13Z" transform="translate(-511.01 -427.37)"/><path d="M592.89,437.5l-1-5.51L590,437.62h-.29L587.78,432l-1,5.51h-1.11l1.61-8.58h.53l2,6.26,1.89-6.26h.53L594,437.5Z" transform="translate(-511.01 -427.37)"/><path d="M595.15,437.5v-8.58h1.17v8.58Z" transform="translate(-511.01 -427.37)"/><path d="M601.41,430v7.53h-1.17V430h-2.73v-1.05h6.76V430Z" transform="translate(-511.01 -427.37)"/><path d="M610.13,437.5l-.59-1.81h-3.19l-.63,1.81H604.4l3.49-8.7h.31l3.23,8.7ZM608,431l-1.33,3.78h2.55Z" transform="translate(-511.01 -427.37)"/><path d="M621.49,437.62l-4.44-6.28v6.16h-1.11v-8.58h.47l4.32,5.94v-5.94h1.11v8.7Z" transform="translate(-511.01 -427.37)"/><path d="M628.48,437.5l-.59-1.81h-3.19l-.63,1.81h-1.31l3.49-8.7h.31l3.23,8.7ZM626.33,431,625,434.83h2.55Z" transform="translate(-511.01 -427.37)"/><path d="M636.23,437.62l-4.44-6.28v6.16h-1.11v-8.58h.47l4.32,5.94v-5.94h1.11v8.7Z" transform="translate(-511.01 -427.37)"/><path d="M643.21,437.5l-.59-1.81h-3.19l-.63,1.81h-1.31l3.49-8.7h.31l3.23,8.7ZM641.07,431l-1.33,3.78h2.55Z" transform="translate(-511.01 -427.37)"/><path d="M651.88,437.5l-1-5.51L649,437.62h-.29L646.77,432l-1,5.51h-1.11l1.61-8.58h.53l2,6.26,1.89-6.26h.53L653,437.5Z" transform="translate(-511.01 -427.37)"/><path d="M654.14,437.5v-8.58h1.17v8.58Z" transform="translate(-511.01 -427.37)"/><path d="M511.07,483.87v-.23l2.69-4.12a4.28,4.28,0,0,0,.84-2.2q0-1.19-1.34-1.19a1.7,1.7,0,0,0-.89.25,1.52,1.52,0,0,0-.6.63l-.76-.62a1.68,1.68,0,0,1,.78-.91,2.75,2.75,0,0,1,1.41-.34,3,3,0,0,1,1.93.57,2,2,0,0,1,.7,1.61,4.92,4.92,0,0,1-.93,2.44L513,482.81h3.36v1.05Z" transform="translate(-511.01 -427.37)"/><path d="M517.33,479.31a5.49,5.49,0,0,1,.75-3,2.37,2.37,0,0,1,2.11-1.17,2.3,2.3,0,0,1,2,1,6.24,6.24,0,0,1,.68,3.4,6.45,6.45,0,0,1-.71,3.28,2.27,2.27,0,0,1-2.07,1.2,2.4,2.4,0,0,1-2.07-1A6.76,6.76,0,0,1,517.33,479.31Zm1.17.11q0,3.57,1.52,3.57a1.35,1.35,0,0,0,1.28-.79,6.58,6.58,0,0,0,.41-2.77,9.14,9.14,0,0,0-.16-2,1.92,1.92,0,0,0-.51-1,1.25,1.25,0,0,0-.89-.33Q518.51,476.13,518.51,479.42Z" transform="translate(-511.01 -427.37)"/><path d="M526.17,483.87v-6.58l-1.75,1.09v-1.1a8.59,8.59,0,0,0,1.41-.92,6.71,6.71,0,0,0,1.16-1.11h.35v8.62Z" transform="translate(-511.01 -427.37)"/><path d="M532.05,483.87h-1.3a34.51,34.51,0,0,1,1.46-3.64q1-2.26,1.88-3.86h-4v-1.11h5.57v.46l-.76,1.49q-.38.76-.8,1.66t-.81,1.84q-.4.94-.7,1.74T532.05,483.87Z" transform="translate(-511.01 -427.37)"/><path d="M537.91,482.22a.88.88,0,0,1,.88.88.86.86,0,0,1-.26.62.87.87,0,0,1-1.24,0,.86.86,0,0,1-.26-.62.88.88,0,0,1,.88-.88Z" transform="translate(-511.01 -427.37)"/><path d="M540.88,483.26l.56-.9a1.88,1.88,0,0,0,1.45.63,1.42,1.42,0,0,0,1.63-1.59,1.56,1.56,0,0,0-.47-1.18,1.75,1.75,0,0,0-1.26-.45h-.09v-.95h.05q1.49,0,1.49-1.31a1.23,1.23,0,0,0-1.4-1.37,1.54,1.54,0,0,0-1.21.51l-.52-.8a2.16,2.16,0,0,1,1.82-.71,2.74,2.74,0,0,1,1.83.6,1.93,1.93,0,0,1,.71,1.54,2.11,2.11,0,0,1-.4,1.27,1.94,1.94,0,0,1-.93.74,2.34,2.34,0,0,1,1.17.82,2.25,2.25,0,0,1,.44,1.4,2.3,2.3,0,0,1-.76,1.85,3.15,3.15,0,0,1-2.12.65,3.08,3.08,0,0,1-1.12-.21A2.72,2.72,0,0,1,540.88,483.26Z" transform="translate(-511.01 -427.37)"/><path d="M553.22,476.12a10.39,10.39,0,0,0,0-1.16c.37,0,.66,0,1.44,0h1.46c.55,0,.77,0,1.07,0,0,.3,0,.53,0,1.13v5.18c0,.62,0,.86,0,1.19h-.9v-.54h-2.13v.94h-1a10.28,10.28,0,0,0,.07-1.32Zm.88,1.82h2.15v-2.13H554.1Zm0,3.17h2.15v-2.37H554.1Zm4.79,0a7,7,0,0,1-.71,2.17,5.52,5.52,0,0,1-1.46,1.79,2.91,2.91,0,0,0-.74-.68,4.89,4.89,0,0,0,1.73-2.24c.41-1.06.54-2.33.54-5.16a22.85,22.85,0,0,0-.06-2.33,10.52,10.52,0,0,0,1.2,0H562a9.76,9.76,0,0,0,1.19,0,10.26,10.26,0,0,0,0,1.21v7.87c0,.86-.3,1.12-1.34,1.12-.25,0-.68,0-1.15,0a3.38,3.38,0,0,0-.24-1,9.07,9.07,0,0,0,1.42.14c.32,0,.41-.08.41-.41v-2.46Zm.23-2.85c0,.91-.06,1.4-.12,2h3.19v-2Zm3.07-2.72h-3v1.92h3Z" transform="translate(-511.01 -427.37)"/><path d="M565.23,477.26a16.45,16.45,0,0,1,2.13,1.49l-.55.78a11.7,11.7,0,0,0-2.12-1.59Zm2.25,3.74a17.83,17.83,0,0,1-1.52,3.38c-.12.22-.17.31-.24.46l-.83-.73a10.71,10.71,0,0,0,1.82-3.67Zm-1.55-6.76a12.33,12.33,0,0,1,2.1,1.67l-.58.72a11,11,0,0,0-2.11-1.7Zm1.58,3.67a3.69,3.69,0,0,0,.67,0h.47a15.33,15.33,0,0,0,1.7-3.87l1.06.32c-.08.17-.13.26-.25.54a23.52,23.52,0,0,1-1.46,3c1.26,0,3.11-.17,4.1-.29a12.79,12.79,0,0,0-1.37-1.8l.82-.38a21.83,21.83,0,0,1,2.48,3.66l-.86.47c-.3-.61-.41-.8-.64-1.21-1.73.22-2.78.3-5.17.42a8.37,8.37,0,0,0-1.39.13Zm1.93,7.08h-1a9.15,9.15,0,0,0,0-1.14v-2.79a9.31,9.31,0,0,0,0-1.13,9.88,9.88,0,0,0,1.12,0h3.8a9.68,9.68,0,0,0,1.19,0,7.28,7.28,0,0,0-.06,1.25v2.51a7.92,7.92,0,0,0,.07,1.32h-1v-.67h-4.17Zm0-1.51h4.17v-2.65h-4.17Z" transform="translate(-511.01 -427.37)"/><path d="M582.62,484c0,.8-.24,1-1.48,1-.31,0-.91,0-1.33-.06a3.25,3.25,0,0,0-.29-.91,11.73,11.73,0,0,0,1.56.12c.54,0,.61,0,.61-.28v-2.23h-3.5a9.69,9.69,0,0,0-1.31.07v-1a10.07,10.07,0,0,0,1.31.07h3.5v-.17a6.75,6.75,0,0,0,0-.7h.5a10.16,10.16,0,0,0,2-1.22H580a10.76,10.76,0,0,0-1.15.06v-.91a10.89,10.89,0,0,0,1.18.06h4.22a5.42,5.42,0,0,0,.9,0l.52.55-.42.35a13.88,13.88,0,0,1-2.65,1.75v.28h3.44a10.08,10.08,0,0,0,1.33-.07v1a9.58,9.58,0,0,0-1.33-.07h-3.44Zm-3.43-8a7.45,7.45,0,0,0-1.06-1.49l.85-.26a10.67,10.67,0,0,1,1.19,1.75h1.61a7.4,7.4,0,0,0-.83-1.67l.89-.24a11.85,11.85,0,0,1,.89,1.91h1.22a6.77,6.77,0,0,0,1.16-1.88l.91.32a11.81,11.81,0,0,1-1.08,1.56h.82c.73,0,1,0,1.42,0a7.29,7.29,0,0,0,0,1v1a6.77,6.77,0,0,0,.06.86h-.95v-2H578v2H577a6.48,6.48,0,0,0,.06-.86v-1a7.38,7.38,0,0,0,0-1c.49,0,.71,0,1.39,0Z" transform="translate(-511.01 -427.37)"/><path d="M589.13,475.45c0-.34,0-.62,0-1a6.89,6.89,0,0,0,.82,0h1.69a3.54,3.54,0,0,0,.74,0l.43.49c0,.08-.12.25-.18.4-.41,1.06-.76,1.83-1.2,2.74a5.51,5.51,0,0,1,.92,1.51,4.26,4.26,0,0,1,.26,1.45c0,1-.4,1.32-1.74,1.32h-.25a2.76,2.76,0,0,0-.2-.91,3.71,3.71,0,0,0,.7.07c.53,0,.64-.1.64-.59a3.54,3.54,0,0,0-.43-1.59,6.59,6.59,0,0,0-.84-1.15,17.9,17.9,0,0,0,1.22-2.88H590v8.54a8,8,0,0,0,.06,1.17h-1a8.16,8.16,0,0,0,.07-1.2Zm4.74,4.69a7.16,7.16,0,0,0-1.1.06v-.9a9.58,9.58,0,0,0,1.12.06h4.47a6.12,6.12,0,0,0,1.15-.07v.92a7.87,7.87,0,0,0-1.15-.07h-1.16v3.6c0,.23.13.28.79.28.42,0,.59,0,.67-.2a4.76,4.76,0,0,0,.22-1.64,2.28,2.28,0,0,0,.85.32c-.19,2.15-.36,2.36-1.79,2.36s-1.62-.16-1.62-.77v-3.95h-1.13a5.64,5.64,0,0,1-.85,3.12,5.2,5.2,0,0,1-2.53,1.8,3.32,3.32,0,0,0-.62-.76,4.35,4.35,0,0,0,2.52-1.63,4.59,4.59,0,0,0,.61-2.53ZM595.4,475a4.49,4.49,0,0,0-.07-.88h1.07a4.13,4.13,0,0,0-.07.89v.44h2a9.9,9.9,0,0,0,1.12-.06,6.84,6.84,0,0,0,0,.8V477a5.48,5.48,0,0,0,0,.82h-.85v.41a7,7,0,0,0-.9,0h-3.36a6.84,6.84,0,0,0-.91,0v-.43h-.83a6.07,6.07,0,0,0,0-.83v-.82a7.76,7.76,0,0,0,0-.78c.46,0,.71,0,1.24,0h1.57Zm3.12,1.27h-5v1.1a7.47,7.47,0,0,0,.86,0h3.35a6.92,6.92,0,0,0,.83,0Z" transform="translate(-511.01 -427.37)"/><path d="M606.57,478a9.57,9.57,0,0,0,1.81,3.59,8.12,8.12,0,0,0,2.09,1.75,7.9,7.9,0,0,0,1.27.64,4,4,0,0,0-.64,1,11.43,11.43,0,0,1-1.72-1.07,9.37,9.37,0,0,1-3.25-4.62,7.44,7.44,0,0,1-2.23,4,9.39,9.39,0,0,1-2.67,1.69,2.78,2.78,0,0,0-.6-.88,8.8,8.8,0,0,0,1.82-.95,6.39,6.39,0,0,0,3-5.13h-3.15a7.91,7.91,0,0,0-1.38.08V477a8.07,8.07,0,0,0,1.39.08h3.23c0-.4,0-.72,0-1.18a9.06,9.06,0,0,0-.08-1.52h1.16a7.42,7.42,0,0,0-.08,1.3c0,.59,0,1,0,1.4H610a8.19,8.19,0,0,0,1.38-.08v1.1A8.51,8.51,0,0,0,610,478Z" transform="translate(-511.01 -427.37)"/><path d="M618.62,484c0,.8-.24,1-1.48,1-.31,0-.91,0-1.33-.06a3.25,3.25,0,0,0-.29-.91,11.73,11.73,0,0,0,1.56.12c.54,0,.61,0,.61-.28v-2.23h-3.5a9.69,9.69,0,0,0-1.31.07v-1a10.07,10.07,0,0,0,1.31.07h3.5v-.17a6.75,6.75,0,0,0,0-.7h.5a10.16,10.16,0,0,0,2-1.22H616a10.76,10.76,0,0,0-1.15.06v-.91a10.89,10.89,0,0,0,1.18.06h4.22a5.42,5.42,0,0,0,.9,0l.52.55-.42.35a13.88,13.88,0,0,1-2.65,1.75v.28h3.44a10.08,10.08,0,0,0,1.33-.07v1a9.58,9.58,0,0,0-1.33-.07h-3.44Zm-3.43-8a7.45,7.45,0,0,0-1.06-1.49l.85-.26a10.67,10.67,0,0,1,1.19,1.75h1.61a7.4,7.4,0,0,0-.83-1.67l.89-.24a11.85,11.85,0,0,1,.89,1.91h1.22a6.77,6.77,0,0,0,1.16-1.88l.91.32a11.81,11.81,0,0,1-1.08,1.56h.82c.73,0,1,0,1.42,0a7.29,7.29,0,0,0,0,1v1a6.77,6.77,0,0,0,.06.86h-.95v-2H614v2H613a6.48,6.48,0,0,0,.06-.86v-1a7.38,7.38,0,0,0,0-1c.49,0,.71,0,1.39,0Z" transform="translate(-511.01 -427.37)"/><path d="M633.26,477a10.2,10.2,0,0,1-.86,2.22,10,10,0,0,1-1.62,2.3,10.44,10.44,0,0,0,2.1,1.43,11.79,11.79,0,0,0,2.82,1,2.85,2.85,0,0,0-.61,1,13.07,13.07,0,0,1-5-2.79,13.12,13.12,0,0,1-5,2.78,2.69,2.69,0,0,0-.58-.89,11.38,11.38,0,0,0,4.91-2.54,11,11,0,0,1-1.45-2,11.2,11.2,0,0,1-1.1-2.57h-.79a10.42,10.42,0,0,0-1.37.07v-1a9,9,0,0,0,1.38.08h3.37v-.92a5.1,5.1,0,0,0-.08-1h1.12a4.9,4.9,0,0,0-.08,1v.92h3.65a9.08,9.08,0,0,0,1.4-.08v1a9.89,9.89,0,0,0-1.38-.07Zm-5.35,0a8.32,8.32,0,0,0,.95,2.22,8.51,8.51,0,0,0,1.27,1.68,9.53,9.53,0,0,0,2.11-3.9Z" transform="translate(-511.01 -427.37)"/><path d="M642.62,484c0,.8-.24,1-1.48,1-.31,0-.91,0-1.33-.06a3.25,3.25,0,0,0-.29-.91,11.73,11.73,0,0,0,1.56.12c.54,0,.61,0,.61-.28v-2.23h-3.5a9.69,9.69,0,0,0-1.31.07v-1a10.07,10.07,0,0,0,1.31.07h3.5v-.17a6.75,6.75,0,0,0,0-.7h.5a10.16,10.16,0,0,0,2-1.22H640a10.76,10.76,0,0,0-1.15.06v-.91a10.89,10.89,0,0,0,1.18.06h4.22a5.42,5.42,0,0,0,.9,0l.52.55-.42.35a13.88,13.88,0,0,1-2.65,1.75v.28h3.44a10.08,10.08,0,0,0,1.33-.07v1a9.58,9.58,0,0,0-1.33-.07h-3.44Zm-3.43-8a7.45,7.45,0,0,0-1.06-1.49l.85-.26a10.67,10.67,0,0,1,1.19,1.75h1.61a7.4,7.4,0,0,0-.83-1.67l.89-.24a11.85,11.85,0,0,1,.89,1.91h1.22a6.77,6.77,0,0,0,1.16-1.88l.91.32a11.81,11.81,0,0,1-1.08,1.56h.82c.73,0,1,0,1.42,0a7.29,7.29,0,0,0,0,1v1a6.77,6.77,0,0,0,.06.86h-.95v-2H638v2H637a6.48,6.48,0,0,0,.06-.86v-1a7.38,7.38,0,0,0,0-1c.49,0,.71,0,1.39,0Z" transform="translate(-511.01 -427.37)"/><path d="M653.85,478.68a6,6,0,0,0,1.09-.06v.95a6,6,0,0,0-1.06-.06h-4a7.16,7.16,0,0,0-1.16.06v-.95a7.1,7.1,0,0,0,1.16.06h2.53a9.61,9.61,0,0,0,.79-2.27l.88.26a10.29,10.29,0,0,1-.82,2Zm-.17-3.25a6.25,6.25,0,0,0,1.1-.06v.94a5.91,5.91,0,0,0-1.07-.06h-3.66a6.17,6.17,0,0,0-1.06.06v-.94a6.39,6.39,0,0,0,1.13.06h1.39V475a4.46,4.46,0,0,0-.07-.9h1.06a4.71,4.71,0,0,0-.07.9v.41Zm-3.3,9.57h-.94a8.52,8.52,0,0,0,0-1.1v-2.47a9.32,9.32,0,0,0,0-1c.28,0,.52,0,1,0h2.9a7.09,7.09,0,0,0,.88,0,6.15,6.15,0,0,0,0,1v2.67a6.47,6.47,0,0,0,0,.92h-.94v-.72h-2.89Zm.2-8.6a8.63,8.63,0,0,1,.74,1.91l-.83.28a7.67,7.67,0,0,0-.71-1.9Zm-.2,7.05h2.9v-2.18h-2.9Zm9.23-8.42a11.27,11.27,0,0,0-.47,1.07,26,26,0,0,1-1.2,2.37,5.65,5.65,0,0,1,1.29,1.83,4.33,4.33,0,0,1,.35,1.67,1.46,1.46,0,0,1-.62,1.37,2.42,2.42,0,0,1-1.15.2,8.11,8.11,0,0,1-.91,0,2.17,2.17,0,0,0-.19-.94,6.31,6.31,0,0,0,1.1.1c.65,0,.86-.19.86-.74a3.77,3.77,0,0,0-.38-1.62,5.08,5.08,0,0,0-1.38-1.69,16.45,16.45,0,0,0,1.54-3.29h-2.18v8.43a7.82,7.82,0,0,0,.08,1.36H655.3a10.08,10.08,0,0,0,.07-1.34v-8.24c0-.36,0-.68,0-1.07.3,0,.54,0,1,0h2a5.84,5.84,0,0,0,.94,0Z" transform="translate(-511.01 -427.37)"/><path d="M663.88,475.09a5.62,5.62,0,0,0-.06-.82h1a5.76,5.76,0,0,0-.06.82v.4h2.65v-.4a6.11,6.11,0,0,0-.06-.82h1a5.63,5.63,0,0,0-.06.82v.4h1.8a10.13,10.13,0,0,0,1.36-.07v1a10.35,10.35,0,0,0-1.36-.06h-1.8v.34a4.44,4.44,0,0,0,0,.74h-1a7.27,7.27,0,0,0,0-.76v-.32h-2.65v.32a6.79,6.79,0,0,0,0,.76h-1a4.78,4.78,0,0,0,0-.74v-.34h-1.69a10.35,10.35,0,0,0-1.36.06v-1a10.26,10.26,0,0,0,1.36.07h1.69ZM662.19,481a9.69,9.69,0,0,0-1.28.07v-1a9.29,9.29,0,0,0,1.28.07h8a9,9,0,0,0,1.27-.07v1a9.2,9.2,0,0,0-1.28-.07H665.6a21.45,21.45,0,0,1-1.54,2.54c2.17-.1,3.3-.19,4.67-.37a16.51,16.51,0,0,0-1.38-1.33l.74-.47a23.2,23.2,0,0,1,3,3.11l-.83.56c-.4-.56-.54-.74-.88-1.15-1.91.28-4.08.48-6.49.6a13.89,13.89,0,0,0-1.48.12l-.19-1c.25,0,.48,0,.72,0s.35,0,1,0A14.77,14.77,0,0,0,664.5,481Zm8-2.12a8.79,8.79,0,0,0-1.24-.07h-5.5a8.8,8.8,0,0,0-1.26.07v-1a8.66,8.66,0,0,0,1.27.07h5.49a8.24,8.24,0,0,0,1.24-.07Z" transform="translate(-511.01 -427.37)"/><path d="M673.84,481c0-.49,0-.79,0-1.37a6.28,6.28,0,0,1-1,1,2.86,2.86,0,0,0-.43-.85,7.61,7.61,0,0,0,1.88-2,5,5,0,0,0,.54-1.07l.8.54-.14.22-.11.18a10.78,10.78,0,0,1-.74,1.13v4.88a9.75,9.75,0,0,0,.07,1.39h-1a8.78,8.78,0,0,0,.07-1.42Zm1.78-6.42c-.14.17-.14.17-.49.62a10.81,10.81,0,0,1-2,2,2.36,2.36,0,0,0-.49-.75,6.78,6.78,0,0,0,2.19-2.35Zm1.26,3.9a15.94,15.94,0,0,1-.94,5.22,3.23,3.23,0,0,0-.78-.48,7.34,7.34,0,0,0,.61-2,18.2,18.2,0,0,0,.29-2.9Zm4.11-.2a5.69,5.69,0,0,0-.86,0v-.85a5.68,5.68,0,0,0-.86,0h-.8v6.18a11.16,11.16,0,0,0,.07,1.38h-1a11.29,11.29,0,0,0,.07-1.38v-6.18h-.92a6,6,0,0,0-.89,0v-.94a5.81,5.81,0,0,0,1.06.06h.76v-1.16a7,7,0,0,0-.07-1.19h1a7,7,0,0,0-.07,1.19v1.16h.65a6.05,6.05,0,0,0,1.06-.06v.86a7.18,7.18,0,0,0,.83,0h1.68a7,7,0,0,0,1,0v.95a5.41,5.41,0,0,0-1-.06h-.19v5.54c0,.47-.11.73-.35.85a2.52,2.52,0,0,1-1.06.17c-.38,0-.74,0-1.12,0a2.64,2.64,0,0,0-.19-.91,8.29,8.29,0,0,0,1.43.12c.31,0,.4,0,.4-.26v-5.47Zm-1.66-3.89a9.68,9.68,0,0,1,1,1.46l-.7.44a6.56,6.56,0,0,0-1-1.52Zm.38,3.95a26.38,26.38,0,0,1,.95,4.35l-.84.29a22.58,22.58,0,0,0-.86-4.44Zm3.73-2.48a5,5,0,0,0-.91-.06h-1.18a6.64,6.64,0,0,0-.9.06v-1a6.16,6.16,0,0,0,.91.06h1.16a4.74,4.74,0,0,0,.91-.06Z" transform="translate(-511.01 -427.37)"/><path d="M690.62,484c0,.8-.24,1-1.48,1-.31,0-.91,0-1.33-.06a3.25,3.25,0,0,0-.29-.91,11.73,11.73,0,0,0,1.56.12c.54,0,.61,0,.61-.28v-2.23h-3.5a9.69,9.69,0,0,0-1.31.07v-1a10.07,10.07,0,0,0,1.31.07h3.5v-.17a6.75,6.75,0,0,0,0-.7h.5a10.16,10.16,0,0,0,2-1.22H688a10.76,10.76,0,0,0-1.15.06v-.91a10.89,10.89,0,0,0,1.18.06h4.22a5.42,5.42,0,0,0,.9,0l.52.55-.42.35a13.88,13.88,0,0,1-2.65,1.75v.28h3.44a10.08,10.08,0,0,0,1.33-.07v1a9.58,9.58,0,0,0-1.33-.07h-3.44Zm-3.43-8a7.45,7.45,0,0,0-1.06-1.49l.85-.26a10.67,10.67,0,0,1,1.19,1.75h1.61a7.4,7.4,0,0,0-.83-1.67l.89-.24a11.85,11.85,0,0,1,.89,1.91h1.22a6.77,6.77,0,0,0,1.16-1.88l.91.32a11.81,11.81,0,0,1-1.08,1.56h.82c.73,0,1,0,1.42,0a7.29,7.29,0,0,0,0,1v1a6.77,6.77,0,0,0,.06.86h-.95v-2H686v2H685a6.48,6.48,0,0,0,.06-.86v-1a7.38,7.38,0,0,0,0-1c.49,0,.71,0,1.39,0Z" transform="translate(-511.01 -427.37)"/><path d="M698.9,475.73c-.52.11-.78.16-1.56.26a2.56,2.56,0,0,0-.37-.8,11.33,11.33,0,0,0,3.49-.79,2.41,2.41,0,0,0,.5-.26l.55.78-.24.1a11.74,11.74,0,0,1-1.49.52v1.73h.77a4.27,4.27,0,0,0,.86-.06v.94a4.73,4.73,0,0,0-.86-.06h-.74a5.15,5.15,0,0,0,1.69,2,2.87,2.87,0,0,0-.49.8,5.35,5.35,0,0,1-1.3-1.82q0,.32.07,1.76v2.82a11.73,11.73,0,0,0,.06,1.42h-1a12,12,0,0,0,.07-1.42v-2.53c0-.4,0-1.05.06-1.81a8.93,8.93,0,0,1-1.72,3.3,2.82,2.82,0,0,0-.54-.84,9,9,0,0,0,1.51-2.25,10.69,10.69,0,0,0,.56-1.45H698a7,7,0,0,0-1.06.07v-1a6.59,6.59,0,0,0,1.07.07h.85Zm6.52-.26a8.06,8.06,0,0,0-.07-1.3h1.06a7.54,7.54,0,0,0-.07,1.28v5.4l.12,0a7,7,0,0,0,1.14-.35l.1,1a9.57,9.57,0,0,0-1.14.22l-.22,0v2a7.84,7.84,0,0,0,.07,1.33h-1.06a8.75,8.75,0,0,0,.07-1.36V482l-3.08.72a9.58,9.58,0,0,0-1.13.32l-.13-1a7.13,7.13,0,0,0,1.14-.18l3.2-.76ZM702.23,478a12.42,12.42,0,0,1,2.22,1.86l-.55.74a9.74,9.74,0,0,0-2.24-1.93Zm.38-3a11.56,11.56,0,0,1,2.25,1.91l-.58.75a9.29,9.29,0,0,0-2.24-2Z" transform="translate(-511.01 -427.37)"/><path d="M714.49,484a6.06,6.06,0,0,0,.08,1.18h-1.08a6.34,6.34,0,0,0,.08-1.16v-1.87H710.2a10.53,10.53,0,0,0-1.4.07v-1a8.63,8.63,0,0,0,1.4.08h3.37v-.1a7.06,7.06,0,0,0-.06-1h1a5.3,5.3,0,0,0-.06,1v.11h3.6a8.76,8.76,0,0,0,1.43-.08v1a10.21,10.21,0,0,0-1.43-.07h-3.6Zm-.92-8.9a4.85,4.85,0,0,0-.08-1h1.09a4.73,4.73,0,0,0-.08,1v.32H718a8.43,8.43,0,0,0,1.35-.08v1a9.19,9.19,0,0,0-1.34-.07h-7.66a9.51,9.51,0,0,0-1.36.07v-1a8.71,8.71,0,0,0,1.37.08h3.23Zm-1.07,1.68c-.23.58-.32.78-.49,1.13a5.88,5.88,0,0,0,1.82,1.67,4.08,4.08,0,0,0-.6.76,8.13,8.13,0,0,1-1.64-1.68,9.09,9.09,0,0,1-1.86,2.16,3.13,3.13,0,0,0-.7-.68,6,6,0,0,0,1.52-1.5,5.72,5.72,0,0,0,1-2.12Zm4.41.06a10.89,10.89,0,0,1-.42,1.08,6,6,0,0,0,2.76,1.83,3.93,3.93,0,0,0-.52.86,7.32,7.32,0,0,1-2.63-2,6.78,6.78,0,0,1-1.22,1.57,2.73,2.73,0,0,0-.68-.65,4.42,4.42,0,0,0,1.2-1.43,5.4,5.4,0,0,0,.61-1.58Z" transform="translate(-511.01 -427.37)"/><path d="M511.07,504.87v-.23l2.69-4.12a4.28,4.28,0,0,0,.84-2.2q0-1.19-1.34-1.19a1.7,1.7,0,0,0-.89.25,1.52,1.52,0,0,0-.6.63l-.76-.62a1.68,1.68,0,0,1,.78-.91,2.75,2.75,0,0,1,1.41-.34,3,3,0,0,1,1.93.57,2,2,0,0,1,.7,1.61,4.92,4.92,0,0,1-.93,2.44L513,503.81h3.36v1.05Z" transform="translate(-511.01 -427.37)"/><path d="M517.33,500.31a5.49,5.49,0,0,1,.75-3,2.37,2.37,0,0,1,2.11-1.17,2.3,2.3,0,0,1,2,1,6.24,6.24,0,0,1,.68,3.4,6.45,6.45,0,0,1-.71,3.28,2.27,2.27,0,0,1-2.07,1.2,2.4,2.4,0,0,1-2.07-1A6.76,6.76,0,0,1,517.33,500.31Zm1.17.11q0,3.57,1.52,3.57a1.35,1.35,0,0,0,1.28-.79,6.58,6.58,0,0,0,.41-2.77,9.14,9.14,0,0,0-.16-2,1.92,1.92,0,0,0-.51-1,1.25,1.25,0,0,0-.89-.33Q518.51,497.13,518.51,500.42Z" transform="translate(-511.01 -427.37)"/><path d="M526.17,504.87v-6.58l-1.75,1.09v-1.1a8.59,8.59,0,0,0,1.41-.92,6.71,6.71,0,0,0,1.16-1.11h.35v8.62Z" transform="translate(-511.01 -427.37)"/><path d="M531.61,500.09a2.44,2.44,0,0,1-.89-.81,1.93,1.93,0,0,1-.35-1.08,1.89,1.89,0,0,1,.65-1.51,2.86,2.86,0,0,1,3.39,0,2,2,0,0,1,.61,1.52,2.14,2.14,0,0,1-.37,1.15,2.48,2.48,0,0,1-.86.86,2.58,2.58,0,0,1,1.55,2.28,2.37,2.37,0,0,1-.71,1.84,2.8,2.8,0,0,1-2,.65q-2.6,0-2.6-2.5a2.61,2.61,0,0,1,.45-1.42A2.46,2.46,0,0,1,531.61,500.09Zm.91.51a2.11,2.11,0,0,0-1.29,1.89,1.51,1.51,0,0,0,.4,1.07,1.34,1.34,0,0,0,1,.43,1.47,1.47,0,0,0,1.08-.42,1.45,1.45,0,0,0,.42-1.08,1.53,1.53,0,0,0-.29-.89A4.14,4.14,0,0,0,532.53,500.6Zm.52-.87a2.15,2.15,0,0,0,.8-1.55,1,1,0,0,0-.32-.76,1.2,1.2,0,0,0-.83-.28q-1.15,0-1.15,1.06Q531.55,499,533,499.73Z" transform="translate(-511.01 -427.37)"/><path d="M537.91,503.22a.88.88,0,0,1,.88.88.86.86,0,0,1-.26.62.87.87,0,0,1-1.24,0,.86.86,0,0,1-.26-.62.88.88,0,0,1,.88-.88Z" transform="translate(-511.01 -427.37)"/><path d="M540.88,504.26l.56-.9a1.88,1.88,0,0,0,1.45.63,1.42,1.42,0,0,0,1.63-1.59,1.56,1.56,0,0,0-.47-1.18,1.75,1.75,0,0,0-1.26-.45h-.09v-.95h.05q1.49,0,1.49-1.31a1.23,1.23,0,0,0-1.4-1.37,1.54,1.54,0,0,0-1.21.51l-.52-.8a2.16,2.16,0,0,1,1.82-.71,2.74,2.74,0,0,1,1.83.6,1.93,1.93,0,0,1,.71,1.54,2.11,2.11,0,0,1-.4,1.27,1.94,1.94,0,0,1-.93.74,2.34,2.34,0,0,1,1.17.82,2.25,2.25,0,0,1,.44,1.4,2.3,2.3,0,0,1-.76,1.85,3.15,3.15,0,0,1-2.12.65,3.08,3.08,0,0,1-1.12-.21A2.72,2.72,0,0,1,540.88,504.26Z" transform="translate(-511.01 -427.37)"/><path d="M558.83,500a9.49,9.49,0,0,1-.17,1.38,4.83,4.83,0,0,1-1.62,3,7.51,7.51,0,0,1-2.11,1.17,2.59,2.59,0,0,0-.68-.94,4.55,4.55,0,0,0,3-2.25,6.57,6.57,0,0,0,.49-2.41h-3.11a11.86,11.86,0,0,0-1.48.06V499a9.87,9.87,0,0,0,1.49.08h6.91A9.36,9.36,0,0,0,563,499v1.07c-.37,0-.84-.06-1.48-.06Zm-4.47-4a7.55,7.55,0,0,0,1.48.08h3.39a7.62,7.62,0,0,0,1.49-.08v1.08a11.94,11.94,0,0,0-1.48-.06h-3.42a11,11,0,0,0-1.46.06Zm7-1a9.39,9.39,0,0,1,1.26,1.86l-.71.4a8.36,8.36,0,0,0-1.25-1.9Zm1.49-.47a8.94,8.94,0,0,1,1.26,1.82l-.7.4a8.79,8.79,0,0,0-1.24-1.86Z" transform="translate(-511.01 -427.37)"/><path d="M566.17,498.78a18.7,18.7,0,0,1,3.08,1.58l-.54,1a13.82,13.82,0,0,0-3.12-1.68Zm-.38,5.46a10.66,10.66,0,0,0,3.3-.76,7.81,7.81,0,0,0,3.55-2.66,8.52,8.52,0,0,0,1.43-2.69,4.54,4.54,0,0,0,.9.77,9.49,9.49,0,0,1-4.64,5.19,14.69,14.69,0,0,1-3.12,1.05l-.65.13a2.7,2.7,0,0,0-.48.13Zm1.31-8.34a18.93,18.93,0,0,1,3,1.52l-.56.95a12.76,12.76,0,0,0-3-1.61Zm6.38-.52a9.38,9.38,0,0,1,1.26,1.86l-.71.4a8.37,8.37,0,0,0-1.25-1.89Zm1.37-.65a8.94,8.94,0,0,1,1.26,1.82l-.7.4a8.79,8.79,0,0,0-1.24-1.86Z" transform="translate(-511.01 -427.37)"/><path d="M582.21,495.49a6.13,6.13,0,0,0-.4.77c-.13.26-.25.47-.35.64a35.2,35.2,0,0,1,3.54-.07,2.07,2.07,0,0,0,.79-.12l.61.61a2.68,2.68,0,0,0-.35.79,19.4,19.4,0,0,1-1.6,3.31,11.76,11.76,0,0,1-5.35,4.4,2.79,2.79,0,0,0-.71-.89,11.94,11.94,0,0,0,2.45-1.27,8.69,8.69,0,0,0,2-1.83,14.14,14.14,0,0,0-2.63-1.88l.66-.73a16.71,16.71,0,0,1,2.59,1.79,14,14,0,0,0,1.56-3.27l-4.05,0a12.39,12.39,0,0,1-2.84,3.18,2.62,2.62,0,0,0-.84-.68,10.5,10.5,0,0,0,3-3.42,7.37,7.37,0,0,0,.71-1.64Z" transform="translate(-511.01 -427.37)"/><path d="M592.41,496a6.27,6.27,0,0,0-.07,1.05c-.1,3.32-.19,4.2-.64,5.41a7.46,7.46,0,0,1-2.06,3,2.92,2.92,0,0,0-.86-.8,5.76,5.76,0,0,0,2-2.75,16.09,16.09,0,0,0,.53-5,6,6,0,0,0,0-.95Zm3-.14a6.89,6.89,0,0,0-.08,1.25l-.06,7a5.29,5.29,0,0,0,2.11-1.39,5.85,5.85,0,0,0,1.35-2.34,4,4,0,0,0,.79.83,6.89,6.89,0,0,1-2.47,3.14,8.27,8.27,0,0,1-1.69.86l-.38.14a2.38,2.38,0,0,0-.29.13l-.56-.62a2.8,2.8,0,0,0,.08-.95l.07-6.79v-.26a5.11,5.11,0,0,0-.06-1Z" transform="translate(-511.01 -427.37)"/><path d="M605,496.58a4.5,4.5,0,0,0-.16.85c-.52,3.49-1.43,5.7-3.14,7.57a3.43,3.43,0,0,0-.94-.73,8.79,8.79,0,0,0,2.15-3.43,14,14,0,0,0,.9-4.47Zm3.35-.22a15.15,15.15,0,0,0,.53,2.85,10.91,10.91,0,0,0,2.72,5,3.55,3.55,0,0,0-.91.79,11.65,11.65,0,0,1-2-3.23,18.41,18.41,0,0,1-1.22-4.4,4.6,4.6,0,0,0-.16-.82Z" transform="translate(-511.01 -427.37)"/><path d="M616,495.84a9.07,9.07,0,0,0,0,1.13v2.94a9.89,9.89,0,0,0,0,1.21h-1.19a8.36,8.36,0,0,0,.06-1.21V497a6.93,6.93,0,0,0-.06-1.14Zm5.35,0a6.77,6.77,0,0,0-.06,1.18v1.36A13.47,13.47,0,0,1,621,502a4.58,4.58,0,0,1-2.29,2.71,10.4,10.4,0,0,1-2.23.86,2.68,2.68,0,0,0-.6-1,6.4,6.4,0,0,0,2.57-1,3.61,3.61,0,0,0,1.74-3.19c0-.52,0-.78,0-2.13V497a8.06,8.06,0,0,0,0-1.19Z" transform="translate(-511.01 -427.37)"/><path d="M633,497.41a2.6,2.6,0,0,0,1.06-.08l.55.54c-.11.2-.11.2-.28,1.29-.52,3.21-2.36,5.24-5.78,6.39a2.82,2.82,0,0,0-.66-1,7.62,7.62,0,0,0,2.63-1.12,6.34,6.34,0,0,0,2.81-5.1H627v1.59c0,.41,0,.77,0,1h-1.16a8.43,8.43,0,0,0,0-1v-1.54c0-.42,0-.72,0-1a10,10,0,0,0,1.15,0h2.49v-1a4.87,4.87,0,0,0-.06-.92h1.21a4.72,4.72,0,0,0-.07.91v1Z" transform="translate(-511.01 -427.37)"/><path d="M639.13,498.48a13.83,13.83,0,0,1,1.19,2.71l-1,.32a10.13,10.13,0,0,0-1.12-2.73Zm6.8,0a5.07,5.07,0,0,0-.16.55,9.92,9.92,0,0,1-1.73,4,9.32,9.32,0,0,1-3.45,2.67,3,3,0,0,0-.68-.82,7.41,7.41,0,0,0,4.53-4.67,6.72,6.72,0,0,0,.43-2Zm-4.32-.46a12.82,12.82,0,0,1,1.16,2.63l-.95.32a11,11,0,0,0-1.1-2.67Z" transform="translate(-511.01 -427.37)"/><path d="M651.46,505.55a8.45,8.45,0,0,0,.07-1.39v-7.3a6.64,6.64,0,0,0-.07-1.32h1.21a9.28,9.28,0,0,0-.06,1.34V499a30.55,30.55,0,0,1,5.36,2.53l-.6,1a26.24,26.24,0,0,0-4.41-2.36,2.94,2.94,0,0,1-.4-.19,7.09,7.09,0,0,1,0,1v3.13a10.72,10.72,0,0,0,.06,1.39Zm4.87-9.52a9.38,9.38,0,0,1,1.26,1.86l-.71.4a8.39,8.39,0,0,0-1.25-1.89Zm1.37-.65a9,9,0,0,1,1.26,1.82l-.7.4a8.77,8.77,0,0,0-1.24-1.86Z" transform="translate(-511.01 -427.37)"/><path d="M662.2,497.13a9.37,9.37,0,0,0-1.43.07v-1a9.5,9.5,0,0,0,1.48.08h3.36v-.08a6.17,6.17,0,0,0-.08-1.13h1a6.53,6.53,0,0,0-.08,1.13v.08H670a8.91,8.91,0,0,0,1.52-.08v1a11.6,11.6,0,0,0-1.49-.07h-3.53V498h2.58a8.5,8.5,0,0,0,1.34-.06,11.38,11.38,0,0,0,0,1.25v1.92a8.66,8.66,0,0,0,0,1.25,9.28,9.28,0,0,0-1.35-.06h-1.85a9.11,9.11,0,0,0,4.7,2.48,4.46,4.46,0,0,0-.53.9,12.49,12.49,0,0,1-2.64-1.16,8.71,8.71,0,0,1-2.29-1.89c0,.3,0,.7,0,.91v1.12a7.76,7.76,0,0,0,.08,1.34h-1a8.43,8.43,0,0,0,.08-1.34v-1.12c0-.19,0-.59,0-.9a6.78,6.78,0,0,1-1.37,1.32,11.73,11.73,0,0,1-3.3,1.73,3.22,3.22,0,0,0-.5-.86,9.73,9.73,0,0,0,2.84-1.24,6.94,6.94,0,0,0,1.58-1.28h-1.63a9.25,9.25,0,0,0-1.38.06l0-.31c0-.08,0-.49,0-.94v-1.89a11.43,11.43,0,0,0,0-1.27,8.41,8.41,0,0,0,1.33.06h2.39v-.89Zm.62,1.66v1h2.78v-1Zm0,1.71v1.07h2.78V500.5Zm3.66-.74h3v-1h-3Zm0,1.81h3V500.5h-3Z" transform="translate(-511.01 -427.37)"/><path d="M676.21,502.54a9.22,9.22,0,0,1-2.85,3,2.72,2.72,0,0,0-.64-.73,7.63,7.63,0,0,0,1.59-1.24,6.12,6.12,0,0,0,1.09-1.54Zm1.36-6.43a6.17,6.17,0,0,0-.07-1h1.09a4.08,4.08,0,0,0-.08,1v.42h3.62a7.86,7.86,0,0,0,1.35-.08v1a7.09,7.09,0,0,0-1.31-.07h-8a7,7,0,0,0-1.28.07v-1a7.86,7.86,0,0,0,1.35.08h3.33Zm-2.17,5.52a8.61,8.61,0,0,0-1.07,0,7.22,7.22,0,0,0,0-1v-1.46a8,8,0,0,0,0-1l.25,0c.12,0,.47,0,.82,0h5.37a8,8,0,0,0,1.1,0,7.49,7.49,0,0,0,0,1v1.46c0,.42,0,.67,0,1-.3,0-.64,0-1.09,0h-2.1v3.24c0,.77-.32,1-1.56,1l-1,0a2.94,2.94,0,0,0-.25-.92,8.83,8.83,0,0,0,1.32.11c.47,0,.56,0,.56-.28v-3.08Zm-.12-.82h5.65v-1.69h-5.65Zm5.43,1.25a6.59,6.59,0,0,0,1.18,1.5,7.7,7.7,0,0,0,1.67,1.22,3.09,3.09,0,0,0-.64.79,8.53,8.53,0,0,1-1.6-1.32,11,11,0,0,1-1.38-1.7Z" transform="translate(-511.01 -427.37)"/><path d="M686.28,498.11a12.14,12.14,0,0,0-1.34.07v-1a9.18,9.18,0,0,0,1.34.08h3.29v-1a6.62,6.62,0,0,0-.08-1.1h1.08a7.83,7.83,0,0,0-.07,1.09v1H694a8.55,8.55,0,0,0,1.38-.08v1a13.31,13.31,0,0,0-1.38-.07h-3a13,13,0,0,0,2,2.82,10.68,10.68,0,0,0,2.78,2.17,4.07,4.07,0,0,0-.61.94,13.28,13.28,0,0,1-2.44-2,13,13,0,0,1-1.43-1.82,9.24,9.24,0,0,1-.79-1.48c0,.66.06,1.16.06,1.52v2.49h1.27a6.93,6.93,0,0,0,1.15-.06v1a8.24,8.24,0,0,0-1.2-.07h-1.22v1.06a9.35,9.35,0,0,0,.08,1.4h-1.09a11.85,11.85,0,0,0,.08-1.42v-1h-1.1a8,8,0,0,0-1.2.07v-1a6.83,6.83,0,0,0,1.16.06h1.14v-2.49c0-.42,0-.88,0-1.49a12,12,0,0,1-2.22,3.36,12.22,12.22,0,0,1-2.23,2,2.93,2.93,0,0,0-.62-.86,10.91,10.91,0,0,0,2.75-2.36,12.41,12.41,0,0,0,1.82-2.72Z" transform="translate(-511.01 -427.37)"/><path d="M703.16,498.29a9.11,9.11,0,0,1-2.12,3,2.66,2.66,0,0,0-.52-.61,3.58,3.58,0,0,0-.28.52,6.25,6.25,0,0,1-1-1.68c0,.23,0,.23,0,.95,0,.11,0,.78,0,.92v3.36a10.29,10.29,0,0,0,.07,1.42h-1a10.62,10.62,0,0,0,.07-1.42v-3.12c0-.47,0-.84.06-1.8a9.89,9.89,0,0,1-1.52,3.41,3.88,3.88,0,0,0-.53-.89,10.62,10.62,0,0,0,1.87-4h-.62a6.11,6.11,0,0,0-.89,0v-.89a5.82,5.82,0,0,0,.89,0h.74v-1.15a7.38,7.38,0,0,0-.06-1.25h1a7.82,7.82,0,0,0-.06,1.24v1.16h.55a4.24,4.24,0,0,0,.76,0v.88a7.33,7.33,0,0,0-.74,0h-.54a5.49,5.49,0,0,0,1.33,2,6.29,6.29,0,0,0,1.67-2.41Zm2.65,2.28a13.5,13.5,0,0,1-1.43,2.59,6,6,0,0,0,1.15,1,8.34,8.34,0,0,0,2.17,1,3.35,3.35,0,0,0-.52.9,8.62,8.62,0,0,1-2.31-1.27,7.9,7.9,0,0,1-1-.95,8.36,8.36,0,0,1-3.29,2.23,3,3,0,0,0-.55-.8,7.41,7.41,0,0,0,3.29-2.11,13.08,13.08,0,0,1-1.35-2.5l.84-.41a7.55,7.55,0,0,0,1.07,2.21,7.3,7.3,0,0,0,1.1-2.28Zm-2.4-4.37a6.33,6.33,0,0,0-.06-.93h1a4.89,4.89,0,0,0-.07.92v.61h1.93a12.07,12.07,0,0,0,1.26-.06v.95c-.36,0-.78-.06-1.26-.06h-4.13a9.08,9.08,0,0,0-1.27.07v-1a9,9,0,0,0,1.26.07h1.31Zm1.9,1.68a7.75,7.75,0,0,0,2.18,2.41,3.92,3.92,0,0,0-.55.8,9.14,9.14,0,0,1-2.37-2.82Z" transform="translate(-511.01 -427.37)"/><path d="M714.49,505a6.06,6.06,0,0,0,.08,1.18h-1.08a6.34,6.34,0,0,0,.08-1.16v-1.87H710.2a10.53,10.53,0,0,0-1.4.07v-1a8.63,8.63,0,0,0,1.4.08h3.37v-.1a7.06,7.06,0,0,0-.06-1h1a5.3,5.3,0,0,0-.06,1v.11h3.6a8.76,8.76,0,0,0,1.43-.08v1a10.21,10.21,0,0,0-1.43-.07h-3.6Zm-.92-8.9a4.85,4.85,0,0,0-.08-1h1.09a4.73,4.73,0,0,0-.08,1v.32H718a8.43,8.43,0,0,0,1.35-.08v1a9.19,9.19,0,0,0-1.34-.07h-7.66a9.51,9.51,0,0,0-1.36.07v-1a8.71,8.71,0,0,0,1.37.08h3.23Zm-1.07,1.68c-.23.58-.32.78-.49,1.13a5.88,5.88,0,0,0,1.82,1.67,4.08,4.08,0,0,0-.6.76,8.13,8.13,0,0,1-1.64-1.68,9.09,9.09,0,0,1-1.86,2.16,3.13,3.13,0,0,0-.7-.68,6,6,0,0,0,1.52-1.5,5.72,5.72,0,0,0,1-2.12Zm4.41.06a10.89,10.89,0,0,1-.42,1.08,6,6,0,0,0,2.76,1.83,3.93,3.93,0,0,0-.52.86,7.32,7.32,0,0,1-2.63-2,6.78,6.78,0,0,1-1.22,1.57,2.73,2.73,0,0,0-.68-.65,4.42,4.42,0,0,0,1.2-1.43,5.4,5.4,0,0,0,.61-1.58Z" transform="translate(-511.01 -427.37)"/><path d="M513.58,460.33v-6.58l-1.75,1.09v-1.1a8.59,8.59,0,0,0,1.41-.92,6.71,6.71,0,0,0,1.16-1.11h.35v8.62Z" transform="translate(-511.01 -427.37)"/><path d="M519.25,460.48l-.57-.63a5,5,0,0,0,1.49-1.38,4.48,4.48,0,0,0,1.08-1.82,1.87,1.87,0,0,1-1.35.46,2.39,2.39,0,0,1-1.82-.73,2.79,2.79,0,0,1-.69-2,2.88,2.88,0,0,1,.71-2,2.31,2.31,0,0,1,1.77-.77q2.82,0,2.82,3.74a5.69,5.69,0,0,1-1.1,3.19A4.31,4.31,0,0,1,519.25,460.48Zm2.21-6.05q0-1.83-1.51-1.83a1.19,1.19,0,0,0-1,.48,2.37,2.37,0,0,0,0,2.56,1.22,1.22,0,0,0,1,.49Q521.47,456.12,521.47,454.43Z" transform="translate(-511.01 -427.37)"/><path d="M525.54,460.48l-.57-.63a5,5,0,0,0,1.49-1.38,4.48,4.48,0,0,0,1.08-1.82,1.87,1.87,0,0,1-1.35.46,2.39,2.39,0,0,1-1.82-.73,2.79,2.79,0,0,1-.69-2,2.88,2.88,0,0,1,.71-2,2.31,2.31,0,0,1,1.77-.77q2.82,0,2.82,3.74a5.69,5.69,0,0,1-1.1,3.19A4.31,4.31,0,0,1,525.54,460.48Zm2.21-6.05q0-1.83-1.51-1.83a1.19,1.19,0,0,0-1,.48,2.37,2.37,0,0,0,0,2.56,1.22,1.22,0,0,0,1,.49Q527.76,456.12,527.76,454.43Z" transform="translate(-511.01 -427.37)"/><path d="M534.71,458v2.34H533.6V458h-3.91v-.67l4.61-5.61h.41v5.38h.87v.9Zm-1.11-3.94-2.52,3h2.52Z" transform="translate(-511.01 -427.37)"/><path d="M537.91,458.69a.88.88,0,0,1,.88.88.86.86,0,0,1-.26.62.87.87,0,0,1-1.24,0,.86.86,0,0,1-.26-.62.88.88,0,0,1,.88-.88Z" transform="translate(-511.01 -427.37)"/><path d="M540.62,455.78a5.49,5.49,0,0,1,.75-3,2.37,2.37,0,0,1,2.11-1.17,2.3,2.3,0,0,1,2,1,6.24,6.24,0,0,1,.68,3.4,6.45,6.45,0,0,1-.71,3.28,2.27,2.27,0,0,1-2.07,1.2,2.4,2.4,0,0,1-2.07-1A6.76,6.76,0,0,1,540.62,455.78Zm1.17.11q0,3.57,1.52,3.57a1.35,1.35,0,0,0,1.28-.79,6.58,6.58,0,0,0,.41-2.77,9.14,9.14,0,0,0-.16-2,1.92,1.92,0,0,0-.51-1,1.25,1.25,0,0,0-.89-.33Q541.79,452.59,541.79,455.89Z" transform="translate(-511.01 -427.37)"/><path d="M548.83,460.48l-.57-.63a5,5,0,0,0,1.49-1.38,4.48,4.48,0,0,0,1.08-1.82,1.87,1.87,0,0,1-1.35.46,2.39,2.39,0,0,1-1.82-.73,2.79,2.79,0,0,1-.69-2,2.88,2.88,0,0,1,.71-2,2.31,2.31,0,0,1,1.77-.77q2.82,0,2.82,3.74a5.69,5.69,0,0,1-1.1,3.19A4.31,4.31,0,0,1,548.83,460.48Zm2.21-6.05q0-1.83-1.51-1.83a1.19,1.19,0,0,0-1,.48,2.37,2.37,0,0,0,0,2.56,1.22,1.22,0,0,0,1,.49Q551,456.12,551,454.43Z" transform="translate(-511.01 -427.37)"/><path d="M554.9,458.69a.88.88,0,0,1,.88.88.86.86,0,0,1-.26.62.87.87,0,0,1-1.24,0,.86.86,0,0,1-.26-.62.88.88,0,0,1,.88-.88Z" transform="translate(-511.01 -427.37)"/><path d="M560.15,460.33v-6.58l-1.75,1.09v-1.1a8.59,8.59,0,0,0,1.41-.92,6.71,6.71,0,0,0,1.16-1.11h.35v8.62Z" transform="translate(-511.01 -427.37)"/><path d="M564.89,456.14l-.4-.28v-4.15h4.27v1H565.6v2.09a1.8,1.8,0,0,1,1.1-.32,2.3,2.3,0,0,1,1.83.71,3,3,0,0,1,.63,2q0,3.23-2.88,3.23a3,3,0,0,1-2-.67l.45-1a2.47,2.47,0,0,0,1.54.65q1.65,0,1.65-2.06t-1.63-1.92A1.89,1.89,0,0,0,564.89,456.14Z" transform="translate(-511.01 -427.37)"/><path d="M518.48,533.12h-.37l-2-5.92-1.91,5.92h-.37l-2.71-8.7h1.22l1.72,6,1.89-6h.41l1.86,6,1.75-6h1.22Z" transform="translate(-511.01 -427.37)"/><path d="M523.28,525.47v2.38h2.84v1h-2.84v3.09h3.89V533H522.1v-8.58h5.13v1.05Z" transform="translate(-511.01 -427.37)"/><path d="M531,533h-2.45v-8.58q1.56-.08,2.26-.08a3.12,3.12,0,0,1,2,.55,1.88,1.88,0,0,1,.7,1.57,1.59,1.59,0,0,1-.45,1.09,1.9,1.9,0,0,1-1,.62,2.66,2.66,0,0,1,1.49.81,2.37,2.37,0,0,1,.47,1.55,2.21,2.21,0,0,1-.83,1.8A3.33,3.33,0,0,1,531,533Zm-1.28-7.65v2.47q.37,0,.91,0,1.66,0,1.66-1.35,0-1.19-1.53-1.19Q530.17,525.31,529.7,525.35Zm0,3.38V532q.6.06.93.06a2.54,2.54,0,0,0,1.61-.41,1.6,1.6,0,0,0,.51-1.32,1.51,1.51,0,0,0-.48-1.24,2.56,2.56,0,0,0-1.61-.4Z" transform="translate(-511.01 -427.37)"/><path d="M540.67,533h-1.73v-8.58l2.12-.06a3.76,3.76,0,0,1,2.85,1.09,4,4,0,0,1,1,2.91Q544.95,533,540.67,533Zm-.56-7.53v6.42a6.75,6.75,0,0,0,1,.06A2.3,2.3,0,0,0,543,531a4.14,4.14,0,0,0,.7-2.56q0-3-2.74-3Z" transform="translate(-511.01 -427.37)"/><path d="M547.47,525.47v2.38h2.84v1h-2.84v3.09h3.89V533H546.3v-8.58h5.13v1.05Z" transform="translate(-511.01 -427.37)"/><path d="M552.34,532.61l.43-1.08a2.93,2.93,0,0,0,.82.4,2.84,2.84,0,0,0,.88.16,1.58,1.58,0,0,0,1.1-.37,1.23,1.23,0,0,0,.42-1,1.5,1.5,0,0,0-.23-.81,2.82,2.82,0,0,0-1.16-.81l-.69-.32a2.76,2.76,0,0,1-1.23-1,2.52,2.52,0,0,1-.35-1.35,2.08,2.08,0,0,1,.68-1.59,2.46,2.46,0,0,1,1.75-.63,3.17,3.17,0,0,1,2,.46l-.35,1a2.69,2.69,0,0,0-.71-.33,2.86,2.86,0,0,0-.89-.16,1.28,1.28,0,0,0-.94.34,1.18,1.18,0,0,0-.34.87,1.42,1.42,0,0,0,.12.6,1.25,1.25,0,0,0,.34.45,5.11,5.11,0,0,0,.9.51l.7.33a2.4,2.4,0,0,1,1.59,2.46,2.09,2.09,0,0,1-.78,1.64,3.06,3.06,0,0,1-2.08.67A3.44,3.44,0,0,1,552.34,532.61Z" transform="translate(-511.01 -427.37)"/><path d="M558.7,533v-8.58h1.17V533Z" transform="translate(-511.01 -427.37)"/><path d="M567.78,525l-.49,1a2.92,2.92,0,0,0-1.73-.66,2.6,2.6,0,0,0-2.13.95,3.84,3.84,0,0,0-.78,2.51,3.6,3.6,0,0,0,.76,2.4,2.58,2.58,0,0,0,2.08.91,2.09,2.09,0,0,0,1.52-.56v-2h-1.19v-1h2.36v3.74a3.52,3.52,0,0,1-1.31.64,5.83,5.83,0,0,1-1.63.24,3.49,3.49,0,0,1-2.8-1.2,4.76,4.76,0,0,1-1-3.2,4.61,4.61,0,0,1,1.13-3.23,3.91,3.91,0,0,1,3-1.24A3.18,3.18,0,0,1,567.78,525Z" transform="translate(-511.01 -427.37)"/><path d="M575.5,533.12l-4.44-6.28V533H570v-8.58h.47l4.32,5.94v-5.94h1.11v8.7Z" transform="translate(-511.01 -427.37)"/><path d="M582.4,533h-.94l3.11-8.62h.93Z" transform="translate(-511.01 -427.37)"/><path d="M597.08,525l-.49,1a2.92,2.92,0,0,0-1.73-.66,2.6,2.6,0,0,0-2.13.95,3.84,3.84,0,0,0-.78,2.51,3.6,3.6,0,0,0,.76,2.4,2.58,2.58,0,0,0,2.08.91,2.09,2.09,0,0,0,1.52-.56v-2h-1.19v-1h2.36v3.74a3.52,3.52,0,0,1-1.31.64,5.83,5.83,0,0,1-1.63.24,3.49,3.49,0,0,1-2.8-1.2,4.76,4.76,0,0,1-1-3.2,4.61,4.61,0,0,1,1.13-3.23,3.91,3.91,0,0,1,3-1.24A3.18,3.18,0,0,1,597.08,525Z" transform="translate(-511.01 -427.37)"/><path d="M604,533l-2.29-3.69q-.39,0-1.24-.06V533h-1.17v-8.58l.91,0,1.23,0q3.09,0,3.09,2.46a2.33,2.33,0,0,1-.5,1.46,2.07,2.07,0,0,1-1.18.81l2.49,3.95Zm-3.53-7.53v2.79a6,6,0,0,0,.82.06,2.71,2.71,0,0,0,1.54-.34,1.39,1.39,0,0,0,.48-1.21,1.12,1.12,0,0,0-.52-1,3.22,3.22,0,0,0-1.63-.32Z" transform="translate(-511.01 -427.37)"/><path d="M611.11,533l-.59-1.81h-3.19l-.63,1.81h-1.31l3.49-8.7h.31l3.23,8.7ZM609,526.55l-1.33,3.78h2.55Z" transform="translate(-511.01 -427.37)"/><path d="M614.48,529.7V533h-1.17v-8.58l1.61-.06q3.74,0,3.74,2.5,0,2.89-3.3,2.89Zm0-4.22v3.17l.79.06q2.18,0,2.18-1.72t-2.33-1.57A4.72,4.72,0,0,0,614.48,525.47Z" transform="translate(-511.01 -427.37)"/><path d="M624.92,533v-4.15h-3.75V533H620v-8.58h1.17v3.44h3.75v-3.44h1.17V533Z" transform="translate(-511.01 -427.37)"/><path d="M628.06,533v-8.58h1.17V533Z" transform="translate(-511.01 -427.37)"/><path d="M636.67,524.73l-.39,1a3,3,0,0,0-1.77-.41,2.11,2.11,0,0,0-1.81,1,4.27,4.27,0,0,0-.68,2.51,3.79,3.79,0,0,0,.7,2.38,2.34,2.34,0,0,0,3.67.06l.64.9a3.56,3.56,0,0,1-2.62,1,3.2,3.2,0,0,1-2.65-1.21,5,5,0,0,1-1-3.2,4.91,4.91,0,0,1,1-3.19,3.28,3.28,0,0,1,2.67-1.27A4.35,4.35,0,0,1,636.67,524.73Z" transform="translate(-511.01 -427.37)"/><path d="M643.71,533H642v-8.58l2.12-.06a3.76,3.76,0,0,1,2.85,1.09,4,4,0,0,1,1,2.91Q648,533,643.71,533Zm-.56-7.53v6.42a6.75,6.75,0,0,0,1,.06,2.3,2.3,0,0,0,1.93-.92,4.14,4.14,0,0,0,.7-2.56q0-3-2.74-3Z" transform="translate(-511.01 -427.37)"/><path d="M650.52,525.47v2.38h2.84v1h-2.84v3.09h3.89V533h-5.06v-8.58h5.13v1.05Z" transform="translate(-511.01 -427.37)"/><path d="M655.39,532.61l.43-1.08a2.93,2.93,0,0,0,.82.4,2.84,2.84,0,0,0,.88.16,1.58,1.58,0,0,0,1.1-.37,1.23,1.23,0,0,0,.42-1,1.5,1.5,0,0,0-.23-.81,2.82,2.82,0,0,0-1.16-.81l-.69-.32a2.76,2.76,0,0,1-1.23-1,2.52,2.52,0,0,1-.35-1.35,2.08,2.08,0,0,1,.68-1.59,2.46,2.46,0,0,1,1.75-.63,3.17,3.17,0,0,1,2,.46l-.35,1a2.69,2.69,0,0,0-.71-.33,2.86,2.86,0,0,0-.89-.16,1.28,1.28,0,0,0-.94.34,1.18,1.18,0,0,0-.34.87,1.42,1.42,0,0,0,.12.6,1.25,1.25,0,0,0,.34.45,5.11,5.11,0,0,0,.9.51l.7.33a2.4,2.4,0,0,1,1.59,2.46,2.09,2.09,0,0,1-.78,1.64,3.06,3.06,0,0,1-2.08.67A3.44,3.44,0,0,1,655.39,532.61Z" transform="translate(-511.01 -427.37)"/><path d="M661.75,533v-8.58h1.17V533Z" transform="translate(-511.01 -427.37)"/><path d="M670.83,525l-.49,1a2.92,2.92,0,0,0-1.73-.66,2.6,2.6,0,0,0-2.13.95,3.84,3.84,0,0,0-.78,2.51,3.6,3.6,0,0,0,.76,2.4,2.58,2.58,0,0,0,2.08.91,2.09,2.09,0,0,0,1.52-.56v-2h-1.19v-1h2.36v3.74a3.52,3.52,0,0,1-1.31.64,5.83,5.83,0,0,1-1.63.24,3.49,3.49,0,0,1-2.8-1.2,4.76,4.76,0,0,1-1-3.2,4.61,4.61,0,0,1,1.13-3.23,3.91,3.91,0,0,1,3-1.24A3.18,3.18,0,0,1,670.83,525Z" transform="translate(-511.01 -427.37)"/><path d="M678.55,533.12l-4.44-6.28V533H673v-8.58h.47l4.32,5.94v-5.94h1.11v8.7Z" transform="translate(-511.01 -427.37)"/><path d="M685.45,533h-.94l3.11-8.62h.93Z" transform="translate(-511.01 -427.37)"/><path d="M699.06,533l-.59-1.81h-3.19l-.63,1.81h-1.31l3.49-8.7h.31l3.23,8.7Zm-2.14-6.45-1.33,3.78h2.55Z" transform="translate(-511.01 -427.37)"/><path d="M702.43,529.7V533h-1.17v-8.58l1.61-.06q3.74,0,3.74,2.5,0,2.89-3.3,2.89Zm0-4.22v3.17l.79.06q2.18,0,2.18-1.72t-2.33-1.57A4.72,4.72,0,0,0,702.43,525.47Z" transform="translate(-511.01 -427.37)"/><path d="M709.12,529.7V533H708v-8.58l1.61-.06q3.74,0,3.74,2.5,0,2.89-3.3,2.89Zm0-4.22v3.17l.79.06q2.18,0,2.18-1.72t-2.33-1.57A4.72,4.72,0,0,0,709.12,525.47Z" transform="translate(-511.01 -427.37)"/><path d="M720,533h-1.73v-8.58l2.12-.06a3.76,3.76,0,0,1,2.85,1.09,4,4,0,0,1,1,2.91Q724.27,533,720,533Zm-.56-7.53v6.42a6.75,6.75,0,0,0,1,.06,2.3,2.3,0,0,0,1.93-.92,4.14,4.14,0,0,0,.7-2.56q0-3-2.74-3Z" transform="translate(-511.01 -427.37)"/><path d="M726.79,525.47v2.38h2.84v1h-2.84v3.09h3.89V533h-5.06v-8.58h5.13v1.05Z" transform="translate(-511.01 -427.37)"/><path d="M731.66,532.61l.43-1.08a2.93,2.93,0,0,0,.82.4,2.84,2.84,0,0,0,.88.16,1.58,1.58,0,0,0,1.1-.37,1.23,1.23,0,0,0,.42-1,1.5,1.5,0,0,0-.23-.81,2.82,2.82,0,0,0-1.16-.81l-.69-.32a2.76,2.76,0,0,1-1.23-1,2.52,2.52,0,0,1-.35-1.35,2.08,2.08,0,0,1,.68-1.59,2.46,2.46,0,0,1,1.75-.63,3.17,3.17,0,0,1,2,.46l-.35,1a2.69,2.69,0,0,0-.71-.33,2.86,2.86,0,0,0-.89-.16,1.28,1.28,0,0,0-.94.34,1.18,1.18,0,0,0-.34.87,1.42,1.42,0,0,0,.12.6,1.25,1.25,0,0,0,.34.45,5.11,5.11,0,0,0,.9.51l.7.33a2.4,2.4,0,0,1,1.59,2.46,2.09,2.09,0,0,1-.78,1.64,3.06,3.06,0,0,1-2.08.67A3.44,3.44,0,0,1,731.66,532.61Z" transform="translate(-511.01 -427.37)"/><path d="M738,533v-8.58h1.17V533Z" transform="translate(-511.01 -427.37)"/><path d="M747.1,525l-.49,1a2.92,2.92,0,0,0-1.73-.66,2.6,2.6,0,0,0-2.13.95,3.84,3.84,0,0,0-.78,2.51,3.6,3.6,0,0,0,.76,2.4,2.58,2.58,0,0,0,2.08.91,2.09,2.09,0,0,0,1.52-.56v-2h-1.19v-1h2.36v3.74a3.52,3.52,0,0,1-1.31.64,5.83,5.83,0,0,1-1.63.24,3.49,3.49,0,0,1-2.8-1.2,4.76,4.76,0,0,1-1-3.2,4.61,4.61,0,0,1,1.13-3.23,3.91,3.91,0,0,1,3-1.24A3.18,3.18,0,0,1,747.1,525Z" transform="translate(-511.01 -427.37)"/><path d="M754.82,533.12l-4.44-6.28V533h-1.11v-8.58h.47l4.32,5.94v-5.94h1.11v8.7Z" transform="translate(-511.01 -427.37)"/><path d="M761.72,533h-.94l3.11-8.62h.93Z" transform="translate(-511.01 -427.37)"/><path d="M516.8,554v-4.15h-3.75V554h-1.17v-8.58h1.17v3.44h3.75v-3.44H518V554Z" transform="translate(-511.01 -427.37)"/><path d="M522.86,546.47V554h-1.17v-7.53H519v-1.05h6.76v1.05Z" transform="translate(-511.01 -427.37)"/><path d="M533.16,554l-1-5.51-1.87,5.63H530L528,548.49,527,554h-1.11l1.61-8.58h.53l2,6.26,1.89-6.26h.53l1.74,8.58Z" transform="translate(-511.01 -427.37)"/><path d="M535.21,554v-8.58h1.17v7.53h3.88V554Z" transform="translate(-511.01 -427.37)"/><path d="M541.77,549.81l-.4-.28v-4.15h4.27v1h-3.16v2.09a1.8,1.8,0,0,1,1.1-.32,2.3,2.3,0,0,1,1.83.71,3,3,0,0,1,.63,2q0,3.23-2.88,3.23a3,3,0,0,1-2-.67l.45-1a2.47,2.47,0,0,0,1.54.65q1.65,0,1.65-2.06t-1.63-1.92A1.89,1.89,0,0,0,541.77,549.81Z" transform="translate(-511.01 -427.37)"/><path d="M552.37,554h-.94l3.11-8.62h.93Z" transform="translate(-511.01 -427.37)"/><path d="M566.58,545.73l-.39,1a3,3,0,0,0-1.77-.41,2.11,2.11,0,0,0-1.81,1,4.27,4.27,0,0,0-.68,2.51,3.79,3.79,0,0,0,.7,2.38,2.34,2.34,0,0,0,3.67.06l.64.9a3.56,3.56,0,0,1-2.62,1,3.2,3.2,0,0,1-2.65-1.21,5,5,0,0,1-1-3.2,4.91,4.91,0,0,1,1-3.19,3.28,3.28,0,0,1,2.67-1.27A4.35,4.35,0,0,1,566.58,545.73Z" transform="translate(-511.01 -427.37)"/><path d="M567.89,553.61l.43-1.08a2.93,2.93,0,0,0,.82.4,2.84,2.84,0,0,0,.88.16,1.58,1.58,0,0,0,1.1-.37,1.23,1.23,0,0,0,.42-1,1.5,1.5,0,0,0-.23-.81,2.82,2.82,0,0,0-1.16-.81l-.69-.32a2.76,2.76,0,0,1-1.23-1,2.52,2.52,0,0,1-.35-1.35,2.08,2.08,0,0,1,.68-1.59,2.46,2.46,0,0,1,1.75-.63,3.17,3.17,0,0,1,2,.46l-.35,1a2.69,2.69,0,0,0-.71-.33,2.86,2.86,0,0,0-.89-.16,1.28,1.28,0,0,0-.94.34,1.18,1.18,0,0,0-.34.87,1.42,1.42,0,0,0,.12.6,1.25,1.25,0,0,0,.34.45,5.11,5.11,0,0,0,.9.51l.7.33a2.4,2.4,0,0,1,1.59,2.46,2.09,2.09,0,0,1-.78,1.64,3.06,3.06,0,0,1-2.08.67A3.44,3.44,0,0,1,567.89,553.61Z" transform="translate(-511.01 -427.37)"/><path d="M573.67,553.61l.43-1.08a2.93,2.93,0,0,0,.82.4,2.84,2.84,0,0,0,.88.16,1.58,1.58,0,0,0,1.1-.37,1.23,1.23,0,0,0,.42-1,1.5,1.5,0,0,0-.23-.81,2.82,2.82,0,0,0-1.16-.81l-.69-.32a2.76,2.76,0,0,1-1.23-1,2.52,2.52,0,0,1-.35-1.35,2.08,2.08,0,0,1,.68-1.59,2.46,2.46,0,0,1,1.75-.63,3.17,3.17,0,0,1,2,.46l-.35,1a2.69,2.69,0,0,0-.71-.33,2.86,2.86,0,0,0-.89-.16,1.28,1.28,0,0,0-.94.34,1.18,1.18,0,0,0-.34.87,1.42,1.42,0,0,0,.12.6,1.25,1.25,0,0,0,.34.45,5.11,5.11,0,0,0,.9.51l.7.33a2.4,2.4,0,0,1,1.59,2.46,2.09,2.09,0,0,1-.78,1.64,3.06,3.06,0,0,1-2.08.67A3.44,3.44,0,0,1,573.67,553.61Z" transform="translate(-511.01 -427.37)"/><path d="M584.61,554h-.94l3.11-8.62h.93Z" transform="translate(-511.01 -427.37)"/><path d="M592.76,552.28h1a.85.85,0,0,0,.93.78,1.48,1.48,0,0,0,1.1-.34,3.29,3.29,0,0,0,.32-1.88v-5.43h1.17v5.38a4.4,4.4,0,0,1-.57,2.54,2.34,2.34,0,0,1-2,.78,1.94,1.94,0,0,1-1.37-.5A1.91,1.91,0,0,1,592.76,552.28Z" transform="translate(-511.01 -427.37)"/><path d="M602.52,553.28a2.46,2.46,0,0,1-2,.84,1.76,1.76,0,0,1-1.28-.54,1.8,1.8,0,0,1-.54-1.33,2,2,0,0,1,.83-1.61,3.33,3.33,0,0,1,2.13-.66,2.5,2.5,0,0,1,.8.15q0-1.52-1.36-1.52a2.17,2.17,0,0,0-1.61.56l-.47-.93a2.75,2.75,0,0,1,.88-.44,3.41,3.41,0,0,1,1.07-.18,2.24,2.24,0,0,1,2.6,2.6v2.25a1.15,1.15,0,0,0,.49,1.1v.56a2.1,2.1,0,0,1-1-.19A1.09,1.09,0,0,1,602.52,553.28Zm-.11-2.36a4,4,0,0,0-.74-.12,2.11,2.11,0,0,0-1.38.43,1.29,1.29,0,0,0-.53,1q0,1,1.15,1a1.89,1.89,0,0,0,1.49-.8Z" transform="translate(-511.01 -427.37)"/><path d="M607.54,554.12h-.29l-2.69-6.41h1.22l1.66,4.39,1.69-4.39h1.17Z" transform="translate(-511.01 -427.37)"/><path d="M614.71,553.28a2.46,2.46,0,0,1-2,.84,1.76,1.76,0,0,1-1.28-.54,1.8,1.8,0,0,1-.54-1.33,2,2,0,0,1,.83-1.61,3.33,3.33,0,0,1,2.13-.66,2.5,2.5,0,0,1,.8.15q0-1.52-1.36-1.52a2.17,2.17,0,0,0-1.61.56l-.47-.93a2.75,2.75,0,0,1,.88-.44,3.41,3.41,0,0,1,1.07-.18,2.24,2.24,0,0,1,2.6,2.6v2.25a1.15,1.15,0,0,0,.49,1.1v.56a2.1,2.1,0,0,1-1-.19A1.09,1.09,0,0,1,614.71,553.28Zm-.11-2.36a4,4,0,0,0-.74-.12,2.11,2.11,0,0,0-1.38.43,1.29,1.29,0,0,0-.53,1q0,1,1.15,1a1.89,1.89,0,0,0,1.49-.8Z" transform="translate(-511.01 -427.37)"/><path d="M617.17,553.61l.43-1.08a2.93,2.93,0,0,0,.82.4,2.84,2.84,0,0,0,.88.16,1.58,1.58,0,0,0,1.1-.37,1.23,1.23,0,0,0,.42-1,1.5,1.5,0,0,0-.23-.81,2.82,2.82,0,0,0-1.16-.81l-.69-.32a2.76,2.76,0,0,1-1.23-1,2.52,2.52,0,0,1-.35-1.35,2.08,2.08,0,0,1,.68-1.59,2.46,2.46,0,0,1,1.75-.63,3.17,3.17,0,0,1,2,.46l-.35,1a2.69,2.69,0,0,0-.71-.33,2.86,2.86,0,0,0-.89-.16,1.28,1.28,0,0,0-.94.34,1.18,1.18,0,0,0-.34.87,1.42,1.42,0,0,0,.12.6,1.25,1.25,0,0,0,.34.45,5.11,5.11,0,0,0,.9.51l.7.33a2.4,2.4,0,0,1,1.59,2.46,2.09,2.09,0,0,1-.78,1.64,3.06,3.06,0,0,1-2.08.67A3.44,3.44,0,0,1,617.17,553.61Z" transform="translate(-511.01 -427.37)"/><path d="M628,548.23l-.55.79a1.65,1.65,0,0,0-.6-.32,2.53,2.53,0,0,0-.85-.15,1.78,1.78,0,0,0-1.44.64,2.63,2.63,0,0,0-.53,1.74,2.36,2.36,0,0,0,.54,1.68,2,2,0,0,0,1.51.58,2.5,2.5,0,0,0,1.51-.58l.44.94a4,4,0,0,1-2.22.58,2.83,2.83,0,0,1-2.12-.86,3.2,3.2,0,0,1-.84-2.33,3.34,3.34,0,0,1,.87-2.41,3.32,3.32,0,0,1,3.44-.7A3,3,0,0,1,628,548.23Z" transform="translate(-511.01 -427.37)"/><path d="M632.59,548.8a1.28,1.28,0,0,0-.73-.25,1.3,1.3,0,0,0-1,.54,2,2,0,0,0-.44,1.31V554h-1.11v-6.28h1.11v1a2,2,0,0,1,1.81-1.12,5.06,5.06,0,0,1,.86.11Z" transform="translate(-511.01 -427.37)"/><path d="M634.38,554v-5.34h-.86v-.94h2V554Zm.61-8.65a.67.67,0,0,1,.49.2.66.66,0,0,1,.2.48.69.69,0,0,1-.69.69.66.66,0,0,1-.48-.2.69.69,0,0,1,.48-1.17Z" transform="translate(-511.01 -427.37)"/><path d="M638.38,553.65v2.81h-1.11v-8.74h1.11v.52a2.08,2.08,0,0,1,1.53-.63,2.65,2.65,0,0,1,2.08.83,4.18,4.18,0,0,1,0,4.77,2.65,2.65,0,0,1-2.17.91A2.89,2.89,0,0,1,639,554,1.13,1.13,0,0,1,638.38,553.65Zm0-4.58v3.66a1,1,0,0,0,.45.3,1.7,1.7,0,0,0,.66.14q2.07,0,2.07-2.34a2.57,2.57,0,0,0-.49-1.74,2,2,0,0,0-1.58-.55,1.38,1.38,0,0,0-.57.16A1.89,1.89,0,0,0,638.38,549.08Z" transform="translate(-511.01 -427.37)"/><path d="M644.35,548.6h-.73v-.88h.73v-1.31l1.11-.43v1.74h1.72v.88h-1.72v3.12a1.83,1.83,0,0,0,.27,1.13,1,1,0,0,0,.86.33,2.06,2.06,0,0,0,.88-.22l.16,1a6.15,6.15,0,0,1-1.52.18,1.65,1.65,0,0,1-1.26-.55,2,2,0,0,1-.51-1.4Z" transform="translate(-511.01 -427.37)"/><path d="M653.58,554h-.94l3.11-8.62h.93Z" transform="translate(-511.01 -427.37)"/><path d="M668.92,554.12h-.37l-2-5.92-1.91,5.92h-.37l-2.71-8.7h1.22l1.72,6,1.89-6h.41l1.86,6,1.75-6h1.22Z" transform="translate(-511.01 -427.37)"/><path d="M672,550.85a3.43,3.43,0,0,1,.78-2.35,2.9,2.9,0,0,1,4.15,0,4.16,4.16,0,0,1,0,4.78,2.9,2.9,0,0,1-4.17,0A3.57,3.57,0,0,1,672,550.85Zm1.17,0q0,2.36,1.67,2.36a1.41,1.41,0,0,0,1.22-.63,3,3,0,0,0,.44-1.73q0-2.33-1.66-2.33a1.43,1.43,0,0,0-1.22.62A2.85,2.85,0,0,0,673.22,550.85Z" transform="translate(-511.01 -427.37)"/><path d="M682.3,548.8a1.28,1.28,0,0,0-.73-.25,1.3,1.3,0,0,0-1,.54,2,2,0,0,0-.44,1.31V554H679v-6.28h1.11v1a2,2,0,0,1,1.81-1.12,5.06,5.06,0,0,1,.86.11Z" transform="translate(-511.01 -427.37)"/><path d="M687.54,554v-.46a2.29,2.29,0,0,1-1.69.58,2.41,2.41,0,0,1-1.91-.84,3.31,3.31,0,0,1-.73-2.25,3.61,3.61,0,0,1,.84-2.41,2.55,2.55,0,0,1,2-1,2.13,2.13,0,0,1,1.48.46v-2.91h1.11V554Zm0-4.82a1.32,1.32,0,0,0-1.15-.63,1.79,1.79,0,0,0-1.45.67,2.57,2.57,0,0,0-.55,1.7q0,2.27,2.06,2.27a1.59,1.59,0,0,0,.63-.17.92.92,0,0,0,.46-.35Z" transform="translate(-511.01 -427.37)"/><path d="M691.5,550.7V554h-1.17v-8.58l1.61-.06q3.74,0,3.74,2.5,0,2.89-3.3,2.89Zm0-4.22v3.17l.79.06q2.18,0,2.18-1.72t-2.33-1.57A4.72,4.72,0,0,0,691.5,546.47Z" transform="translate(-511.01 -427.37)"/><path d="M700.35,548.8a1.28,1.28,0,0,0-.73-.25,1.3,1.3,0,0,0-1,.54,2,2,0,0,0-.44,1.31V554H697v-6.28h1.11v1a2,2,0,0,1,1.81-1.12,5.06,5.06,0,0,1,.86.11Z" transform="translate(-511.01 -427.37)"/><path d="M706.88,551h-4.52a2.27,2.27,0,0,0,.6,1.69,1.89,1.89,0,0,0,1.37.52,2.34,2.34,0,0,0,1.59-.56l.47.8a2.1,2.1,0,0,1-.79.45,4.28,4.28,0,0,1-1.49.25,2.78,2.78,0,0,1-2-.8,3.15,3.15,0,0,1-.92-2.38,3.35,3.35,0,0,1,.94-2.49,2.74,2.74,0,0,1,2-.84,2.86,2.86,0,0,1,2.1.76,2.58,2.58,0,0,1,.74,1.93A2.49,2.49,0,0,1,706.88,551Zm-2.7-2.43a1.76,1.76,0,0,0-1.79,1.62h3.47a1.58,1.58,0,0,0-.42-1.12A1.65,1.65,0,0,0,704.18,548.54Z" transform="translate(-511.01 -427.37)"/><path d="M707.73,553.63l.39-1.05a3,3,0,0,0,1.5.61q1,0,1-.87,0-.62-1-1.07a8.19,8.19,0,0,1-1-.53,2.3,2.3,0,0,1-.46-.41,1.64,1.64,0,0,1-.29-.49,1.6,1.6,0,0,1-.1-.56,1.44,1.44,0,0,1,.56-1.21,2.34,2.34,0,0,1,1.47-.43,4.73,4.73,0,0,1,1.73.43l-.32,1a2.13,2.13,0,0,0-1.33-.53,1.16,1.16,0,0,0-.67.19.56.56,0,0,0-.27.47,1,1,0,0,0,.69.91l.8.36a2.8,2.8,0,0,1,1.07.76,1.69,1.69,0,0,1,.33,1.07,1.6,1.6,0,0,1-.59,1.32,2.54,2.54,0,0,1-1.64.48A3.73,3.73,0,0,1,707.73,553.63Z" transform="translate(-511.01 -427.37)"/><path d="M712.59,553.63l.39-1.05a3,3,0,0,0,1.5.61q1,0,1-.87,0-.62-1-1.07a8.19,8.19,0,0,1-1-.53,2.3,2.3,0,0,1-.46-.41,1.64,1.64,0,0,1-.29-.49,1.6,1.6,0,0,1-.1-.56,1.44,1.44,0,0,1,.56-1.21,2.34,2.34,0,0,1,1.47-.43,4.73,4.73,0,0,1,1.73.43l-.32,1a2.13,2.13,0,0,0-1.33-.53,1.16,1.16,0,0,0-.67.19.56.56,0,0,0-.27.47,1,1,0,0,0,.69.91l.8.36a2.8,2.8,0,0,1,1.07.76,1.69,1.69,0,0,1,.33,1.07,1.6,1.6,0,0,1-.59,1.32,2.54,2.54,0,0,1-1.64.48A3.73,3.73,0,0,1,712.59,553.63Z" transform="translate(-511.01 -427.37)"/><path d="M722.73,554h-.94l3.11-8.62h.93Z" transform="translate(-511.01 -427.37)"/><path d="M731.47,545.42h1.17v5.88a1.72,1.72,0,0,0,1.82,1.8,1.86,1.86,0,0,0,1.37-.49,1.79,1.79,0,0,0,.5-1.34v-5.85h1.17v6a2.59,2.59,0,0,1-.81,2,3.76,3.76,0,0,1-4.43,0,2.64,2.64,0,0,1-.78-2.05Z" transform="translate(-511.01 -427.37)"/><path d="M743,554v-3.65a2.42,2.42,0,0,0-.3-1.4,1.18,1.18,0,0,0-1-.4,1.66,1.66,0,0,0-.8.23,1.77,1.77,0,0,0-.64.56V554h-1.11v-6.28h.76l.35.81a1.93,1.93,0,0,1,1.8-.93q2.06,0,2.06,2.51V554Z" transform="translate(-511.01 -427.37)"/><path d="M746.26,554v-5.34h-.86v-.94h2V554Zm.61-8.65a.67.67,0,0,1,.49.2.66.66,0,0,1,.2.48.69.69,0,0,1-.69.69.66.66,0,0,1-.48-.2.69.69,0,0,1,.48-1.17Z" transform="translate(-511.01 -427.37)"/><path d="M749.54,548.6h-.73v-.88h.73v-1.31l1.11-.43v1.74h1.72v.88h-1.72v3.12a1.83,1.83,0,0,0,.27,1.13,1,1,0,0,0,.86.33,2.06,2.06,0,0,0,.88-.22l.16,1a6.15,6.15,0,0,1-1.52.18,1.65,1.65,0,0,1-1.26-.55,2,2,0,0,1-.51-1.4Z" transform="translate(-511.01 -427.37)"/><path d="M756.3,555.07a1.93,1.93,0,0,1-.91,1,3.06,3.06,0,0,1-1.55.4v-1a2.14,2.14,0,0,0,1.2-.33.94.94,0,0,0,.5-.79,3,3,0,0,0-.18-1q-.18-.5-.47-1.24l-1.7-4.37h1.14l1.85,4.85,1.66-4.85H759Z" transform="translate(-511.01 -427.37)"/><path d="M764.69,554h-.94l3.11-8.62h.93Z" transform="translate(-511.01 -427.37)"/><path d="M512.08,575v-8.58h1.17V575Z" transform="translate(-511.01 -427.37)"/><path d="M515.22,573.22v-7.07h1.11V573a1.07,1.07,0,0,0,.29.79,1,1,0,0,0,.76.29v1Q515.22,575.12,515.22,573.22Z" transform="translate(-511.01 -427.37)"/><path d="M518.76,573.22v-7.07h1.11V573a1.07,1.07,0,0,0,.29.79,1,1,0,0,0,.76.29v1Q518.76,575.12,518.76,573.22Z" transform="translate(-511.01 -427.37)"/><path d="M523.26,568.72v4q0,1.45,1.26,1.45a1.73,1.73,0,0,0,1-.32,1.52,1.52,0,0,0,.6-.73v-4.41h1.11V575h-1.11v-.87a1.73,1.73,0,0,1-.75.68,2.3,2.3,0,0,1-1.1.31,2,2,0,0,1-1.58-.59,2.38,2.38,0,0,1-.55-1.68v-4.12Z" transform="translate(-511.01 -427.37)"/><path d="M528.36,574.63l.39-1.05a3,3,0,0,0,1.5.61q1,0,1-.87,0-.62-1-1.07a8.19,8.19,0,0,1-1-.53,2.3,2.3,0,0,1-.46-.41,1.64,1.64,0,0,1-.29-.49,1.6,1.6,0,0,1-.1-.56A1.44,1.44,0,0,1,529,569a2.34,2.34,0,0,1,1.47-.43,4.73,4.73,0,0,1,1.73.43l-.32,1a2.13,2.13,0,0,0-1.33-.53,1.16,1.16,0,0,0-.67.19.56.56,0,0,0-.27.47,1,1,0,0,0,.69.91l.8.36a2.8,2.8,0,0,1,1.07.76,1.69,1.69,0,0,1,.33,1.07,1.6,1.6,0,0,1-.59,1.32,2.54,2.54,0,0,1-1.64.48A3.73,3.73,0,0,1,528.36,574.63Z" transform="translate(-511.01 -427.37)"/><path d="M534,569.6h-.73v-.88H534v-1.31l1.11-.43v1.74h1.72v.88h-1.72v3.12a1.83,1.83,0,0,0,.27,1.13,1,1,0,0,0,.86.33,2.06,2.06,0,0,0,.88-.22l.16,1a6.15,6.15,0,0,1-1.52.18,1.65,1.65,0,0,1-1.26-.55,2,2,0,0,1-.51-1.4Z" transform="translate(-511.01 -427.37)"/><path d="M541.79,569.8a1.28,1.28,0,0,0-.73-.25,1.3,1.3,0,0,0-1,.54,2,2,0,0,0-.44,1.31V575h-1.11v-6.28h1.11v1a2,2,0,0,1,1.81-1.12,5.06,5.06,0,0,1,.86.11Z" transform="translate(-511.01 -427.37)"/><path d="M546.59,574.28a2.46,2.46,0,0,1-2,.84,1.76,1.76,0,0,1-1.28-.54,1.8,1.8,0,0,1-.54-1.33,2,2,0,0,1,.83-1.61,3.33,3.33,0,0,1,2.13-.66,2.5,2.5,0,0,1,.8.15q0-1.52-1.36-1.52a2.17,2.17,0,0,0-1.61.56l-.47-.93a2.75,2.75,0,0,1,.88-.44,3.41,3.41,0,0,1,1.07-.18,2.24,2.24,0,0,1,2.6,2.6v2.25a1.15,1.15,0,0,0,.49,1.1v.56a2.1,2.1,0,0,1-1-.19A1.09,1.09,0,0,1,546.59,574.28Zm-.11-2.36a4,4,0,0,0-.74-.12,2.11,2.11,0,0,0-1.38.43,1.29,1.29,0,0,0-.53,1q0,1,1.15,1a1.89,1.89,0,0,0,1.49-.8Z" transform="translate(-511.01 -427.37)"/><path d="M549.75,569.6H549v-.88h.73v-1.31l1.11-.43v1.74h1.72v.88h-1.72v3.12a1.83,1.83,0,0,0,.27,1.13,1,1,0,0,0,.86.33,2.06,2.06,0,0,0,.88-.22l.16,1a6.15,6.15,0,0,1-1.52.18,1.65,1.65,0,0,1-1.26-.55,2,2,0,0,1-.51-1.4Z" transform="translate(-511.01 -427.37)"/><path d="M553.7,571.85a3.43,3.43,0,0,1,.78-2.35,2.9,2.9,0,0,1,4.15,0,4.16,4.16,0,0,1,0,4.78,2.9,2.9,0,0,1-4.17,0A3.57,3.57,0,0,1,553.7,571.85Zm1.17,0q0,2.36,1.67,2.36a1.41,1.41,0,0,0,1.22-.63,3,3,0,0,0,.44-1.73q0-2.33-1.66-2.33a1.43,1.43,0,0,0-1.22.62A2.85,2.85,0,0,0,554.87,571.85Z" transform="translate(-511.01 -427.37)"/><path d="M564,569.8a1.28,1.28,0,0,0-.73-.25,1.3,1.3,0,0,0-1,.54,2,2,0,0,0-.44,1.31V575h-1.11v-6.28h1.11v1a2,2,0,0,1,1.81-1.12,5.06,5.06,0,0,1,.86.11Z" transform="translate(-511.01 -427.37)"/><path d="M570.09,575h-.94l3.11-8.62h.93Z" transform="translate(-511.01 -427.37)"/><path d="M580,571.7V575h-1.17v-8.58l1.61-.06q3.74,0,3.74,2.5,0,2.89-3.3,2.89Zm0-4.22v3.17l.79.06q2.18,0,2.18-1.72t-2.33-1.57A4.72,4.72,0,0,0,580,567.47Z" transform="translate(-511.01 -427.37)"/><path d="M589.29,575v-3.94a1.65,1.65,0,0,0-.35-1.11,1.21,1.21,0,0,0-1-.4,1.6,1.6,0,0,0-.81.24,1.89,1.89,0,0,0-.62.55V575h-1.11v-8.85h1.11v3.26a1.66,1.66,0,0,1,.72-.58,2.39,2.39,0,0,1,1-.23,2,2,0,0,1,1.56.66,2.66,2.66,0,0,1,.57,1.79V575Z" transform="translate(-511.01 -427.37)"/><path d="M591.57,571.85a3.43,3.43,0,0,1,.78-2.35,2.9,2.9,0,0,1,4.15,0,4.16,4.16,0,0,1,0,4.78,2.9,2.9,0,0,1-4.17,0A3.57,3.57,0,0,1,591.57,571.85Zm1.17,0q0,2.36,1.67,2.36a1.41,1.41,0,0,0,1.22-.63,3,3,0,0,0,.44-1.73q0-2.33-1.66-2.33a1.43,1.43,0,0,0-1.22.62A2.85,2.85,0,0,0,592.74,571.85Z" transform="translate(-511.01 -427.37)"/><path d="M598.82,569.6h-.73v-.88h.73v-1.31l1.11-.43v1.74h1.72v.88h-1.72v3.12a1.83,1.83,0,0,0,.27,1.13,1,1,0,0,0,.86.33,2.06,2.06,0,0,0,.88-.22l.16,1a6.15,6.15,0,0,1-1.52.18,1.65,1.65,0,0,1-1.26-.55,2,2,0,0,1-.51-1.4Z" transform="translate(-511.01 -427.37)"/><path d="M602.77,571.85a3.43,3.43,0,0,1,.78-2.35,2.9,2.9,0,0,1,4.15,0,4.16,4.16,0,0,1,0,4.78,2.9,2.9,0,0,1-4.17,0A3.57,3.57,0,0,1,602.77,571.85Zm1.17,0q0,2.36,1.67,2.36a1.41,1.41,0,0,0,1.22-.63,3,3,0,0,0,.44-1.73q0-2.33-1.66-2.33a1.43,1.43,0,0,0-1.22.62A2.85,2.85,0,0,0,603.94,571.85Z" transform="translate(-511.01 -427.37)"/><path d="M609.21,574.63l.39-1.05a3,3,0,0,0,1.5.61q1,0,1-.87,0-.62-1-1.07a8.19,8.19,0,0,1-1-.53,2.3,2.3,0,0,1-.46-.41,1.64,1.64,0,0,1-.29-.49,1.6,1.6,0,0,1-.1-.56,1.44,1.44,0,0,1,.56-1.21,2.34,2.34,0,0,1,1.47-.43A4.73,4.73,0,0,1,613,569l-.32,1a2.13,2.13,0,0,0-1.33-.53,1.16,1.16,0,0,0-.67.19.56.56,0,0,0-.27.47,1,1,0,0,0,.69.91l.8.36a2.8,2.8,0,0,1,1.07.76,1.69,1.69,0,0,1,.33,1.07,1.6,1.6,0,0,1-.59,1.32,2.54,2.54,0,0,1-1.64.48A3.73,3.73,0,0,1,609.21,574.63Z" transform="translate(-511.01 -427.37)"/><path d="M618.34,575v-3.94a1.65,1.65,0,0,0-.35-1.11,1.21,1.21,0,0,0-1-.4,1.6,1.6,0,0,0-.81.24,1.89,1.89,0,0,0-.62.55V575h-1.11v-8.85h1.11v3.26a1.66,1.66,0,0,1,.72-.58,2.39,2.39,0,0,1,1-.23,2,2,0,0,1,1.56.66,2.66,2.66,0,0,1,.57,1.79V575Z" transform="translate(-511.01 -427.37)"/><path d="M620.62,571.85a3.43,3.43,0,0,1,.78-2.35,2.9,2.9,0,0,1,4.15,0,4.16,4.16,0,0,1,0,4.78,2.9,2.9,0,0,1-4.17,0A3.57,3.57,0,0,1,620.62,571.85Zm1.17,0q0,2.36,1.67,2.36a1.41,1.41,0,0,0,1.22-.63,3,3,0,0,0,.44-1.73q0-2.33-1.66-2.33a1.43,1.43,0,0,0-1.22.62A2.85,2.85,0,0,0,621.79,571.85Z" transform="translate(-511.01 -427.37)"/><path d="M628.59,574.65v2.81h-1.11v-8.74h1.11v.52a2.08,2.08,0,0,1,1.53-.63,2.65,2.65,0,0,1,2.08.83,4.18,4.18,0,0,1,0,4.77,2.65,2.65,0,0,1-2.17.91,2.89,2.89,0,0,1-.85-.14A1.13,1.13,0,0,1,628.59,574.65Zm0-4.58v3.66a1,1,0,0,0,.45.3,1.7,1.7,0,0,0,.66.14q2.07,0,2.07-2.34a2.57,2.57,0,0,0-.49-1.74,2,2,0,0,0-1.58-.55,1.38,1.38,0,0,0-.57.16A1.89,1.89,0,0,0,628.59,570.08Z" transform="translate(-511.01 -427.37)"/><path d="M639,575h-.94l3.11-8.62h.93Z" transform="translate(-511.01 -427.37)"/><path d="M647.38,574.61l.43-1.08a2.93,2.93,0,0,0,.82.4,2.84,2.84,0,0,0,.88.16,1.58,1.58,0,0,0,1.1-.37,1.23,1.23,0,0,0,.42-1,1.5,1.5,0,0,0-.23-.81,2.82,2.82,0,0,0-1.16-.81l-.69-.32a2.76,2.76,0,0,1-1.23-1,2.52,2.52,0,0,1-.35-1.35,2.08,2.08,0,0,1,.68-1.59,2.46,2.46,0,0,1,1.75-.63,3.17,3.17,0,0,1,2,.46l-.35,1a2.69,2.69,0,0,0-.71-.33,2.86,2.86,0,0,0-.89-.16,1.28,1.28,0,0,0-.94.34,1.18,1.18,0,0,0-.34.87,1.42,1.42,0,0,0,.12.6,1.25,1.25,0,0,0,.34.45,5.11,5.11,0,0,0,.9.51l.7.33a2.4,2.4,0,0,1,1.59,2.46,2.09,2.09,0,0,1-.78,1.64,3.06,3.06,0,0,1-2.08.67A3.44,3.44,0,0,1,647.38,574.61Z" transform="translate(-511.01 -427.37)"/><path d="M657.51,575l-2-3.14-1,1V575h-1.11v-8.85h1.11v5.49l2.4-2.92h1.3l-2,2.38,2.46,3.89Z" transform="translate(-511.01 -427.37)"/><path d="M664.79,572h-4.52a2.27,2.27,0,0,0,.6,1.69,1.89,1.89,0,0,0,1.37.52,2.34,2.34,0,0,0,1.59-.56l.47.8a2.1,2.1,0,0,1-.79.45,4.28,4.28,0,0,1-1.49.25,2.78,2.78,0,0,1-2-.8,3.15,3.15,0,0,1-.92-2.38,3.35,3.35,0,0,1,.94-2.49,2.74,2.74,0,0,1,2-.84,2.86,2.86,0,0,1,2.1.76,2.58,2.58,0,0,1,.74,1.93A2.49,2.49,0,0,1,664.79,572Zm-2.7-2.43a1.76,1.76,0,0,0-1.79,1.62h3.47a1.58,1.58,0,0,0-.42-1.12A1.65,1.65,0,0,0,662.09,569.54Z" transform="translate(-511.01 -427.37)"/><path d="M666.45,569.6h-.73v-.88h.73v-1.31l1.11-.43v1.74h1.72v.88h-1.72v3.12a1.83,1.83,0,0,0,.27,1.13,1,1,0,0,0,.86.33,2.06,2.06,0,0,0,.88-.22l.16,1a6.15,6.15,0,0,1-1.52.18,1.65,1.65,0,0,1-1.26-.55,2,2,0,0,1-.51-1.4Z" transform="translate(-511.01 -427.37)"/><path d="M675.54,569.23,675,570a1.65,1.65,0,0,0-.6-.32,2.53,2.53,0,0,0-.85-.15,1.78,1.78,0,0,0-1.44.64,2.63,2.63,0,0,0-.53,1.74,2.36,2.36,0,0,0,.54,1.68,2,2,0,0,0,1.51.58,2.5,2.5,0,0,0,1.51-.58l.44.94a4,4,0,0,1-2.22.58,2.83,2.83,0,0,1-2.12-.86,3.2,3.2,0,0,1-.84-2.33,3.34,3.34,0,0,1,.87-2.41,3.32,3.32,0,0,1,3.44-.7A3,3,0,0,1,675.54,569.23Z" transform="translate(-511.01 -427.37)"/><path d="M680.62,575v-3.94a1.65,1.65,0,0,0-.35-1.11,1.21,1.21,0,0,0-1-.4,1.6,1.6,0,0,0-.81.24,1.89,1.89,0,0,0-.62.55V575h-1.11v-8.85h1.11v3.26a1.66,1.66,0,0,1,.72-.58,2.39,2.39,0,0,1,1-.23,2,2,0,0,1,1.56.66,2.66,2.66,0,0,1,.57,1.79V575Z" transform="translate(-511.01 -427.37)"/><path d="M688.18,575h-.94l3.11-8.62h.93Z" transform="translate(-511.01 -427.37)"/><path d="M698.09,571.7V575h-1.17v-8.58l1.61-.06q3.74,0,3.74,2.5,0,2.89-3.3,2.89Zm0-4.22v3.17l.79.06q2.18,0,2.18-1.72t-2.33-1.57A4.72,4.72,0,0,0,698.09,567.47Z" transform="translate(-511.01 -427.37)"/><path d="M706.93,569.8a1.28,1.28,0,0,0-.73-.25,1.3,1.3,0,0,0-1,.54,2,2,0,0,0-.44,1.31V575h-1.11v-6.28h1.11v1a2,2,0,0,1,1.81-1.12,5.06,5.06,0,0,1,.86.11Z" transform="translate(-511.01 -427.37)"/><path d="M707.78,571.85a3.43,3.43,0,0,1,.78-2.35,2.9,2.9,0,0,1,4.15,0,4.16,4.16,0,0,1,0,4.78,2.9,2.9,0,0,1-4.17,0A3.57,3.57,0,0,1,707.78,571.85Zm1.17,0q0,2.36,1.67,2.36a1.41,1.41,0,0,0,1.22-.63,3,3,0,0,0,.44-1.73q0-2.33-1.66-2.33a1.43,1.43,0,0,0-1.22.62A2.85,2.85,0,0,0,708.95,571.85Z" transform="translate(-511.01 -427.37)"/><path d="M719.36,569.23l-.55.79a1.65,1.65,0,0,0-.6-.32,2.53,2.53,0,0,0-.85-.15,1.78,1.78,0,0,0-1.44.64,2.63,2.63,0,0,0-.53,1.74,2.36,2.36,0,0,0,.54,1.68,2,2,0,0,0,1.51.58,2.5,2.5,0,0,0,1.51-.58l.44.94a4,4,0,0,1-2.22.58,2.83,2.83,0,0,1-2.12-.86,3.2,3.2,0,0,1-.84-2.33,3.34,3.34,0,0,1,.87-2.41,3.32,3.32,0,0,1,3.44-.7A3,3,0,0,1,719.36,569.23Z" transform="translate(-511.01 -427.37)"/><path d="M725.85,572h-4.52a2.27,2.27,0,0,0,.6,1.69,1.89,1.89,0,0,0,1.37.52,2.34,2.34,0,0,0,1.59-.56l.47.8a2.1,2.1,0,0,1-.79.45,4.28,4.28,0,0,1-1.49.25,2.78,2.78,0,0,1-2-.8,3.15,3.15,0,0,1-.92-2.38,3.35,3.35,0,0,1,.94-2.49,2.74,2.74,0,0,1,2-.84,2.86,2.86,0,0,1,2.1.76,2.58,2.58,0,0,1,.74,1.93A2.49,2.49,0,0,1,725.85,572Zm-2.7-2.43a1.76,1.76,0,0,0-1.79,1.62h3.47a1.58,1.58,0,0,0-.42-1.12A1.65,1.65,0,0,0,723.15,569.54Z" transform="translate(-511.01 -427.37)"/><path d="M726.7,574.63l.39-1.05a3,3,0,0,0,1.5.61q1,0,1-.87,0-.62-1-1.07a8.19,8.19,0,0,1-1-.53,2.3,2.3,0,0,1-.46-.41,1.64,1.64,0,0,1-.29-.49,1.6,1.6,0,0,1-.1-.56,1.44,1.44,0,0,1,.56-1.21,2.34,2.34,0,0,1,1.47-.43,4.73,4.73,0,0,1,1.73.43l-.32,1a2.13,2.13,0,0,0-1.33-.53,1.16,1.16,0,0,0-.67.19.56.56,0,0,0-.27.47,1,1,0,0,0,.69.91l.8.36a2.8,2.8,0,0,1,1.07.76,1.69,1.69,0,0,1,.33,1.07,1.6,1.6,0,0,1-.59,1.32,2.54,2.54,0,0,1-1.64.48A3.73,3.73,0,0,1,726.7,574.63Z" transform="translate(-511.01 -427.37)"/><path d="M731.56,574.63l.39-1.05a3,3,0,0,0,1.5.61q1,0,1-.87,0-.62-1-1.07a8.19,8.19,0,0,1-1-.53,2.3,2.3,0,0,1-.46-.41,1.64,1.64,0,0,1-.29-.49,1.6,1.6,0,0,1-.1-.56,1.44,1.44,0,0,1,.56-1.21,2.34,2.34,0,0,1,1.47-.43,4.73,4.73,0,0,1,1.73.43l-.32,1a2.13,2.13,0,0,0-1.33-.53,1.16,1.16,0,0,0-.67.19.56.56,0,0,0-.27.47,1,1,0,0,0,.69.91l.8.36a2.8,2.8,0,0,1,1.07.76,1.69,1.69,0,0,1,.33,1.07,1.6,1.6,0,0,1-.59,1.32,2.54,2.54,0,0,1-1.64.48A3.73,3.73,0,0,1,731.56,574.63Z" transform="translate(-511.01 -427.37)"/><path d="M737.37,575v-5.34h-.86v-.94h2V575Zm.61-8.65a.67.67,0,0,1,.49.2.66.66,0,0,1,.2.48.69.69,0,0,1-.69.69.66.66,0,0,1-.48-.2.69.69,0,0,1,.48-1.17Z" transform="translate(-511.01 -427.37)"/><path d="M744.11,575v-3.65a2.42,2.42,0,0,0-.3-1.4,1.18,1.18,0,0,0-1-.4,1.66,1.66,0,0,0-.8.23,1.77,1.77,0,0,0-.64.56V575h-1.11v-6.28H741l.35.81a1.93,1.93,0,0,1,1.8-.93q2.06,0,2.06,2.51V575Z" transform="translate(-511.01 -427.37)"/><path d="M746.58,576.72l.6-.89a3.29,3.29,0,0,0,1.79.65,2.32,2.32,0,0,0,1.19-.26.75.75,0,0,0,.44-.65q0-.76-1.1-.76a4.36,4.36,0,0,0-.68.09,4.39,4.39,0,0,1-.77.09q-1.34,0-1.34-1a.72.72,0,0,1,.31-.56,2,2,0,0,1,.78-.36,2.37,2.37,0,0,1-.64-3.8,2.35,2.35,0,0,1,1.69-.66,2.41,2.41,0,0,1,1.45.38l.56-.67.73.69-.67.5a2.32,2.32,0,0,1,.43,1.45,2.27,2.27,0,0,1-.59,1.59,2.33,2.33,0,0,1-1.55.74l-.92.09a1.81,1.81,0,0,0-.44.13q-.28.11-.28.28t.57.24a5.22,5.22,0,0,0,.79-.09,5.23,5.23,0,0,1,.79-.09,2.16,2.16,0,0,1,1.44.44,1.53,1.53,0,0,1,.52,1.23,1.63,1.63,0,0,1-.78,1.4,3.4,3.4,0,0,1-2,.53,4.19,4.19,0,0,1-1.28-.22A3.64,3.64,0,0,1,746.58,576.72Zm2.36-7.21a1.21,1.21,0,0,0-.95.41,1.44,1.44,0,0,0-.37,1A1.65,1.65,0,0,0,748,572a1.18,1.18,0,0,0,1,.43,1.12,1.12,0,0,0,.93-.42,1.71,1.71,0,0,0,.33-1.1,1.46,1.46,0,0,0-.36-1A1.15,1.15,0,0,0,748.94,569.5Z" transform="translate(-511.01 -427.37)"/><path d="M757.7,575h-.94l3.11-8.62h.93Z" transform="translate(-511.01 -427.37)"/><path d="M516.75,596l-.59-1.81H513l-.63,1.81H511l3.49-8.7h.31l3.23,8.7Zm-2.14-6.45-1.33,3.78h2.55Z" transform="translate(-511.01 -427.37)"/><path d="M522.26,588.15a2,2,0,0,0-.63-.12,1.06,1.06,0,0,0-.84.39,1.45,1.45,0,0,0-.33,1,1.93,1.93,0,0,0,0,.33h1.28v.94h-1.28V596h-1.11v-5.34h-.91v-.94h.91a2.79,2.79,0,0,1,.59-1.89,2,2,0,0,1,1.56-.69,3.47,3.47,0,0,1,1,.18Z" transform="translate(-511.01 -427.37)"/><path d="M523.7,590.6H523v-.88h.73v-1.31l1.11-.43v1.74h1.72v.88h-1.72v3.12a1.83,1.83,0,0,0,.27,1.13,1,1,0,0,0,.86.33,2.06,2.06,0,0,0,.88-.22l.16,1a6.15,6.15,0,0,1-1.52.18,1.65,1.65,0,0,1-1.26-.55,2,2,0,0,1-.51-1.4Z" transform="translate(-511.01 -427.37)"/><path d="M533.35,593h-4.52a2.27,2.27,0,0,0,.6,1.69,1.89,1.89,0,0,0,1.37.52,2.34,2.34,0,0,0,1.59-.56l.47.8a2.1,2.1,0,0,1-.79.45,4.28,4.28,0,0,1-1.49.25,2.78,2.78,0,0,1-2-.8,3.15,3.15,0,0,1-.92-2.38,3.35,3.35,0,0,1,.94-2.49,2.74,2.74,0,0,1,2-.84,2.86,2.86,0,0,1,2.1.76,2.58,2.58,0,0,1,.74,1.93A2.49,2.49,0,0,1,533.35,593Zm-2.7-2.43a1.76,1.76,0,0,0-1.79,1.62h3.47a1.58,1.58,0,0,0-.42-1.12A1.65,1.65,0,0,0,530.65,590.54Z" transform="translate(-511.01 -427.37)"/><path d="M538,590.8a1.28,1.28,0,0,0-.73-.25,1.3,1.3,0,0,0-1,.54,2,2,0,0,0-.44,1.31V596H534.7v-6.28h1.11v1a2,2,0,0,1,1.81-1.12,5.06,5.06,0,0,1,.86.11Z" transform="translate(-511.01 -427.37)"/><path d="M544.15,588.47v2.38H547v1h-2.84v3.09H548V596H543v-8.58h5.13v1.05Z" transform="translate(-511.01 -427.37)"/><path d="M552.71,588.15a2,2,0,0,0-.63-.12,1.06,1.06,0,0,0-.84.39,1.45,1.45,0,0,0-.33,1,1.93,1.93,0,0,0,0,.33h1.28v.94h-1.28V596h-1.11v-5.34h-.91v-.94h.91a2.79,2.79,0,0,1,.59-1.89,2,2,0,0,1,1.56-.69,3.47,3.47,0,0,1,1,.18Z" transform="translate(-511.01 -427.37)"/><path d="M557.14,588.15a2,2,0,0,0-.63-.12,1.06,1.06,0,0,0-.84.39,1.45,1.45,0,0,0-.33,1,1.93,1.93,0,0,0,0,.33h1.28v.94h-1.28V596h-1.11v-5.34h-.91v-.94h.91a2.79,2.79,0,0,1,.59-1.89,2,2,0,0,1,1.56-.69,3.47,3.47,0,0,1,1,.18Z" transform="translate(-511.01 -427.37)"/><path d="M563.47,593h-4.52a2.27,2.27,0,0,0,.6,1.69,1.89,1.89,0,0,0,1.37.52,2.34,2.34,0,0,0,1.59-.56l.47.8a2.1,2.1,0,0,1-.79.45,4.28,4.28,0,0,1-1.49.25,2.78,2.78,0,0,1-2-.8,3.15,3.15,0,0,1-.92-2.38,3.35,3.35,0,0,1,.94-2.49,2.74,2.74,0,0,1,2-.84,2.86,2.86,0,0,1,2.1.76,2.58,2.58,0,0,1,.74,1.93A2.49,2.49,0,0,1,563.47,593Zm-2.7-2.43a1.76,1.76,0,0,0-1.79,1.62h3.47A1.58,1.58,0,0,0,562,591,1.65,1.65,0,0,0,560.77,590.54Z" transform="translate(-511.01 -427.37)"/><path d="M569.46,590.23l-.55.79a1.65,1.65,0,0,0-.6-.32,2.53,2.53,0,0,0-.85-.15,1.78,1.78,0,0,0-1.44.64,2.63,2.63,0,0,0-.53,1.74,2.36,2.36,0,0,0,.54,1.68,2,2,0,0,0,1.51.58,2.5,2.5,0,0,0,1.51-.58l.44.94a4,4,0,0,1-2.22.58,2.83,2.83,0,0,1-2.12-.86,3.2,3.2,0,0,1-.84-2.33,3.34,3.34,0,0,1,.87-2.41,3.32,3.32,0,0,1,3.44-.7A3,3,0,0,1,569.46,590.23Z" transform="translate(-511.01 -427.37)"/><path d="M571.07,590.6h-.73v-.88h.73v-1.31l1.11-.43v1.74h1.72v.88h-1.72v3.12a1.83,1.83,0,0,0,.27,1.13,1,1,0,0,0,.86.33,2.06,2.06,0,0,0,.88-.22l.16,1a6.15,6.15,0,0,1-1.52.18,1.65,1.65,0,0,1-1.26-.55,2,2,0,0,1-.51-1.4Z" transform="translate(-511.01 -427.37)"/><path d="M575,595.63l.39-1.05a3,3,0,0,0,1.5.61q1,0,1-.87,0-.62-1-1.07a8.19,8.19,0,0,1-1-.53,2.3,2.3,0,0,1-.46-.41,1.64,1.64,0,0,1-.29-.49,1.6,1.6,0,0,1-.1-.56,1.44,1.44,0,0,1,.56-1.21,2.34,2.34,0,0,1,1.47-.43,4.73,4.73,0,0,1,1.73.43l-.32,1a2.13,2.13,0,0,0-1.33-.53,1.16,1.16,0,0,0-.67.19.56.56,0,0,0-.27.47,1,1,0,0,0,.69.91l.8.36a2.8,2.8,0,0,1,1.07.76,1.69,1.69,0,0,1,.33,1.07,1.6,1.6,0,0,1-.59,1.32,2.54,2.54,0,0,1-1.64.48A3.73,3.73,0,0,1,575,595.63Z" transform="translate(-511.01 -427.37)"/><path d="M585.46,595.23a.86.86,0,0,1-.26.62.87.87,0,0,1-1.24,0,.86.86,0,0,1-.26-.62.88.88,0,0,1,1.76,0Zm2.94,0a.86.86,0,0,1-.26.62.87.87,0,0,1-1.24,0,.86.86,0,0,1-.26-.62.88.88,0,0,1,1.76,0Zm2.94,0a.86.86,0,0,1-.26.62.87.87,0,0,1-1.24,0,.86.86,0,0,1-.26-.62.88.88,0,0,1,1.76,0Z" transform="translate(-511.01 -427.37)"/></svg>