<svg id="レイヤー_14" data-name="レイヤー 14" xmlns="http://www.w3.org/2000/svg" viewBox="0 0 179.15 38.29"><title>gameTitle</title><path d="M605,393.81v14.47a11,11,0,0,1-2.62,2.41,16.09,16.09,0,0,1-3,1.55,15.78,15.78,0,0,1-3.3.86,22.9,22.9,0,0,1-3.38.25,15.38,15.38,0,0,1-6.17-1.22,13.83,13.83,0,0,1-4.93-3.61,17,17,0,0,1-3.3-6,29.57,29.57,0,0,1,0-16.63,17,17,0,0,1,3.3-6,14.06,14.06,0,0,1,5-3.63,15.16,15.16,0,0,1,6.14-1.24,15.72,15.72,0,0,1,5.69,1,13.83,13.83,0,0,1,4.72,3l-4.21,3.76a7.28,7.28,0,0,0-2.79-2.13,8.34,8.34,0,0,0-3.25-.66,9.2,9.2,0,0,0-3.58.71,7.68,7.68,0,0,0-3,2.41,12.5,12.5,0,0,0-2.11,4.39,25.79,25.79,0,0,0-.81,6.6,27.5,27.5,0,0,0,.79,6.6,13.58,13.58,0,0,0,2,4.57,8.61,8.61,0,0,0,2.95,2.64,7.39,7.39,0,0,0,3.48.86q.56,0,1.5-.08a17.73,17.73,0,0,0,1.88-.25,12.24,12.24,0,0,0,1.8-.48,2.57,2.57,0,0,0,1.27-.86V398h-6.35v-4.16Z" transform="translate(-577.1 -375.07)"/><path d="M623.79,413.11l13.1-37.37h6l13,37.38h-6.3l-2.69-7.77H632.88l-2.74,7.77Zm10.51-11.88h11.17l-5.54-16.15Z" transform="translate(-577.1 -375.07)"/><path d="M703.63,375.68h6.2v37.43h-6.2V387.36l-8.38,20.82h-5.38l-8.43-20.82v25.75h-6.2V375.68h6.2l11.12,25.59Z" transform="translate(-577.1 -375.07)"/><path d="M739,380.3v11.78h15.64v4.16H739v12.24h17.21v4.62H732.84V375.68h23.41v4.62Z" transform="translate(-577.1 -375.07)"/></svg>