<svg id="レイヤー_14" data-name="レイヤー 14" xmlns="http://www.w3.org/2000/svg" viewBox="0 0 270.51 38.29"><title>graphicTitle</title><path d="M531.54,382.81v14.47a11,11,0,0,1-2.62,2.41,16.09,16.09,0,0,1-3,1.55,15.78,15.78,0,0,1-3.3.86,22.9,22.9,0,0,1-3.38.25,15.38,15.38,0,0,1-6.17-1.22,13.83,13.83,0,0,1-4.93-3.61,17,17,0,0,1-3.3-6,29.57,29.57,0,0,1,0-16.63,17,17,0,0,1,3.3-6,14.06,14.06,0,0,1,5-3.63,15.16,15.16,0,0,1,6.14-1.24,15.72,15.72,0,0,1,5.69,1,13.83,13.83,0,0,1,4.72,3l-4.21,3.76a7.28,7.28,0,0,0-2.79-2.13,8.34,8.34,0,0,0-3.25-.66,9.2,9.2,0,0,0-3.58.71,7.68,7.68,0,0,0-3,2.41,12.5,12.5,0,0,0-2.11,4.39,25.79,25.79,0,0,0-.81,6.6,27.5,27.5,0,0,0,.79,6.6,13.58,13.58,0,0,0,2,4.57,8.61,8.61,0,0,0,2.95,2.64,7.39,7.39,0,0,0,3.48.86q.56,0,1.5-.08a17.73,17.73,0,0,0,1.88-.25,12.24,12.24,0,0,0,1.8-.48,2.57,2.57,0,0,0,1.27-.86V387h-6.35v-4.16Z" transform="translate(-503.61 -364.07)"/><path d="M570.6,402.11l-7.06-13.56-.41,0c-.17,0-.43,0-.79,0h-4.6v13.51h-6.09V364.68h10.77a15.15,15.15,0,0,1,4.72.76,12.78,12.78,0,0,1,4.19,2.29,12,12,0,0,1,3,3.68,10.21,10.21,0,0,1,1.14,4.85,12.25,12.25,0,0,1-1.88,6.91,11.26,11.26,0,0,1-5.08,4.21l8.53,14.73Zm-12.85-18h5.54a6.89,6.89,0,0,0,2.23-.38,5.54,5.54,0,0,0,2-1.24,6.1,6.1,0,0,0,1.47-2.41,11.4,11.4,0,0,0,.56-3.83,10.3,10.3,0,0,0-.25-2.11,6.06,6.06,0,0,0-1-2.29,6.15,6.15,0,0,0-2.21-1.83,8.21,8.21,0,0,0-3.76-.74h-4.57Z" transform="translate(-503.61 -364.07)"/><path d="M589,402.11l13.1-37.37h6l13,37.38h-6.3l-2.69-7.77H598.1l-2.74,7.77Zm10.51-11.88h11.17l-5.54-16.15Z" transform="translate(-503.61 -364.07)"/><path d="M642.35,402.11h-6.09V364.68H647a15.16,15.16,0,0,1,4.72.76,12.78,12.78,0,0,1,4.19,2.29,12,12,0,0,1,3,3.68,10.21,10.21,0,0,1,1.14,4.85,13.26,13.26,0,0,1-1,5.15,10.82,10.82,0,0,1-2.69,3.88,12.08,12.08,0,0,1-4.16,2.44,16,16,0,0,1-5.38.86h-4.52Zm0-32.8v14.83h5.59a6.67,6.67,0,0,0,2.21-.38,5.59,5.59,0,0,0,2-1.24,6.1,6.1,0,0,0,1.47-2.41,11.43,11.43,0,0,0,.56-3.83,10.37,10.37,0,0,0-.25-2.11,6.08,6.08,0,0,0-1-2.29,6.15,6.15,0,0,0-2.21-1.83,8.21,8.21,0,0,0-3.76-.74Z" transform="translate(-503.61 -364.07)"/><path d="M703.94,364.68v37.43h-6.09V385.25h-16.2v16.86h-6.2V364.68h6.2v16.4h16.2v-16.4Z" transform="translate(-503.61 -364.07)"/><path d="M730.08,402.11h-6.2V364.68h6.2Z" transform="translate(-503.61 -364.07)"/><path d="M774.12,398.3a13.81,13.81,0,0,1-4.72,3,15.7,15.7,0,0,1-5.69,1,15.38,15.38,0,0,1-6.17-1.22,13.83,13.83,0,0,1-4.93-3.61,17,17,0,0,1-3.3-6,29.57,29.57,0,0,1,0-16.63,17,17,0,0,1,3.3-6,14.06,14.06,0,0,1,5-3.63,15.16,15.16,0,0,1,6.14-1.24,15.72,15.72,0,0,1,5.69,1,13.83,13.83,0,0,1,4.72,3l-4.21,3.76a7.75,7.75,0,0,0-2.82-2.13,8.16,8.16,0,0,0-3.22-.66,9.2,9.2,0,0,0-3.58.71,7.68,7.68,0,0,0-3,2.41,12.5,12.5,0,0,0-2.11,4.39,25.79,25.79,0,0,0-.81,6.6,26.2,26.2,0,0,0,.79,6.5,12.73,12.73,0,0,0,2,4.39,8.1,8.1,0,0,0,2.95,2.49,8,8,0,0,0,3.48.79,8.89,8.89,0,0,0,3.43-.66,8,8,0,0,0,2.92-2.13Z" transform="translate(-503.61 -364.07)"/></svg>