<svg id="レイヤー_14" data-name="レイヤー 14" xmlns="http://www.w3.org/2000/svg" viewBox="0 0 343.57 38.14"><title>webAppTitle</title><path d="M542.9,375.07,532.79,412.7h-7.92l-6.14-28.23-6.55,28.23h-8l-9.5-37.63h6.91l6.6,32.3,7.11-32.3h6.91l6.6,32.3,7.16-32.3Z" transform="translate(-494.71 -374.72)"/><path d="M563.76,379.7v11.78H579.4v4.16H563.76v12.24H581v4.62H557.57V375.07H581v4.62Z" transform="translate(-494.71 -374.72)"/><path d="M624.86,392.8a8.66,8.66,0,0,1,2.49.76,8.81,8.81,0,0,1,2.46,1.73,9.42,9.42,0,0,1,1.9,2.72,8.47,8.47,0,0,1,.76,3.68,11.32,11.32,0,0,1-.76,4.37,9.71,9.71,0,0,1-1.9,3,9.28,9.28,0,0,1-2.49,1.88,14.5,14.5,0,0,1-2.59,1,11.45,11.45,0,0,1-2.21.43q-1,.08-1.27.08H607.19V375.07H618a19,19,0,0,1,4.62.56,11.75,11.75,0,0,1,4,1.78,8.77,8.77,0,0,1,2.74,3.17,10,10,0,0,1,1,4.65,7.81,7.81,0,0,1-.51,2.87,8.81,8.81,0,0,1-1.27,2.26,7.11,7.11,0,0,1-1.75,1.6A5.94,5.94,0,0,1,624.86,392.8Zm-7.06-1.73q1.12,0,2.29-.05a5.33,5.33,0,0,0,2.18-.56,3.81,3.81,0,0,0,1.65-1.73,7.76,7.76,0,0,0,.63-3.5,7.68,7.68,0,0,0-.25-1.9,4.11,4.11,0,0,0-1-1.8,5.46,5.46,0,0,0-2.18-1.32,11.45,11.45,0,0,0-3.76-.51h-4.06v11.38h4.52Zm3.1,17a5.33,5.33,0,0,0,4.21-1.73,6.73,6.73,0,0,0,1.52-4.62,7,7,0,0,0-1.57-4.62,5.69,5.69,0,0,0-4.62-1.88h-7.16V408Z" transform="translate(-494.71 -374.72)"/><path d="M677.12,412.5l-3.5-4.37a11.33,11.33,0,0,1-4.27,3.45,14.28,14.28,0,0,1-6.25,1.27,10.62,10.62,0,0,1-3.22-.51,8.42,8.42,0,0,1-2.92-1.62,8.2,8.2,0,0,1-2.13-2.87,9.75,9.75,0,0,1-.81-4.14,11.22,11.22,0,0,1,.61-3.76,12.15,12.15,0,0,1,1.63-3.12,15.66,15.66,0,0,1,2.31-2.54,19.08,19.08,0,0,1,2.62-2q-.61-.61-1.42-1.5a15.91,15.91,0,0,1-1.55-2A11,11,0,0,1,657,386.3a9.24,9.24,0,0,1-.48-3,8.57,8.57,0,0,1,.66-3.35,7.77,7.77,0,0,1,1.93-2.74,9.39,9.39,0,0,1,2.95-1.83,10,10,0,0,1,3.71-.66,11.57,11.57,0,0,1,3.48.53,8.58,8.58,0,0,1,3,1.63,7.71,7.71,0,0,1,2.06,2.79,9.68,9.68,0,0,1,.76,4,11.71,11.71,0,0,1-.71,3.58,11,11,0,0,1-1.6,2.87,12.86,12.86,0,0,1-2.18,2.21,15.21,15.21,0,0,1-2.36,1.55,28.13,28.13,0,0,0,2.49,3q1.52,1.63,2.89,3.2.56-.86,1.07-1.8t1.12-2.26l4,1.63a24,24,0,0,1-1.37,3.2q-.81,1.57-1.73,3.15l6.86,8.53Zm-13.51-4.06a7.89,7.89,0,0,0,2.69-.41,8.39,8.39,0,0,0,2-1,8.58,8.58,0,0,0,1.47-1.29q.61-.69,1.07-1.29-1.68-2.08-3.61-4.24a49.72,49.72,0,0,1-3.25-4,11.47,11.47,0,0,0-3.83,3.68,7.52,7.52,0,0,0-1.19,3.83,5.22,5.22,0,0,0,.23,1.37,4.61,4.61,0,0,0,.79,1.55,5.15,5.15,0,0,0,1.42,1.27A4.2,4.2,0,0,0,663.61,408.44Zm2.13-28.79a5,5,0,0,0-1.55.25,4.45,4.45,0,0,0-1.42.76,3.79,3.79,0,0,0-1,1.17,3.05,3.05,0,0,0-.36,1.47,6,6,0,0,0,.46,2.39,10.51,10.51,0,0,0,1.07,1.93,13.12,13.12,0,0,0,1.27,1.55q.66.69,1.07,1.14a8.11,8.11,0,0,0,3.76-2.87,6.5,6.5,0,0,0,1.27-3.68,3.68,3.68,0,0,0-1.32-3.07A5.09,5.09,0,0,0,665.74,379.64Z" transform="translate(-494.71 -374.72)"/><path d="M703.22,412.5l13.1-37.37h6l13,37.38h-6.3l-2.69-7.77H712.31l-2.74,7.77Zm10.51-11.88H724.9l-5.54-16.15Z" transform="translate(-494.71 -374.72)"/><path d="M767,412.5h-6.09V375.07h10.77a15.14,15.14,0,0,1,4.72.76,12.78,12.78,0,0,1,4.19,2.29,12,12,0,0,1,3,3.68,10.21,10.21,0,0,1,1.14,4.85,13.26,13.26,0,0,1-1,5.15,10.8,10.8,0,0,1-2.69,3.88,12.06,12.06,0,0,1-4.16,2.44,16,16,0,0,1-5.38.86H767Zm0-32.8v14.83h5.59a6.67,6.67,0,0,0,2.21-.38,5.58,5.58,0,0,0,2-1.24,6.1,6.1,0,0,0,1.47-2.41,11.38,11.38,0,0,0,.56-3.83,10.23,10.23,0,0,0-.25-2.11,6,6,0,0,0-1-2.29,6.15,6.15,0,0,0-2.21-1.83,8.2,8.2,0,0,0-3.76-.74Z" transform="translate(-494.71 -374.72)"/><path d="M820.56,412.5h-6.09V375.07h10.77a15.16,15.16,0,0,1,4.72.76,12.78,12.78,0,0,1,4.19,2.29,12,12,0,0,1,3,3.68,10.21,10.21,0,0,1,1.14,4.85,13.26,13.26,0,0,1-1,5.15,10.82,10.82,0,0,1-2.69,3.88,12.08,12.08,0,0,1-4.16,2.44,16,16,0,0,1-5.38.86h-4.52Zm0-32.8v14.83h5.59a6.67,6.67,0,0,0,2.21-.38,5.59,5.59,0,0,0,2-1.24,6.1,6.1,0,0,0,1.47-2.41,11.43,11.43,0,0,0,.56-3.83,10.37,10.37,0,0,0-.25-2.11,6.08,6.08,0,0,0-1-2.29,6.15,6.15,0,0,0-2.21-1.83,8.21,8.21,0,0,0-3.76-.74Z" transform="translate(-494.71 -374.72)"/></svg>