<svg id="レイヤー_13" data-name="レイヤー 13" xmlns="http://www.w3.org/2000/svg" viewBox="0 0 169.87 39.03"><title>gameLogo</title><path d="M585.38,514.67v14.75a11.15,11.15,0,0,1-2.67,2.46,16.36,16.36,0,0,1-3.11,1.58,16.06,16.06,0,0,1-3.36.88,23.38,23.38,0,0,1-3.44.26,15.68,15.68,0,0,1-6.29-1.24,14.1,14.1,0,0,1-5-3.67,17.3,17.3,0,0,1-3.36-6.11,30.14,30.14,0,0,1,0-17,17.35,17.35,0,0,1,3.36-6.08,14.34,14.34,0,0,1,5-3.7,15.44,15.44,0,0,1,6.26-1.27,16,16,0,0,1,5.8,1,14.08,14.08,0,0,1,4.81,3.11l-4.3,3.83a7.42,7.42,0,0,0-2.85-2.17,8.49,8.49,0,0,0-3.31-.67,9.38,9.38,0,0,0-3.65.72,7.83,7.83,0,0,0-3.11,2.46,12.74,12.74,0,0,0-2.15,4.48,26.3,26.3,0,0,0-.83,6.73,28.06,28.06,0,0,0,.8,6.73,13.84,13.84,0,0,0,2.07,4.66,8.78,8.78,0,0,0,3,2.69,7.54,7.54,0,0,0,3.55.88q.57,0,1.53-.08a18.15,18.15,0,0,0,1.92-.26,12.42,12.42,0,0,0,1.84-.49,2.62,2.62,0,0,0,1.29-.88v-9.42h-6.47v-4.24Z" transform="translate(-556.91 -495.57)"/><path d="M600.25,534.33l13.35-38.09h6.16L633,534.33H626.6l-2.74-7.92H609.52l-2.79,7.92ZM611,522.22h11.39l-5.64-16.46Z" transform="translate(-556.91 -495.57)"/><path d="M677.39,496.19h6.31v38.15h-6.31V508.09l-8.54,21.22h-5.49l-8.59-21.22v26.24h-6.31V496.19h6.31l11.33,26.09Z" transform="translate(-556.91 -495.57)"/><path d="M709.24,500.9v12h15.94v4.24H709.24v12.47h17.55v4.71H702.92V496.19h23.86v4.71Z" transform="translate(-556.91 -495.57)"/></svg>