<svg id="レイヤー_14" data-name="レイヤー 14" xmlns="http://www.w3.org/2000/svg" viewBox="0 0 210.24 38.29"><title>otherTitle</title><path d="M565.09,383.11a26.52,26.52,0,0,1-1.19,8.33,17,17,0,0,1-3.3,6,13.84,13.84,0,0,1-4.93,3.61,16.23,16.23,0,0,1-12.34,0,13.83,13.83,0,0,1-4.93-3.61,17,17,0,0,1-3.3-6,29.57,29.57,0,0,1,0-16.63,17,17,0,0,1,3.3-6,14.13,14.13,0,0,1,4.93-3.63,15.92,15.92,0,0,1,12.34,0,14.14,14.14,0,0,1,4.93,3.63,17,17,0,0,1,3.3,6A26.28,26.28,0,0,1,565.09,383.11Zm-15.74,14.17a8.92,8.92,0,0,0,3.58-.74,8,8,0,0,0,3-2.41,12.22,12.22,0,0,0,2.11-4.39,27.23,27.23,0,0,0,0-13.1,13.06,13.06,0,0,0-2-4.39,7.81,7.81,0,0,0-2.95-2.49,8.21,8.21,0,0,0-3.48-.76,9.2,9.2,0,0,0-3.58.71,7.68,7.68,0,0,0-3,2.41,12.5,12.5,0,0,0-2.11,4.39,25.79,25.79,0,0,0-.81,6.6,26.2,26.2,0,0,0,.79,6.5,12.73,12.73,0,0,0,2,4.39,8.1,8.1,0,0,0,2.95,2.49A8,8,0,0,0,549.35,397.28Z" transform="translate(-533.91 -363.96)"/><path d="M609.44,364.57v4.16H598.27V402h-6.14V368.74H581v-4.16Z" transform="translate(-533.91 -363.96)"/><path d="M655.69,364.57V402H649.6V385.14H633.4V402h-6.2V364.57h6.2V381h16.2v-16.4Z" transform="translate(-533.91 -363.96)"/><path d="M681.88,369.2V381h15.64v4.16H681.88v12.24H699.1V402H675.69V364.57H699.1v4.62Z" transform="translate(-533.91 -363.96)"/><path d="M737.71,402l-7.06-13.56-.41,0c-.17,0-.43,0-.79,0h-4.6V402h-6.09V364.57h10.77a15.15,15.15,0,0,1,4.72.76,12.78,12.78,0,0,1,4.19,2.29,12,12,0,0,1,3,3.68,10.21,10.21,0,0,1,1.14,4.85,12.25,12.25,0,0,1-1.88,6.91,11.26,11.26,0,0,1-5.08,4.21L744.15,402Zm-12.85-18h5.54a6.89,6.89,0,0,0,2.23-.38,5.54,5.54,0,0,0,2-1.24,6.1,6.1,0,0,0,1.47-2.41,11.4,11.4,0,0,0,.56-3.83,10.3,10.3,0,0,0-.25-2.11,6.06,6.06,0,0,0-1-2.29,6.15,6.15,0,0,0-2.21-1.83,8.21,8.21,0,0,0-3.76-.74h-4.57Z" transform="translate(-533.91 -363.96)"/></svg>