<svg id="レイヤー_20" data-name="レイヤー 20" xmlns="http://www.w3.org/2000/svg" viewBox="0 0 87.78 18.76"><defs><style>.cls-1{fill:#fff;}</style></defs><title>w-game</title><path class="cls-1" d="M620.34,386.15v7.09a5.36,5.36,0,0,1-1.28,1.18,7.88,7.88,0,0,1-1.49.76,7.73,7.73,0,0,1-1.62.42,11.22,11.22,0,0,1-1.65.12,7.54,7.54,0,0,1-3-.6,6.78,6.78,0,0,1-2.41-1.77,8.31,8.31,0,0,1-1.62-2.94,14.49,14.49,0,0,1,0-8.15,8.33,8.33,0,0,1,1.62-2.92,6.89,6.89,0,0,1,2.43-1.78,7.43,7.43,0,0,1,3-.61,7.7,7.7,0,0,1,2.79.5,6.78,6.78,0,0,1,2.31,1.49l-2.07,1.84a3.57,3.57,0,0,0-1.37-1,4.09,4.09,0,0,0-1.59-.32,4.51,4.51,0,0,0-1.75.35,3.77,3.77,0,0,0-1.49,1.18,6.12,6.12,0,0,0-1,2.15,12.64,12.64,0,0,0-.4,3.23,13.48,13.48,0,0,0,.39,3.23,6.66,6.66,0,0,0,1,2.24,4.22,4.22,0,0,0,1.44,1.29,3.62,3.62,0,0,0,1.7.42l.73,0a8.69,8.69,0,0,0,.92-.12,6,6,0,0,0,.88-.24,1.26,1.26,0,0,0,.62-.42v-4.53h-3.11v-2Z" transform="translate(-606.65 -376.96)"/><path class="cls-1" d="M629.52,395.6l6.42-18.31h3l6.37,18.31h-3.09l-1.32-3.81H634l-1.34,3.81Zm5.15-5.82h5.47l-2.71-7.91Z" transform="translate(-606.65 -376.96)"/><path class="cls-1" d="M668.65,377.26h3V395.6h-3V383l-4.11,10.2H661.9L657.77,383V395.6h-3V377.26h3l5.45,12.54Z" transform="translate(-606.65 -376.96)"/><path class="cls-1" d="M686,379.53v5.77h7.66v2H686v6h8.44v2.26H683V377.26h11.47v2.26Z" transform="translate(-606.65 -376.96)"/></svg>