<svg id="レイヤー_20" data-name="レイヤー 20" xmlns="http://www.w3.org/2000/svg" viewBox="0 0 132.55 18.76"><defs><style>.cls-1{fill:#fff;}</style></defs><title>w-graphic</title><path class="cls-1" d="M598.55,385.4v7.09a5.36,5.36,0,0,1-1.28,1.18,7.88,7.88,0,0,1-1.49.76,7.73,7.73,0,0,1-1.62.42,11.22,11.22,0,0,1-1.65.12,7.54,7.54,0,0,1-3-.6,6.78,6.78,0,0,1-2.41-1.77,8.31,8.31,0,0,1-1.62-2.94,14.49,14.49,0,0,1,0-8.15,8.33,8.33,0,0,1,1.62-2.92,6.89,6.89,0,0,1,2.43-1.78,7.43,7.43,0,0,1,3-.61,7.7,7.7,0,0,1,2.79.5,6.78,6.78,0,0,1,2.31,1.49l-2.07,1.84a3.57,3.57,0,0,0-1.37-1,4.09,4.09,0,0,0-1.59-.32,4.51,4.51,0,0,0-1.75.35,3.77,3.77,0,0,0-1.49,1.18,6.12,6.12,0,0,0-1,2.15,12.64,12.64,0,0,0-.4,3.23,13.48,13.48,0,0,0,.39,3.23,6.66,6.66,0,0,0,1,2.24,4.22,4.22,0,0,0,1.44,1.29,3.62,3.62,0,0,0,1.7.42l.73,0a8.69,8.69,0,0,0,.92-.12,6,6,0,0,0,.88-.24,1.26,1.26,0,0,0,.62-.42v-4.53h-3.11v-2Z" transform="translate(-584.87 -376.22)"/><path class="cls-1" d="M617.7,394.86l-3.46-6.64H611.4v6.62h-3V376.52h5.28a7.42,7.42,0,0,1,2.31.37,6.26,6.26,0,0,1,2.05,1.12,5.86,5.86,0,0,1,1.47,1.8,5,5,0,0,1,.56,2.38,6,6,0,0,1-.92,3.38,5.52,5.52,0,0,1-2.49,2.07l4.18,7.22Zm-6.3-8.81h2.71a3.38,3.38,0,0,0,1.09-.19,2.72,2.72,0,0,0,1-.61,3,3,0,0,0,.72-1.18,5.59,5.59,0,0,0,.27-1.88,5,5,0,0,0-.12-1,3,3,0,0,0-.51-1.12,3,3,0,0,0-1.08-.9,4,4,0,0,0-1.84-.36H611.4Z" transform="translate(-584.87 -376.22)"/><path class="cls-1" d="M626.71,394.86l6.42-18.31h3l6.37,18.31h-3.09l-1.32-3.81h-6.89l-1.34,3.81Zm5.15-5.82h5.47l-2.71-7.91Z" transform="translate(-584.87 -376.22)"/><path class="cls-1" d="M652.85,394.86h-3V376.52h5.28a7.43,7.43,0,0,1,2.31.37,6.26,6.26,0,0,1,2.05,1.12,5.87,5.87,0,0,1,1.47,1.8,5,5,0,0,1,.56,2.38,6.5,6.5,0,0,1-.47,2.53,5.3,5.3,0,0,1-1.32,1.9,5.92,5.92,0,0,1-2,1.19,7.85,7.85,0,0,1-2.64.42h-2.21Zm0-16.07v7.27h2.74a3.27,3.27,0,0,0,1.08-.19,2.74,2.74,0,0,0,1-.61,3,3,0,0,0,.72-1.18,5.6,5.6,0,0,0,.27-1.88,5.08,5.08,0,0,0-.12-1A3,3,0,0,0,658,380a3,3,0,0,0-1.08-.9,4,4,0,0,0-1.84-.36Z" transform="translate(-584.87 -376.22)"/><path class="cls-1" d="M683,376.52v18.34h-3V386.6H672.1v8.26h-3V376.52h3v8H680v-8Z" transform="translate(-584.87 -376.22)"/><path class="cls-1" d="M695.84,394.86h-3V376.52h3Z" transform="translate(-584.87 -376.22)"/><path class="cls-1" d="M717.42,393a6.76,6.76,0,0,1-2.31,1.49,7.69,7.69,0,0,1-2.79.5,7.54,7.54,0,0,1-3-.6,6.78,6.78,0,0,1-2.41-1.77,8.31,8.31,0,0,1-1.62-2.94,14.49,14.49,0,0,1,0-8.15,8.33,8.33,0,0,1,1.62-2.92,6.89,6.89,0,0,1,2.43-1.78,7.43,7.43,0,0,1,3-.61,7.7,7.7,0,0,1,2.79.5,6.78,6.78,0,0,1,2.31,1.49l-2.07,1.84a3.8,3.8,0,0,0-1.38-1,4,4,0,0,0-1.58-.32,4.51,4.51,0,0,0-1.75.35,3.77,3.77,0,0,0-1.49,1.18,6.12,6.12,0,0,0-1,2.15,12.64,12.64,0,0,0-.4,3.23,12.84,12.84,0,0,0,.39,3.18,6.24,6.24,0,0,0,1,2.15,4,4,0,0,0,1.44,1.22,3.91,3.91,0,0,0,1.7.39,4.36,4.36,0,0,0,1.68-.32,3.94,3.94,0,0,0,1.43-1Z" transform="translate(-584.87 -376.22)"/></svg>