<svg id="レイヤー_20" data-name="レイヤー 20" xmlns="http://www.w3.org/2000/svg" viewBox="0 0 195.68 18.76"><defs><style>.cls-1{fill:#fff;}</style></defs><title>w-topPuzzle</title><path class="cls-1" d="M567.47,377.25v2H562v16.3h-3v-16.3h-5.47v-2Z" transform="translate(-553.51 -376.95)"/><path class="cls-1" d="M590.52,386.33a13,13,0,0,1-.58,4.08,8.34,8.34,0,0,1-1.62,2.94,6.79,6.79,0,0,1-2.41,1.77,8,8,0,0,1-6,0,6.78,6.78,0,0,1-2.41-1.77,8.31,8.31,0,0,1-1.62-2.94,14.49,14.49,0,0,1,0-8.15,8.33,8.33,0,0,1,1.62-2.92,6.92,6.92,0,0,1,2.41-1.78,7.8,7.8,0,0,1,6,0,6.93,6.93,0,0,1,2.41,1.78,8.36,8.36,0,0,1,1.62,2.92A12.88,12.88,0,0,1,590.52,386.33Zm-7.71,6.94a4.37,4.37,0,0,0,1.75-.36,3.92,3.92,0,0,0,1.49-1.18,6,6,0,0,0,1-2.15,13.34,13.34,0,0,0,0-6.42,6.41,6.41,0,0,0-1-2.15,3.83,3.83,0,0,0-1.44-1.22,4,4,0,0,0-1.7-.37,4.5,4.5,0,0,0-1.75.35,3.77,3.77,0,0,0-1.49,1.18,6.12,6.12,0,0,0-1,2.15,12.64,12.64,0,0,0-.4,3.23,12.81,12.81,0,0,0,.39,3.19,6.24,6.24,0,0,0,1,2.15,4,4,0,0,0,1.44,1.22A3.91,3.91,0,0,0,582.81,393.27Z" transform="translate(-553.51 -376.95)"/><path class="cls-1" d="M602.28,395.58h-3V377.25h5.28a7.42,7.42,0,0,1,2.31.37,6.26,6.26,0,0,1,2.05,1.12,5.86,5.86,0,0,1,1.47,1.8,5,5,0,0,1,.56,2.38,6.5,6.5,0,0,1-.47,2.53,5.3,5.3,0,0,1-1.32,1.9,5.92,5.92,0,0,1-2,1.19,7.85,7.85,0,0,1-2.64.42h-2.21Zm0-16.07v7.27H605a3.27,3.27,0,0,0,1.08-.19,2.74,2.74,0,0,0,1-.61,3,3,0,0,0,.72-1.18,5.59,5.59,0,0,0,.27-1.88,5,5,0,0,0-.12-1,3,3,0,0,0-.51-1.12,3,3,0,0,0-1.08-.9,4,4,0,0,0-1.84-.36Z" transform="translate(-553.51 -376.95)"/><path class="cls-1" d="M626.21,387.05v2.51H618.3v-2.51Z" transform="translate(-553.51 -376.95)"/><path class="cls-1" d="M637.65,395.58h-3V377.25h5.28a7.42,7.42,0,0,1,2.31.37,6.26,6.26,0,0,1,2.05,1.12,5.86,5.86,0,0,1,1.47,1.8,5,5,0,0,1,.56,2.38,6.5,6.5,0,0,1-.47,2.53,5.3,5.3,0,0,1-1.32,1.9,5.92,5.92,0,0,1-2,1.19,7.85,7.85,0,0,1-2.64.42h-2.21Zm0-16.07v7.27h2.74a3.27,3.27,0,0,0,1.08-.19,2.74,2.74,0,0,0,1-.61,3,3,0,0,0,.72-1.18,5.59,5.59,0,0,0,.27-1.88,5,5,0,0,0-.12-1,3,3,0,0,0-.51-1.12,3,3,0,0,0-1.08-.9,4,4,0,0,0-1.84-.36Z" transform="translate(-553.51 -376.95)"/><path class="cls-1" d="M668.34,377.25v9.08a14.76,14.76,0,0,1-.51,4.08,8.52,8.52,0,0,1-1.43,2.94,5.93,5.93,0,0,1-2.24,1.77,7.55,7.55,0,0,1-5.88,0,6.06,6.06,0,0,1-2.24-1.77,8.37,8.37,0,0,1-1.44-2.94,14.75,14.75,0,0,1-.51-4.08v-9.08h3V386a17.4,17.4,0,0,0,.29,3.43,6.77,6.77,0,0,0,.81,2.23,3.2,3.2,0,0,0,1.27,1.21,3.68,3.68,0,0,0,1.67.37,4.12,4.12,0,0,0,1.72-.35,3.15,3.15,0,0,0,1.32-1.17,6.44,6.44,0,0,0,.85-2.21,17.16,17.16,0,0,0,.3-3.51v-8.78Z" transform="translate(-553.51 -376.95)"/><path class="cls-1" d="M689.1,377.25v2.41l-8.73,13.11-.5.4h9.23v2.41H676.91v-2.41l8.73-13.11.52-.4h-9.26v-2.41Z" transform="translate(-553.51 -376.95)"/><path class="cls-1" d="M709.74,377.25v2.41L701,392.77l-.5.4h9.23v2.41H697.54v-2.41l8.73-13.11.52-.4h-9.26v-2.41Z" transform="translate(-553.51 -376.95)"/><path class="cls-1" d="M721.59,377.25v16.07H730v2.26H718.55V377.25Z" transform="translate(-553.51 -376.95)"/><path class="cls-1" d="M740.76,379.51v5.77h7.66v2h-7.66v6h8.44v2.26H737.72V377.25h11.47v2.26Z" transform="translate(-553.51 -376.95)"/></svg>