<svg id="レイヤー_20" data-name="レイヤー 20" xmlns="http://www.w3.org/2000/svg" viewBox="0 0 14.93 10.78"><defs><style>.cls-1{fill:#fff;}</style></defs><title>w-youtube</title><path class="cls-1" d="M658.13,382.58c-.13-1.09-.39-1.41-.57-1.55a3.05,3.05,0,0,0-1.55-.36c-1.15-.08-3.1-.12-5.21-.12s-4.05,0-5.2.12A3.05,3.05,0,0,0,644,381c-.18.14-.44.46-.57,1.55a40.86,40.86,0,0,0,0,6.71c.13,1.09.39,1.41.57,1.55a3,3,0,0,0,1.55.36c1.15.08,3.1.12,5.2.12s4.05,0,5.21-.12a3,3,0,0,0,1.55-.36c.18-.14.45-.46.57-1.55A40.66,40.66,0,0,0,658.13,382.58Zm-9.13,5.7v-4.69l4.5,2.35Z" transform="translate(-643.34 -380.54)"/></svg>