<svg id="レイヤー_20" data-name="レイヤー 20" xmlns="http://www.w3.org/2000/svg" viewBox="0 0 8.99 219.22"><defs><style>.cls-1{fill:#fff;}</style></defs><title>w-leftBar</title><path class="cls-1" d="M655.75,490.4l-5.43,4.17h5.32V496H647v-.73l5.18-4.05H647v-1.46h8.7Z" transform="translate(-646.78 -276.8)"/><path class="cls-1" d="M655.63,480.61l-1.74.63v2.94l1.74.6v1.69l-8.7-3.42v-.67l8.7-3.45Zm-6.08,2.1,3.17,1v-2.06Z" transform="translate(-646.78 -276.8)"/><path class="cls-1" d="M655.75,470l-5.43,4.17h5.32v1.46H647v-.73l5.18-4.05H647v-1.46h8.7Z" transform="translate(-646.78 -276.8)"/><path class="cls-1" d="M655.63,460.2l-1.74.63v2.94l1.74.6v1.69l-8.7-3.42V462l8.7-3.45Zm-6.08,2.1,3.17,1v-2.06Z" transform="translate(-646.78 -276.8)"/><path class="cls-1" d="M655.63,447.2v1.48l-4.63.89,4.74,1.73v.54L651,453.57l4.63.93V456L647,454.24v-.81l5.78-1.86L647,449.76V449Z" transform="translate(-646.78 -276.8)"/><path class="cls-1" d="M655.63,443.84H647v-1.52h8.58Z" transform="translate(-646.78 -276.8)"/><path class="cls-1" d="M648.4,431h7.23v1.52H648.4v2.73H647v-7.11h1.35Z" transform="translate(-646.78 -276.8)"/><path class="cls-1" d="M651.26,425.18a4.84,4.84,0,0,1-3.1-1,3.25,3.25,0,0,1-1.27-2.69,3.51,3.51,0,0,1,1.15-2.83,4.82,4.82,0,0,1,3.22-1,5,5,0,0,1,3.29,1,3.58,3.58,0,0,1,1.22,2.9,3.14,3.14,0,0,1-1.21,2.65A5.32,5.32,0,0,1,651.26,425.18Zm0-1.58a4.45,4.45,0,0,0,2.33-.51,1.64,1.64,0,0,0,.83-1.48,2,2,0,0,0-.81-1.74,3.9,3.9,0,0,0-2.35-.6q-3,0-3,2.23a1.77,1.77,0,0,0,.82,1.56A3.92,3.92,0,0,0,651.26,423.6Z" transform="translate(-646.78 -276.8)"/><path class="cls-1" d="M655.63,406.17v1.48l-4.63.89,4.74,1.73v.54L651,412.54l4.63.93v1.47L647,413.21v-.81l5.78-1.86L647,408.72v-.8Z" transform="translate(-646.78 -276.8)"/><path class="cls-1" d="M655.63,402.8H647v-1.52h8.58Z" transform="translate(-646.78 -276.8)"/><path class="cls-1" d="M648.4,393.6h7.23v1.52H648.4v2.73H647v-7.11h1.35Z" transform="translate(-646.78 -276.8)"/><path class="cls-1" d="M655.63,382.34l-1.74.63v2.94l1.74.6v1.69l-8.7-3.42v-.67l8.7-3.45Zm-6.08,2.1,3.17,1v-2.06Z" transform="translate(-646.78 -276.8)"/><path class="cls-1" d="M650.55,379.09l-.65.49a3.07,3.07,0,0,0-.62-.67.68.68,0,0,0-.94.16.86.86,0,0,1-.62.29.83.83,0,0,1-.95-.94.92.92,0,0,1,.3-.74,1.22,1.22,0,0,1,.82-.26A3,3,0,0,1,650.55,379.09Z" transform="translate(-646.78 -276.8)"/><path class="cls-1" d="M655.15,371.91l-1.37-.56a3.09,3.09,0,0,0,.63-1.78q0-1.34-.94-1.34a1.33,1.33,0,0,0-.84.32,4.06,4.06,0,0,0-.89,1.3,6.27,6.27,0,0,1-.81,1.33,2.18,2.18,0,0,1-.76.53,2.49,2.49,0,0,1-1,.18,2.13,2.13,0,0,1-1.65-.73,2.69,2.69,0,0,1-.66-1.87,3.49,3.49,0,0,1,.56-2.19l1.31.46a2.86,2.86,0,0,0-.57,1.69,1.13,1.13,0,0,0,.28.82,1,1,0,0,0,.72.29q.74,0,1.54-1.63a5.33,5.33,0,0,1,.78-1.24,2.39,2.39,0,0,1,.83-.58,2.68,2.68,0,0,1,1.05-.2,2.12,2.12,0,0,1,1.72.82,3.38,3.38,0,0,1,.67,2.21A3.93,3.93,0,0,1,655.15,371.91Z" transform="translate(-646.78 -276.8)"/><path class="cls-1" d="M652.47,357.83h3.16v1.52h-8.58q-.06-1.52-.06-1.78a5.5,5.5,0,0,1,.62-3,2.17,2.17,0,0,1,1.95-.94q3,0,3,3.48Q652.51,357.4,652.47,357.83Zm-4.1,0h2.75q0-.39,0-.61a2.63,2.63,0,0,0-.35-1.52,1.31,1.31,0,0,0-1.13-.48q-1.34,0-1.34,2.15A3.55,3.55,0,0,0,648.37,357.83Z" transform="translate(-646.78 -276.8)"/><path class="cls-1" d="M651.26,350.32a4.84,4.84,0,0,1-3.1-1,3.25,3.25,0,0,1-1.27-2.69A3.51,3.51,0,0,1,648,343.8a4.82,4.82,0,0,1,3.22-1,5,5,0,0,1,3.29,1,3.58,3.58,0,0,1,1.22,2.9,3.14,3.14,0,0,1-1.21,2.65A5.32,5.32,0,0,1,651.26,350.32Zm0-1.58a4.45,4.45,0,0,0,2.33-.51,1.64,1.64,0,0,0,.83-1.48,2,2,0,0,0-.81-1.74,3.9,3.9,0,0,0-2.35-.6q-3,0-3,2.23a1.77,1.77,0,0,0,.82,1.56A3.92,3.92,0,0,0,651.26,348.74Z" transform="translate(-646.78 -276.8)"/><path class="cls-1" d="M655.63,334.23l-3.54,2.29q0,.35,0,1h3.59v1.58H647q0-.13,0-1t0-1.39q0-3.27,2.53-3.27a2.32,2.32,0,0,1,1.39.45,2.44,2.44,0,0,1,.88,1.14l3.87-2.54Zm-7.26,3.26h2.38q0-.42,0-.64a2.78,2.78,0,0,0-.27-1.4,1.13,1.13,0,0,0-1-.44.92.92,0,0,0-.88.47,3.34,3.34,0,0,0-.25,1.49A4,4,0,0,0,648.37,337.49Z" transform="translate(-646.78 -276.8)"/><path class="cls-1" d="M648.4,325.85h7.23v1.52H648.4v2.73H647V323h1.35Z" transform="translate(-646.78 -276.8)"/><path class="cls-1" d="M648.4,318.08h2v-3h1.29v3h3.93v1.52H647v-5.65h1.35Z" transform="translate(-646.78 -276.8)"/><path class="cls-1" d="M651.26,310.61a4.84,4.84,0,0,1-3.1-1,3.25,3.25,0,0,1-1.27-2.69,3.51,3.51,0,0,1,1.15-2.83,4.82,4.82,0,0,1,3.22-1,5,5,0,0,1,3.29,1,3.58,3.58,0,0,1,1.22,2.9,3.14,3.14,0,0,1-1.21,2.65A5.32,5.32,0,0,1,651.26,310.61Zm0-1.58a4.45,4.45,0,0,0,2.33-.51,1.64,1.64,0,0,0,.83-1.48,2,2,0,0,0-.81-1.74,3.9,3.9,0,0,0-2.35-.6q-3,0-3,2.23a1.77,1.77,0,0,0,.82,1.56A3.92,3.92,0,0,0,651.26,309Z" transform="translate(-646.78 -276.8)"/><path class="cls-1" d="M655.63,294.52l-3.54,2.29q0,.35,0,1h3.59v1.58H647q0-.13,0-1t0-1.39q0-3.27,2.53-3.27a2.32,2.32,0,0,1,1.39.45,2.44,2.44,0,0,1,.88,1.14l3.87-2.54Zm-7.26,3.26h2.38q0-.42,0-.64a2.78,2.78,0,0,0-.27-1.4,1.13,1.13,0,0,0-1-.44.92.92,0,0,0-.88.47,3.34,3.34,0,0,0-.25,1.49A4,4,0,0,0,648.37,297.78Z" transform="translate(-646.78 -276.8)"/><path class="cls-1" d="M655.63,289.6H647v-1.52h8.58Z" transform="translate(-646.78 -276.8)"/><path class="cls-1" d="M651.26,284.3a4.84,4.84,0,0,1-3.1-1,3.25,3.25,0,0,1-1.27-2.69,3.51,3.51,0,0,1,1.15-2.83,4.82,4.82,0,0,1,3.22-1,5,5,0,0,1,3.29,1,3.58,3.58,0,0,1,1.22,2.9,3.14,3.14,0,0,1-1.21,2.65A5.32,5.32,0,0,1,651.26,284.3Zm0-1.58a4.45,4.45,0,0,0,2.33-.51,1.64,1.64,0,0,0,.83-1.48,2,2,0,0,0-.81-1.74,3.9,3.9,0,0,0-2.35-.6q-3,0-3,2.23a1.77,1.77,0,0,0,.82,1.56A3.92,3.92,0,0,0,651.26,282.72Z" transform="translate(-646.78 -276.8)"/></svg>