<svg id="レイヤー_20" data-name="レイヤー 20" xmlns="http://www.w3.org/2000/svg" viewBox="0 0 197.53 24.41"><defs><style>.cls-1{fill:#fff;}</style></defs><title>w-sevenSeas</title><path class="cls-1" d="M544.67,394.83l1.55-3.75a8.5,8.5,0,0,0,4.88,1.74q3.69,0,3.69-2.58a3.65,3.65,0,0,0-.87-2.3,11.17,11.17,0,0,0-3.58-2.46,17.22,17.22,0,0,1-3.66-2.24,6,6,0,0,1-1.45-2.09,6.85,6.85,0,0,1-.51-2.67,5.85,5.85,0,0,1,2-4.54,7.4,7.4,0,0,1,5.15-1.8q4.09,0,6,1.53l-1.27,3.61a7.87,7.87,0,0,0-4.66-1.58,3.12,3.12,0,0,0-2.25.77,2.64,2.64,0,0,0-.8,2q0,2,4.5,4.22a14.68,14.68,0,0,1,3.42,2.13,6.57,6.57,0,0,1,1.59,2.27A7.36,7.36,0,0,1,559,390a5.84,5.84,0,0,1-2.26,4.72,9.29,9.29,0,0,1-6.07,1.85A10.8,10.8,0,0,1,544.67,394.83Z" transform="translate(-544.67 -372.13)"/><path class="cls-1" d="M570.16,376.26v5.53H578v3.56h-7.8v7.07h10.7v3.72H566V372.53H581v3.72Z" transform="translate(-544.67 -372.13)"/><path class="cls-1" d="M597.5,396.46h-2.3l-8.83-23.93H591l5.46,16,5.77-16h4.51Z" transform="translate(-544.67 -372.13)"/><path class="cls-1" d="M616,376.26v5.53h7.8v3.56H616v7.07h10.7v3.72H611.85V372.53h15.07v3.72Z" transform="translate(-544.67 -372.13)"/><path class="cls-1" d="M648.75,396.46l-11.46-14.94v14.63h-4V372.53h2l11.15,14.24V372.53h4v23.93Z" transform="translate(-544.67 -372.13)"/><path class="cls-1" d="M662.12,394.83l1.55-3.75a8.5,8.5,0,0,0,4.88,1.74q3.69,0,3.69-2.58a3.65,3.65,0,0,0-.87-2.3,11.17,11.17,0,0,0-3.58-2.46,17.22,17.22,0,0,1-3.66-2.24,6,6,0,0,1-1.45-2.09,6.85,6.85,0,0,1-.51-2.67,5.85,5.85,0,0,1,2-4.54,7.4,7.4,0,0,1,5.15-1.8q4.09,0,6,1.53l-1.27,3.61a7.87,7.87,0,0,0-4.66-1.58,3.12,3.12,0,0,0-2.25.77,2.64,2.64,0,0,0-.8,2q0,2,4.5,4.22a14.68,14.68,0,0,1,3.42,2.13,6.57,6.57,0,0,1,1.59,2.27,7.36,7.36,0,0,1,.55,2.89,5.84,5.84,0,0,1-2.26,4.72,9.29,9.29,0,0,1-6.07,1.85A10.8,10.8,0,0,1,662.12,394.83Z" transform="translate(-544.67 -372.13)"/><path class="cls-1" d="M686.29,376.26v5.53h7.8v3.56h-7.8v7.07H697v3.72H682.1V372.53h15.07v3.72Z" transform="translate(-544.67 -372.13)"/><path class="cls-1" d="M717.95,396.14l-1.72-4.79h-8.09l-1.64,4.79h-4.66l9.41-23.93h1.84l9.49,23.93Zm-5.78-16.71-2.84,8.72H715Z" transform="translate(-544.67 -372.13)"/><path class="cls-1" d="M727.9,394.83l1.55-3.75a8.5,8.5,0,0,0,4.88,1.74q3.69,0,3.69-2.58a3.65,3.65,0,0,0-.87-2.3,11.17,11.17,0,0,0-3.58-2.46,17.22,17.22,0,0,1-3.66-2.24,6,6,0,0,1-1.45-2.09,6.85,6.85,0,0,1-.51-2.67,5.85,5.85,0,0,1,2-4.54,7.4,7.4,0,0,1,5.15-1.8q4.09,0,6,1.53l-1.27,3.61a7.87,7.87,0,0,0-4.66-1.58,3.12,3.12,0,0,0-2.25.77,2.64,2.64,0,0,0-.8,2q0,2,4.5,4.22a14.68,14.68,0,0,1,3.42,2.13,6.57,6.57,0,0,1,1.59,2.27,7.36,7.36,0,0,1,.55,2.89,5.84,5.84,0,0,1-2.26,4.72,9.29,9.29,0,0,1-6.07,1.85A10.8,10.8,0,0,1,727.9,394.83Z" transform="translate(-544.67 -372.13)"/></svg>