<svg id="レイヤー_20" data-name="レイヤー 20" xmlns="http://www.w3.org/2000/svg" viewBox="0 0 168.35 18.69"><defs><style>.cls-1{fill:#fff;}</style></defs><title>w-webApp</title><path class="cls-1" d="M590.89,376.61l-5,18.44h-3.88l-3-13.83-3.21,13.83h-3.91l-4.65-18.44h3.38l3.23,15.83,3.48-15.83h3.38L584,392.44l3.51-15.83Z" transform="translate(-567.28 -376.44)"/><path class="cls-1" d="M601.11,378.88v5.77h7.66v2h-7.66v6h8.44V395H598.08V376.61h11.47v2.26Z" transform="translate(-567.28 -376.44)"/><path class="cls-1" d="M631.05,385.3a4.24,4.24,0,0,1,1.22.37,4.32,4.32,0,0,1,1.21.85,4.62,4.62,0,0,1,.93,1.33,4.15,4.15,0,0,1,.37,1.8,5.55,5.55,0,0,1-.37,2.14,4.76,4.76,0,0,1-.93,1.48,4.55,4.55,0,0,1-1.22.92,7.1,7.1,0,0,1-1.27.51,5.61,5.61,0,0,1-1.08.21l-.62,0h-6.89V376.61h5.28a9.31,9.31,0,0,1,2.26.27,5.76,5.76,0,0,1,1.94.87,4.3,4.3,0,0,1,1.34,1.56,4.88,4.88,0,0,1,.5,2.28,3.83,3.83,0,0,1-.25,1.41,4.32,4.32,0,0,1-.62,1.11,3.48,3.48,0,0,1-.86.78A2.91,2.91,0,0,1,631.05,385.3Zm-3.46-.85,1.12,0a2.61,2.61,0,0,0,1.07-.27,1.87,1.87,0,0,0,.81-.85,3.8,3.8,0,0,0,.31-1.72,3.76,3.76,0,0,0-.12-.93,2,2,0,0,0-.5-.88,2.68,2.68,0,0,0-1.07-.65,5.61,5.61,0,0,0-1.84-.25h-2v5.57h2.21Zm1.52,8.31a2.61,2.61,0,0,0,2.07-.85,3.3,3.3,0,0,0,.75-2.26,3.41,3.41,0,0,0-.77-2.26,2.79,2.79,0,0,0-2.26-.92h-3.51v6.3Z" transform="translate(-567.28 -376.44)"/><path class="cls-1" d="M656.66,395l-1.72-2.14a5.55,5.55,0,0,1-2.09,1.69,7,7,0,0,1-3.06.62,5.2,5.2,0,0,1-1.58-.25,4.13,4.13,0,0,1-1.43-.8,4,4,0,0,1-1-1.41,4.78,4.78,0,0,1-.4-2,5.5,5.5,0,0,1,.3-1.84,6,6,0,0,1,.8-1.53,7.67,7.67,0,0,1,1.13-1.24,9.35,9.35,0,0,1,1.28-1q-.3-.3-.7-.73a7.8,7.8,0,0,1-.76-1,5.38,5.38,0,0,1-.6-1.24,4.53,4.53,0,0,1-.24-1.47,4.2,4.2,0,0,1,.32-1.64,3.81,3.81,0,0,1,.95-1.34,4.6,4.6,0,0,1,1.44-.9,4.92,4.92,0,0,1,1.82-.32,5.67,5.67,0,0,1,1.7.26,4.2,4.2,0,0,1,1.47.8,3.78,3.78,0,0,1,1,1.37,4.75,4.75,0,0,1,.37,2,5.74,5.74,0,0,1-.35,1.75,5.38,5.38,0,0,1-.78,1.41,6.3,6.3,0,0,1-1.07,1.08,7.45,7.45,0,0,1-1.16.76,13.78,13.78,0,0,0,1.22,1.47q.75.8,1.42,1.57.27-.42.52-.88t.55-1.11l1.94.8a11.78,11.78,0,0,1-.67,1.57q-.4.77-.85,1.54l3.36,4.18ZM650,393a3.87,3.87,0,0,0,1.32-.2,4.11,4.11,0,0,0,1-.5,4.2,4.2,0,0,0,.72-.63q.3-.34.52-.63-.82-1-1.77-2.08a24.36,24.36,0,0,1-1.59-2,5.62,5.62,0,0,0-1.88,1.8,3.69,3.69,0,0,0-.58,1.88,2.56,2.56,0,0,0,.11.67,2.26,2.26,0,0,0,.39.76,2.52,2.52,0,0,0,.7.62A2.06,2.06,0,0,0,650,393Zm1-14.11a2.47,2.47,0,0,0-.76.12,2.18,2.18,0,0,0-.7.37,1.86,1.86,0,0,0-.49.57,1.5,1.5,0,0,0-.17.72,2.94,2.94,0,0,0,.22,1.17,5.15,5.15,0,0,0,.52.95,6.43,6.43,0,0,0,.62.76l.52.56a4,4,0,0,0,1.84-1.41,3.18,3.18,0,0,0,.62-1.8,1.8,1.8,0,0,0-.65-1.51A2.5,2.5,0,0,0,651.08,378.85Z" transform="translate(-567.28 -376.44)"/><path class="cls-1" d="M669.45,395l6.42-18.31h3L685.2,395h-3.09l-1.32-3.81H673.9L672.56,395Zm5.15-5.82h5.47l-2.71-7.91Z" transform="translate(-567.28 -376.44)"/><path class="cls-1" d="M700.68,395h-3V376.61H703a7.42,7.42,0,0,1,2.31.37,6.26,6.26,0,0,1,2.05,1.12,5.85,5.85,0,0,1,1.47,1.8,5,5,0,0,1,.56,2.38,6.5,6.5,0,0,1-.47,2.53,5.29,5.29,0,0,1-1.32,1.9,5.91,5.91,0,0,1-2,1.19,7.85,7.85,0,0,1-2.64.42h-2.21Zm0-16.07v7.27h2.74a3.27,3.27,0,0,0,1.08-.19,2.73,2.73,0,0,0,1-.61,3,3,0,0,0,.72-1.18,5.57,5.57,0,0,0,.27-1.88,5,5,0,0,0-.12-1,3,3,0,0,0-.51-1.12,3,3,0,0,0-1.08-.9,4,4,0,0,0-1.84-.36Z" transform="translate(-567.28 -376.44)"/><path class="cls-1" d="M726.94,395h-3V376.61h5.28a7.43,7.43,0,0,1,2.31.37,6.26,6.26,0,0,1,2.05,1.12,5.87,5.87,0,0,1,1.47,1.8,5,5,0,0,1,.56,2.38,6.5,6.5,0,0,1-.47,2.53,5.3,5.3,0,0,1-1.32,1.9,5.92,5.92,0,0,1-2,1.19,7.85,7.85,0,0,1-2.64.42h-2.21Zm0-16.07v7.27h2.74a3.27,3.27,0,0,0,1.08-.19,2.74,2.74,0,0,0,1-.61,3,3,0,0,0,.72-1.18,5.6,5.6,0,0,0,.27-1.88,5.08,5.08,0,0,0-.12-1,3,3,0,0,0-.51-1.12,3,3,0,0,0-1.08-.9,4,4,0,0,0-1.84-.36Z" transform="translate(-567.28 -376.44)"/></svg>