<svg id="レイヤー_11" data-name="レイヤー 11" xmlns="http://www.w3.org/2000/svg" viewBox="0 0 13.55 13.55"><title>instagram</title><path d="M666.42,512.27a3.5,3.5,0,1,0,3.5,3.5A3.51,3.51,0,0,0,666.42,512.27Zm0,5.76a2.26,2.26,0,1,1,2.26-2.26A2.26,2.26,0,0,1,666.42,518Z" transform="translate(-659.64 -509)"/><circle cx="10.39" cy="3.18" r="0.82"/><path d="M669.32,509h-5.81a3.87,3.87,0,0,0-3.87,3.87v5.81a3.87,3.87,0,0,0,3.87,3.87h5.81a3.87,3.87,0,0,0,3.87-3.87v-5.81A3.87,3.87,0,0,0,669.32,509Zm2.63,9.68a2.63,2.63,0,0,1-2.63,2.63h-5.81a2.63,2.63,0,0,1-2.63-2.63v-5.81a2.63,2.63,0,0,1,2.63-2.63h5.81a2.63,2.63,0,0,1,2.63,2.63Z" transform="translate(-659.64 -509)"/></svg>