<svg id="レイヤー_3" data-name="レイヤー 3" xmlns="http://www.w3.org/2000/svg" viewBox="0 0 269.17 269.53"><defs><style>.cls-1{fill:#e6e6e6;}</style></defs><title>rectLogo</title><path d="M550.78,418.27l3.33-8.09a18.31,18.31,0,0,0,10.52,3.75q7.95,0,7.95-5.55a7.87,7.87,0,0,0-1.87-5q-1.87-2.36-7.72-5.29a37.07,37.07,0,0,1-7.88-4.82A12.87,12.87,0,0,1,552,388.8a14.73,14.73,0,0,1-1.09-5.76,12.6,12.6,0,0,1,4.32-9.79,16,16,0,0,1,11.09-3.89q8.81,0,12.94,3.3l-2.74,7.77a17,17,0,0,0-10-3.4,6.71,6.71,0,0,0-4.84,1.65,5.67,5.67,0,0,0-1.72,4.29q0,4.37,9.68,9.09a31.6,31.6,0,0,1,7.36,4.6,14.14,14.14,0,0,1,3.44,4.89,15.87,15.87,0,0,1,1.18,6.23A12.57,12.57,0,0,1,576.69,418q-4.88,4-13.07,4A23.25,23.25,0,0,1,550.78,418.27Z" transform="translate(-549.83 -369.37)"/><path d="M617,378.25v11.9h16.8v7.67H617v15.23h23v8H608V370.24h32.45v8Z" transform="translate(-549.83 -369.37)"/><path d="M685.88,421.77h-5l-19-51.53h9.93l11.76,34.36L696,370.24h9.72Z" transform="translate(-549.83 -369.37)"/><path d="M734.35,378.25v11.9h16.8v7.67h-16.8v15.23h23v8H725.33V370.24h32.45v8Z" transform="translate(-549.83 -369.37)"/><path d="M814.74,421.77,790.07,389.6v31.51h-8.68V370.24h4.34l24,30.68V370.24h8.68v51.53Z" transform="translate(-549.83 -369.37)"/><path d="M550.86,635.22l3.33-8.09a18.31,18.31,0,0,0,10.52,3.75q7.95,0,7.95-5.55a7.87,7.87,0,0,0-1.87-5q-1.87-2.36-7.72-5.29a37.06,37.06,0,0,1-7.88-4.82,12.87,12.87,0,0,1-3.12-4.49A14.73,14.73,0,0,1,551,600a12.6,12.6,0,0,1,4.32-9.79,16,16,0,0,1,11.09-3.89q8.81,0,12.94,3.3l-2.74,7.77a17,17,0,0,0-10-3.4,6.71,6.71,0,0,0-4.84,1.65,5.67,5.67,0,0,0-1.72,4.29q0,4.37,9.68,9.09a31.6,31.6,0,0,1,7.36,4.6,14.15,14.15,0,0,1,3.44,4.89,15.87,15.87,0,0,1,1.18,6.23,12.57,12.57,0,0,1-4.88,10.17q-4.88,4-13.07,4A23.25,23.25,0,0,1,550.86,635.22Z" transform="translate(-549.83 -369.37)"/><path d="M637,595.21v11.9h16.8v7.67H637V630h23v8H628V587.19h32.45v8Z" transform="translate(-549.83 -369.37)"/><path d="M737.9,638l-3.71-10.31H716.77L713.23,638h-10l20.27-51.53h4L747.86,638Zm-12.46-36-6.11,18.77h12.22Z" transform="translate(-549.83 -369.37)"/><path d="M787.77,635.22l3.33-8.09a18.31,18.31,0,0,0,10.51,3.75q7.95,0,7.95-5.55a7.87,7.87,0,0,0-1.87-5q-1.87-2.36-7.72-5.29a37.06,37.06,0,0,1-7.88-4.82,12.87,12.87,0,0,1-3.12-4.49,14.73,14.73,0,0,1-1.09-5.76,12.6,12.6,0,0,1,4.32-9.79,16,16,0,0,1,11.09-3.89q8.82,0,12.94,3.3l-2.74,7.77a17,17,0,0,0-10-3.4,6.71,6.71,0,0,0-4.84,1.65,5.67,5.67,0,0,0-1.72,4.29q0,4.37,9.68,9.09a31.6,31.6,0,0,1,7.36,4.6,14.15,14.15,0,0,1,3.44,4.89,15.87,15.87,0,0,1,1.18,6.23,12.57,12.57,0,0,1-4.88,10.17q-4.88,4-13.07,4A23.25,23.25,0,0,1,787.77,635.22Z" transform="translate(-549.83 -369.37)"/><path d="M819,448.72a29,29,0,0,0-3.54.47l-22.62,4.29v17.11c0,3.06.42,3.58,10.23,3.58,9,0,10.28-.75,11-3a34.21,34.21,0,0,0,1.27-7.16,3.34,3.34,0,0,0,1,.52A39.71,39.71,0,0,1,815,471.3c-1,3.3-2.26,3.82-12,3.82-10.37,0-11.22-.71-11.22-4.34V453.67l-9.52,1.79c-1.18.24-2.22.38-3.49.75l-.24-1.23a27.81,27.81,0,0,0,3.54-.47l9.71-1.84V440.33a29.64,29.64,0,0,0-.14-3.53H793a29.64,29.64,0,0,0-.14,3.53v12.16l22.44-4.24a33.23,33.23,0,0,0,3.49-.75Z" transform="translate(-549.83 -369.37)"/><path d="M780.63,495.85q1.63-.28,3.68-.85c6.55-1.79,14.71-3.11,19.18-3.11,9,0,13.24,5,13.24,10.56,0,6.13-4.43,11.27-11.5,14A44.25,44.25,0,0,1,792.42,519a2.26,2.26,0,0,0-.42-1.08,40.52,40.52,0,0,0,12.87-2.45c6.74-2.55,10.84-7.31,10.84-13,0-4.95-3.77-9.57-12.21-9.57-4.29,0-12.35,1.27-18.95,3.06a33.78,33.78,0,0,0-3.49,1.13Z" transform="translate(-549.83 -369.37)"/><path d="M812.17,563.21a24.18,24.18,0,0,1-11,5.28,2.27,2.27,0,0,0-.61-1,22.32,22.32,0,0,0,10.79-5,15,15,0,0,0,5.23-11.74c0-9.47-7.68-14.19-15.55-14.38-1.37,12.3-4.52,21.26-7.82,25.26-1.7,2.07-3.11,2.83-4.71,2.83-3.82,0-6.93-4.48-6.93-10.42,0-10.79,8.63-18.62,19.37-18.62,8.34,0,16.69,5.28,16.69,15.32A16.22,16.22,0,0,1,812.17,563.21Zm-29.55-9.14c0,5.75,2.83,9.38,5.84,9.38,1.32,0,2.64-.71,4-2.36,3.21-4.05,6.27-12.77,7.59-24.7A17.66,17.66,0,0,0,782.61,554.06Z" transform="translate(-549.83 -369.37)"/><path d="M557.56,503a51.06,51.06,0,0,0-7.73-6.17l.71-.75a57.35,57.35,0,0,1,7.73,6.13Zm1.32,7a89.36,89.36,0,0,1-4.9,12c-.57,1.08-1.13,2.07-1.7,3.21l-1.08-.8a18.4,18.4,0,0,0,1.89-2.92,73.92,73.92,0,0,0,4.9-12.16ZM560,491.5a45.86,45.86,0,0,0-6.93-6.55l.8-.66a50,50,0,0,1,6.88,6.46Zm9.8-8.06c-.38.9-.8,1.89-1.18,2.92-.28.75-.61,1.51-.94,2.26h20.79a30,30,0,0,0,3.53-.14v1.23a30,30,0,0,0-3.53-.14H567.17a34.86,34.86,0,0,1-6.22,8.86,2.42,2.42,0,0,0-.85-.66A33.61,33.61,0,0,0,567.64,486a17.83,17.83,0,0,0,.9-3Zm21.49,35.21a30,30,0,0,0-3.54-.14H586.5c-.14.9-.28,1.7-.42,2.45-.57,3.06-1.89,4-4.2,4a54.15,54.15,0,0,1-5.75-.42,3.34,3.34,0,0,0-.19-1.13,43,43,0,0,0,5.94.57c1.74,0,2.64-.52,3.16-3.16.14-.71.28-1.46.38-2.26H564.3c-.24,1.08-.57,2.12-.85,3.11l-1.08-.19a104.42,104.42,0,0,0,3.3-14.38h-1.56a30,30,0,0,0-3.54.14V506a30,30,0,0,0,3.54.14h1.74c.42-3,.75-5.8.9-8.06,0-.52,0-1.08,0-1.65v-.71c1,.09,1.89.14,2.92.14h15.46a19.15,19.15,0,0,0,3.3-.14,20.35,20.35,0,0,0-.24,2.69c-.09,2.31-.24,5-.42,7.73h1.56a30,30,0,0,0,3.54-.14v1.23a30,30,0,0,0-3.54-.14h-1.65c-.28,3.68-.66,7.4-1.08,10.51h1.08a30,30,0,0,0,3.54-.14Zm-17-1.08c.61-3.39,1.13-6.93,1.56-10.51h-9.1c-.57,3.53-1.27,7.12-2.12,10.51Zm-6.36-20.79c-.19,2.83-.52,6-1,9.33h9.1c.33-3.11.61-6.27.75-9.33Zm17.68,20.79c.47-3.06.85-6.74,1.13-10.51h-9.85c-.42,3.58-.94,7.12-1.56,10.51Zm1.18-11.45c.24-3.16.42-6.36.52-9.33h-9.52c-.14,3.06-.42,6.22-.75,9.33Z" transform="translate(-549.83 -369.37)"/><circle class="cls-1" cx="117.88" cy="118.13" r="5.62"/><circle class="cls-1" cx="117.88" cy="134.97" r="5.62"/><circle class="cls-1" cx="117.88" cy="151.82" r="5.62"/><polygon class="cls-1" points="157.19 123.74 129.11 123.74 134.72 112.51 157.19 112.51 157.19 123.74"/><rect class="cls-1" x="129.11" y="129.36" width="28.08" height="11.23"/><rect class="cls-1" x="129.11" y="146.21" width="28.08" height="11.23"/></svg>