<svg id="レイヤー_20" data-name="レイヤー 20" xmlns="http://www.w3.org/2000/svg" viewBox="0 0 8.88 66.75"><defs><style>.cls-1{fill:#fff;}</style></defs><title>w-contact</title><path class="cls-1" d="M655.16,359.1l-1.26-.63a2.25,2.25,0,0,0,.51-1.64,2.12,2.12,0,0,0-.9-1.76,3.65,3.65,0,0,0-2.28-.69,3.44,3.44,0,0,0-2.19.64,2,2,0,0,0-.81,1.7,2.29,2.29,0,0,0,.87,1.9l-1.23.71a3.57,3.57,0,0,1-1-2.73,3.45,3.45,0,0,1,1.18-2.79,4.86,4.86,0,0,1,3.23-1,4.7,4.7,0,0,1,3.18,1.1,3.57,3.57,0,0,1,1.28,2.83A4.12,4.12,0,0,1,655.16,359.1Z" transform="translate(-646.89 -352.8)"/><path class="cls-1" d="M651.4,362.54a4.84,4.84,0,0,1,3.1,1,3.25,3.25,0,0,1,1.27,2.69,3.51,3.51,0,0,1-1.15,2.83,4.82,4.82,0,0,1-3.22,1,5,5,0,0,1-3.29-1,3.58,3.58,0,0,1-1.22-2.9,3.14,3.14,0,0,1,1.21-2.65A5.32,5.32,0,0,1,651.4,362.54Zm0,1.58a4.45,4.45,0,0,0-2.33.51,1.64,1.64,0,0,0-.83,1.48,2,2,0,0,0,.81,1.74,3.9,3.9,0,0,0,2.35.6q3,0,3-2.23a1.77,1.77,0,0,0-.82-1.56A3.92,3.92,0,0,0,651.4,364.13Z" transform="translate(-646.89 -352.8)"/><path class="cls-1" d="M646.92,379.18l5.43-4.17H647v-1.46h8.59v.73l-5.18,4.05h5.18v1.46h-8.7Z" transform="translate(-646.89 -352.8)"/><path class="cls-1" d="M654.27,387.21H647v-1.52h7.23V383h1.35v7.11h-1.35Z" transform="translate(-646.89 -352.8)"/><path class="cls-1" d="M647,398.47l1.74-.63V394.9l-1.74-.6v-1.69l8.7,3.42v.67l-8.7,3.45Zm6.08-2.1-3.17-1v2.06Z" transform="translate(-646.89 -352.8)"/><path class="cls-1" d="M655.16,409.35l-1.26-.63a2.25,2.25,0,0,0,.51-1.64,2.12,2.12,0,0,0-.9-1.76,3.65,3.65,0,0,0-2.28-.69,3.44,3.44,0,0,0-2.19.64,2,2,0,0,0-.81,1.7,2.29,2.29,0,0,0,.87,1.9l-1.23.71a3.57,3.57,0,0,1-1-2.73,3.45,3.45,0,0,1,1.18-2.79,4.86,4.86,0,0,1,3.23-1,4.7,4.7,0,0,1,3.18,1.1,3.57,3.57,0,0,1,1.28,2.83A4.12,4.12,0,0,1,655.16,409.35Z" transform="translate(-646.89 -352.8)"/><path class="cls-1" d="M654.27,416.7H647v-1.52h7.23v-2.73h1.35v7.11h-1.35Z" transform="translate(-646.89 -352.8)"/></svg>