<?xml version="1.0" encoding="utf-8"?>
<!-- Generator: Adobe Illustrator 21.1.0, SVG Export Plug-In . SVG Version: 6.00 Build 0)  -->
<svg version="1.1" id="レイヤー_20" xmlns="http://www.w3.org/2000/svg" xmlns:xlink="http://www.w3.org/1999/xlink" x="0px"
	 y="0px" viewBox="0 0 195.7 18.8" style="enable-background:new 0 0 195.7 18.8;" xml:space="preserve">
<style type="text/css">
	.st0{fill:#4C4948;}
</style>
<title>w-topPuzzle</title>
<path class="st0" d="M14,0.3v2H8.5v16.3h-3V2.3H0v-2H14z"/>
<path class="st0" d="M37,9.4c0,1.4-0.2,2.8-0.6,4.1c-0.3,1.1-0.9,2.1-1.6,2.9c-0.7,0.8-1.5,1.4-2.4,1.8c-1.9,0.8-4.1,0.8-6,0
	c-0.9-0.4-1.7-1-2.4-1.8c-0.7-0.9-1.3-1.9-1.6-2.9c-0.8-2.7-0.8-5.5,0-8.1c0.3-1.1,0.9-2.1,1.6-2.9c0.7-0.8,1.5-1.4,2.4-1.8
	c1.9-0.8,4.1-0.8,6,0c0.9,0.4,1.7,1,2.4,1.8c0.7,0.9,1.3,1.8,1.6,2.9C36.8,6.6,37,8,37,9.4z M29.3,16.3c0.6,0,1.2-0.1,1.8-0.4
	c0.6-0.3,1.1-0.7,1.5-1.2c0.5-0.6,0.8-1.4,1-2.1c0.5-2.1,0.5-4.3,0-6.4c-0.2-0.8-0.5-1.5-1-2.1c-0.4-0.5-0.9-0.9-1.4-1.2
	c-0.5-0.2-1.1-0.4-1.7-0.4c-0.6,0-1.2,0.1-1.8,0.4c-0.6,0.3-1.1,0.7-1.5,1.2c-0.5,0.6-0.8,1.4-1,2.1c-0.3,1.1-0.4,2.1-0.4,3.2
	c0,1.1,0.1,2.1,0.4,3.2c0.2,0.8,0.5,1.5,1,2.1c0.4,0.5,0.9,0.9,1.4,1.2C28.1,16.2,28.7,16.3,29.3,16.3z"/>
<path class="st0" d="M48.8,18.6h-3V0.3h5.3c0.8,0,1.6,0.1,2.3,0.4c0.7,0.2,1.4,0.6,2,1.1c0.6,0.5,1.1,1.1,1.5,1.8
	c0.4,0.7,0.6,1.6,0.6,2.4c0,0.9-0.1,1.7-0.5,2.5c-0.3,0.7-0.7,1.4-1.3,1.9c-0.6,0.5-1.3,0.9-2,1.2C52.8,11.9,51.9,12,51,12h-2.2
	L48.8,18.6z M48.8,2.6v7.3h2.7c0.4,0,0.7-0.1,1.1-0.2c0.4-0.1,0.7-0.3,1-0.6c0.3-0.3,0.6-0.7,0.7-1.2c0.2-0.6,0.3-1.2,0.3-1.9
	c0-0.3,0-0.7-0.1-1c-0.1-0.4-0.3-0.8-0.5-1.1c-0.3-0.4-0.7-0.7-1.1-0.9c-0.6-0.3-1.2-0.4-1.8-0.4L48.8,2.6z"/>
<path class="st0" d="M72.7,10.1v2.5h-7.9v-2.5H72.7z"/>
<path class="st0" d="M84.1,18.6h-3V0.3h5.3c0.8,0,1.6,0.1,2.3,0.4c0.7,0.2,1.4,0.6,2,1.1c0.6,0.5,1.1,1.1,1.5,1.8
	c0.4,0.7,0.6,1.6,0.6,2.4c0,0.9-0.1,1.7-0.5,2.5C92,9.2,91.6,9.9,91,10.4c-0.6,0.5-1.3,0.9-2,1.2c-0.8,0.3-1.7,0.4-2.6,0.4h-2.2
	L84.1,18.6z M84.1,2.6v7.3h2.7c0.4,0,0.7-0.1,1.1-0.2c0.4-0.1,0.7-0.3,1-0.6c0.3-0.3,0.6-0.7,0.7-1.2C89.9,7.2,90,6.6,90,6
	c0-0.3,0-0.7-0.1-1c-0.1-0.4-0.3-0.8-0.5-1.1c-0.3-0.4-0.7-0.7-1.1-0.9c-0.6-0.3-1.2-0.4-1.8-0.4L84.1,2.6z"/>
<path class="st0" d="M114.8,0.3v9.1c0,1.4-0.2,2.8-0.5,4.1c-0.3,1.1-0.8,2.1-1.4,2.9c-0.6,0.8-1.4,1.4-2.2,1.8c-1.9,0.8-4,0.8-5.9,0
	c-0.9-0.4-1.6-1-2.2-1.8c-0.7-0.9-1.2-1.9-1.4-2.9c-0.4-1.3-0.5-2.7-0.5-4.1V0.3h3V9c0,1.2,0.1,2.3,0.3,3.4c0.1,0.8,0.4,1.5,0.8,2.2
	c0.3,0.5,0.7,0.9,1.3,1.2c0.5,0.3,1.1,0.4,1.7,0.4c0.6,0,1.2-0.1,1.7-0.4c0.5-0.3,1-0.7,1.3-1.2c0.4-0.7,0.7-1.4,0.8-2.2
	c0.2-1.2,0.3-2.3,0.3-3.5V0.3L114.8,0.3z"/>
<path class="st0" d="M135.6,0.3v2.4l-8.7,13.1l-0.5,0.4h9.2v2.4h-12.2v-2.4l8.7-13.1l0.5-0.4h-9.3V0.3H135.6z"/>
<path class="st0" d="M156.2,0.3v2.4l-8.7,13.1l-0.5,0.4h9.2v2.4H144v-2.4l8.7-13.1l0.5-0.4H144V0.3H156.2z"/>
<path class="st0" d="M168.1,0.3v16.1h8.4v2.3H165V0.3H168.1z"/>
<path class="st0" d="M187.2,2.6v5.8h7.7v2h-7.7v6h8.4v2.3h-11.5V0.3h11.5v2.3H187.2z"/>
</svg>
