<svg id="レイヤー_20" data-name="レイヤー 20" xmlns="http://www.w3.org/2000/svg" viewBox="0 0 88.6 18.76"><defs><style>.cls-1{fill:#fff;}</style></defs><title>w-home</title><path class="cls-1" d="M615.39,375.77v18.34h-3v-8.26h-7.94v8.26h-3V375.77h3v8h7.94v-8Z" transform="translate(-601.43 -375.47)"/><path class="cls-1" d="M641.55,384.85a13,13,0,0,1-.58,4.08,8.34,8.34,0,0,1-1.62,2.94,6.79,6.79,0,0,1-2.41,1.77,8,8,0,0,1-6,0,6.79,6.79,0,0,1-2.41-1.77,8.32,8.32,0,0,1-1.62-2.94,14.48,14.48,0,0,1,0-8.15,8.34,8.34,0,0,1,1.62-2.92,6.93,6.93,0,0,1,2.41-1.78,7.81,7.81,0,0,1,6,0,6.93,6.93,0,0,1,2.41,1.78,8.35,8.35,0,0,1,1.62,2.92A12.87,12.87,0,0,1,641.55,384.85Zm-7.71,6.94a4.37,4.37,0,0,0,1.75-.36,3.92,3.92,0,0,0,1.49-1.18,6,6,0,0,0,1-2.15,13.34,13.34,0,0,0,0-6.42,6.4,6.4,0,0,0-1-2.15,3.83,3.83,0,0,0-1.44-1.22,4,4,0,0,0-1.7-.37,4.51,4.51,0,0,0-1.75.35,3.77,3.77,0,0,0-1.49,1.18,6.12,6.12,0,0,0-1,2.15,12.6,12.6,0,0,0-.4,3.23,12.83,12.83,0,0,0,.38,3.19,6.24,6.24,0,0,0,1,2.15,4,4,0,0,0,1.44,1.22A3.91,3.91,0,0,0,633.84,391.79Z" transform="translate(-601.43 -375.47)"/><path class="cls-1" d="M664.76,375.77h3v18.34h-3V381.49l-4.11,10.2H658l-4.13-10.2v12.62h-3V375.77h3l5.45,12.54Z" transform="translate(-601.43 -375.47)"/><path class="cls-1" d="M681.6,378v5.77h7.66v2H681.6v6H690v2.26H678.56V375.77H690V378Z" transform="translate(-601.43 -375.47)"/></svg>