<?xml version="1.0" encoding="utf-8"?>
<!-- Generator: Adobe Illustrator 21.1.0, SVG Export Plug-In . SVG Version: 6.00 Build 0)  -->
<svg version="1.1" id="レイヤー_11" xmlns="http://www.w3.org/2000/svg" xmlns:xlink="http://www.w3.org/1999/xlink" x="0px"
	 y="0px" viewBox="0 0 13.6 13.6" style="enable-background:new 0 0 13.6 13.6;" xml:space="preserve">
<style type="text/css">
	.st0{fill:#FFFFFF;}
</style>
<title>instagram</title>
<path class="st0" d="M6.8,3.3c-1.9,0-3.5,1.6-3.5,3.5s1.6,3.5,3.5,3.5s3.5-1.6,3.5-3.5C10.3,4.8,8.7,3.3,6.8,3.3z M6.8,9
	C5.5,9,4.5,8,4.5,6.8s1-2.3,2.3-2.3S9,5.5,9,6.8C9,8,8,9,6.8,9L6.8,9z"/>
<circle class="st0" cx="10.4" cy="3.2" r="0.8"/>
<path class="st0" d="M9.7,0H3.9C1.7,0,0,1.7,0,3.9v5.8c0,2.1,1.7,3.9,3.9,3.9h5.8c2.1,0,3.9-1.7,3.9-3.9V3.9C13.5,1.7,11.8,0,9.7,0z
	 M12.3,9.7c0,1.5-1.2,2.6-2.6,2.6l0,0H3.9c-1.5,0-2.6-1.2-2.6-2.6l0,0V3.9c0-1.5,1.2-2.6,2.6-2.6l0,0h5.8c1.5,0,2.6,1.2,2.6,2.6l0,0
	V9.7z"/>
</svg>
