<svg id="レイヤー_20" data-name="レイヤー 20" xmlns="http://www.w3.org/2000/svg" viewBox="0 0 103.02 18.76"><defs><style>.cls-1{fill:#fff;}</style></defs><title>w-other</title><path class="cls-1" d="M615,385.51a13,13,0,0,1-.58,4.08,8.33,8.33,0,0,1-1.62,2.94,6.78,6.78,0,0,1-2.41,1.77,8,8,0,0,1-6,0,6.78,6.78,0,0,1-2.41-1.77,8.31,8.31,0,0,1-1.62-2.94,14.49,14.49,0,0,1,0-8.15,8.33,8.33,0,0,1,1.62-2.92,6.92,6.92,0,0,1,2.41-1.78,7.8,7.8,0,0,1,6,0,6.93,6.93,0,0,1,2.41,1.78,8.35,8.35,0,0,1,1.62,2.92A12.88,12.88,0,0,1,615,385.51Zm-7.71,6.94a4.37,4.37,0,0,0,1.75-.36,3.92,3.92,0,0,0,1.49-1.18,6,6,0,0,0,1-2.15,13.34,13.34,0,0,0,0-6.42,6.4,6.4,0,0,0-1-2.15,3.83,3.83,0,0,0-1.44-1.22,4,4,0,0,0-1.7-.37,4.51,4.51,0,0,0-1.75.35,3.77,3.77,0,0,0-1.49,1.18,6.12,6.12,0,0,0-1,2.15,12.64,12.64,0,0,0-.4,3.23,12.84,12.84,0,0,0,.39,3.19,6.24,6.24,0,0,0,1,2.15,4,4,0,0,0,1.44,1.22A3.91,3.91,0,0,0,607.28,392.45Z" transform="translate(-599.72 -376.13)"/><path class="cls-1" d="M636.72,376.43v2h-5.47v16.3h-3v-16.3h-5.47v-2Z" transform="translate(-599.72 -376.13)"/><path class="cls-1" d="M659.39,376.43v18.34h-3v-8.26h-7.94v8.26h-3V376.43h3v8h7.94v-8Z" transform="translate(-599.72 -376.13)"/><path class="cls-1" d="M672.22,378.69v5.77h7.66v2h-7.66v6h8.44v2.26H669.19V376.43h11.47v2.26Z" transform="translate(-599.72 -376.13)"/><path class="cls-1" d="M699.58,394.77l-3.46-6.64h-2.84v6.62h-3V376.43h5.28a7.42,7.42,0,0,1,2.31.37,6.26,6.26,0,0,1,2.05,1.12,5.86,5.86,0,0,1,1.47,1.8,5,5,0,0,1,.56,2.38,6,6,0,0,1-.92,3.38,5.52,5.52,0,0,1-2.49,2.07l4.18,7.22Zm-6.3-8.81H696a3.38,3.38,0,0,0,1.09-.19,2.72,2.72,0,0,0,1-.61,3,3,0,0,0,.72-1.18,5.59,5.59,0,0,0,.27-1.88,5,5,0,0,0-.12-1,3,3,0,0,0-.51-1.12,3,3,0,0,0-1.08-.9,4,4,0,0,0-1.84-.36h-2.24Z" transform="translate(-599.72 -376.13)"/></svg>