<svg id="レイヤー_10" data-name="レイヤー 10" xmlns="http://www.w3.org/2000/svg" viewBox="0 0 179.86 8.88"><title>copyright</title><path d="M556.09,507.8l-.39,1a3,3,0,0,0-1.77-.41,2.11,2.11,0,0,0-1.81,1,4.27,4.27,0,0,0-.68,2.51,3.79,3.79,0,0,0,.7,2.38,2.34,2.34,0,0,0,3.67.06l.64.9a3.56,3.56,0,0,1-2.62,1,3.2,3.2,0,0,1-2.65-1.21,5,5,0,0,1-1-3.2,4.91,4.91,0,0,1,1-3.19,3.28,3.28,0,0,1,2.67-1.27A4.35,4.35,0,0,1,556.09,507.8Z" transform="translate(-550.2 -507.33)"/><path d="M557.38,511.7a5.07,5.07,0,0,1,.93-3.12,3,3,0,0,1,2.52-1.25,3.35,3.35,0,0,1,2.74,1.15,4.92,4.92,0,0,1,1,3.22,5.18,5.18,0,0,1-1,3.31,3.29,3.29,0,0,1-2.74,1.2A3,3,0,0,1,558.3,515,5.4,5.4,0,0,1,557.38,511.7Zm1.23,0a4.79,4.79,0,0,0,.58,2.47,1.82,1.82,0,0,0,1.64,1,2.09,2.09,0,0,0,1.83-.91,4.43,4.43,0,0,0,.63-2.55q0-3.32-2.46-3.32a1.85,1.85,0,0,0-1.66.89A4.48,4.48,0,0,0,558.61,511.7Z" transform="translate(-550.2 -507.33)"/><path d="M567,512.76v3.3h-1.17v-8.58l1.61-.06q3.74,0,3.74,2.5,0,2.89-3.3,2.89Zm0-4.22v3.17l.79.06q2.18,0,2.18-1.72t-2.33-1.57A4.72,4.72,0,0,0,567,508.54Z" transform="translate(-550.2 -507.33)"/><path d="M575.7,512.23v3.84h-1.17v-3.84l-2.77-4.74H573l2.14,3.75,2.14-3.75h1.21Z" transform="translate(-550.2 -507.33)"/><path d="M584.18,516.07l-2.29-3.69q-.39,0-1.24-.06v3.74h-1.17v-8.58l.91,0,1.23,0q3.09,0,3.09,2.46a2.33,2.33,0,0,1-.5,1.46,2.07,2.07,0,0,1-1.18.81l2.49,3.95Zm-3.53-7.53v2.79a6,6,0,0,0,.82.06A2.71,2.71,0,0,0,583,511a1.39,1.39,0,0,0,.48-1.21,1.12,1.12,0,0,0-.52-1,3.22,3.22,0,0,0-1.63-.32Z" transform="translate(-550.2 -507.33)"/><path d="M586.6,516.07v-8.58h1.17v8.58Z" transform="translate(-550.2 -507.33)"/><path d="M595.68,508.08l-.49,1a2.92,2.92,0,0,0-1.73-.66,2.6,2.6,0,0,0-2.13.95,3.84,3.84,0,0,0-.78,2.51,3.6,3.6,0,0,0,.76,2.4,2.58,2.58,0,0,0,2.08.91,2.09,2.09,0,0,0,1.52-.56v-2h-1.19v-1h2.36v3.74a3.52,3.52,0,0,1-1.31.64,5.83,5.83,0,0,1-1.63.24,3.49,3.49,0,0,1-2.8-1.2,4.76,4.76,0,0,1-1-3.2,4.61,4.61,0,0,1,1.13-3.23,3.91,3.91,0,0,1,3-1.24A3.18,3.18,0,0,1,595.68,508.08Z" transform="translate(-550.2 -507.33)"/><path d="M602.77,516.07v-4.15H599v4.15h-1.17v-8.58H599v3.44h3.75v-3.44h1.17v8.58Z" transform="translate(-550.2 -507.33)"/><path d="M608.83,508.54v7.53h-1.17v-7.53h-2.73v-1.05h6.76v1.05Z" transform="translate(-550.2 -507.33)"/><path d="M615.81,516.07v-.23l2.69-4.12a4.28,4.28,0,0,0,.84-2.2q0-1.19-1.34-1.19a1.7,1.7,0,0,0-.89.25,1.52,1.52,0,0,0-.6.63l-.76-.62a1.68,1.68,0,0,1,.78-.91,2.75,2.75,0,0,1,1.41-.34,3,3,0,0,1,1.93.57,2,2,0,0,1,.7,1.61,4.92,4.92,0,0,1-.93,2.44L617.72,515h3.36v1.05Z" transform="translate(-550.2 -507.33)"/><path d="M622.08,511.52a5.49,5.49,0,0,1,.75-3,2.37,2.37,0,0,1,2.11-1.17,2.3,2.3,0,0,1,2,1,6.24,6.24,0,0,1,.68,3.4,6.45,6.45,0,0,1-.71,3.28,2.27,2.27,0,0,1-2.07,1.2,2.4,2.4,0,0,1-2.07-1A6.76,6.76,0,0,1,622.08,511.52Zm1.17.11q0,3.57,1.52,3.57a1.35,1.35,0,0,0,1.28-.79,6.58,6.58,0,0,0,.41-2.77,9.14,9.14,0,0,0-.16-2,1.92,1.92,0,0,0-.51-1,1.25,1.25,0,0,0-.89-.33Q623.25,508.33,623.25,511.62Z" transform="translate(-550.2 -507.33)"/><path d="M630.91,516.07v-6.58l-1.75,1.09v-1.1a8.59,8.59,0,0,0,1.41-.92,6.71,6.71,0,0,0,1.16-1.11h.35v8.62Z" transform="translate(-550.2 -507.33)"/><path d="M636.35,511.29a2.44,2.44,0,0,1-.89-.81,1.93,1.93,0,0,1-.35-1.08,1.89,1.89,0,0,1,.65-1.51,2.86,2.86,0,0,1,3.39,0,2,2,0,0,1,.61,1.52,2.14,2.14,0,0,1-.37,1.15,2.48,2.48,0,0,1-.86.86,2.58,2.58,0,0,1,1.55,2.28,2.37,2.37,0,0,1-.71,1.84,2.8,2.8,0,0,1-2,.65q-2.6,0-2.6-2.5a2.61,2.61,0,0,1,.45-1.42A2.46,2.46,0,0,1,636.35,511.29Zm.91.51a2.11,2.11,0,0,0-1.29,1.89,1.51,1.51,0,0,0,.4,1.07,1.34,1.34,0,0,0,1,.43,1.47,1.47,0,0,0,1.08-.42,1.45,1.45,0,0,0,.42-1.08,1.53,1.53,0,0,0-.29-.89A4.14,4.14,0,0,0,637.27,511.8Zm.52-.87a2.15,2.15,0,0,0,.8-1.55,1,1,0,0,0-.32-.76,1.2,1.2,0,0,0-.83-.28q-1.15,0-1.15,1.06Q636.29,510.17,637.79,510.93Z" transform="translate(-550.2 -507.33)"/><path d="M650.62,516.19l-4.44-6.28v6.16h-1.11v-8.58h.47l4.32,5.94v-5.94H651v8.7Z" transform="translate(-550.2 -507.33)"/><path d="M657.61,516.07l-.59-1.81h-3.19l-.63,1.81h-1.31l3.49-8.7h.31l3.23,8.7Zm-2.14-6.45-1.33,3.78h2.55Z" transform="translate(-550.2 -507.33)"/><path d="M665.36,516.19l-4.44-6.28v6.16h-1.11v-8.58h.47l4.32,5.94v-5.94h1.11v8.7Z" transform="translate(-550.2 -507.33)"/><path d="M672.34,516.07l-.59-1.81h-3.19l-.63,1.81h-1.31l3.49-8.7h.31l3.23,8.7Zm-2.14-6.45-1.33,3.78h2.55Z" transform="translate(-550.2 -507.33)"/><path d="M681,516.07l-1-5.51-1.87,5.63h-.29l-1.93-5.63-1,5.51h-1.11l1.61-8.58h.53l2,6.26,1.89-6.26h.53l1.74,8.58Z" transform="translate(-550.2 -507.33)"/><path d="M683.26,516.07v-8.58h1.17v8.58Z" transform="translate(-550.2 -507.33)"/><path d="M693.14,508.54v7.53H692v-7.53h-2.73v-1.05H696v1.05Z" transform="translate(-550.2 -507.33)"/><path d="M696.57,511.7a5.07,5.07,0,0,1,.93-3.12,3,3,0,0,1,2.52-1.25,3.35,3.35,0,0,1,2.74,1.15,4.92,4.92,0,0,1,1,3.22,5.18,5.18,0,0,1-1,3.31,3.29,3.29,0,0,1-2.74,1.2,3,3,0,0,1-2.54-1.27A5.4,5.4,0,0,1,696.57,511.7Zm1.23,0a4.79,4.79,0,0,0,.58,2.47,1.82,1.82,0,0,0,1.64,1,2.09,2.09,0,0,0,1.83-.91,4.43,4.43,0,0,0,.63-2.55q0-3.32-2.46-3.32a1.85,1.85,0,0,0-1.66.89A4.48,4.48,0,0,0,697.8,511.7Z" transform="translate(-550.2 -507.33)"/><path d="M711.53,516.07l-1-5.51-1.87,5.63h-.29l-1.93-5.63-1,5.51h-1.11l1.61-8.58h.53l2,6.26,1.89-6.26h.53l1.74,8.58Z" transform="translate(-550.2 -507.33)"/><path d="M713.79,516.07v-8.58H715v8.58Z" transform="translate(-550.2 -507.33)"/><path d="M720,508.54v7.53h-1.17v-7.53h-2.73v-1.05h6.76v1.05Z" transform="translate(-550.2 -507.33)"/><path d="M728.76,516.07l-.59-1.81H725l-.63,1.81H723l3.49-8.7h.31l3.23,8.7Zm-2.14-6.45-1.33,3.78h2.55Z" transform="translate(-550.2 -507.33)"/></svg>