<svg id="レイヤー_8" data-name="レイヤー 8" xmlns="http://www.w3.org/2000/svg" viewBox="0 0 46.3 8.88"><title>menuGraphic</title><path d="M622.67,508.59l-.49,1a2.92,2.92,0,0,0-1.73-.66,2.6,2.6,0,0,0-2.13.95,3.84,3.84,0,0,0-.78,2.51,3.6,3.6,0,0,0,.76,2.4,2.58,2.58,0,0,0,2.08.91,2.09,2.09,0,0,0,1.52-.56v-2h-1.19v-1h2.36v3.74a3.52,3.52,0,0,1-1.31.64,5.83,5.83,0,0,1-1.63.24,3.49,3.49,0,0,1-2.8-1.2,4.76,4.76,0,0,1-1-3.2,4.61,4.61,0,0,1,1.13-3.23,3.91,3.91,0,0,1,3-1.24A3.18,3.18,0,0,1,622.67,508.59Z" transform="translate(-616.31 -507.84)"/><path d="M629.6,516.58l-2.29-3.69q-.39,0-1.24-.06v3.74H624.9V508l.91,0,1.23,0q3.09,0,3.09,2.46a2.33,2.33,0,0,1-.5,1.46,2.07,2.07,0,0,1-1.18.81l2.49,3.95ZM626.07,509v2.79a6,6,0,0,0,.82.06,2.71,2.71,0,0,0,1.54-.34,1.39,1.39,0,0,0,.48-1.21,1.12,1.12,0,0,0-.52-1,3.22,3.22,0,0,0-1.63-.32Z" transform="translate(-616.31 -507.84)"/><path d="M636.7,516.58l-.59-1.81h-3.19l-.63,1.81H631l3.49-8.7h.31l3.23,8.7Zm-2.14-6.45-1.33,3.78h2.55Z" transform="translate(-616.31 -507.84)"/><path d="M640.07,513.27v3.3H638.9V508l1.61-.06q3.74,0,3.74,2.5,0,2.89-3.3,2.89Zm0-4.22v3.17l.79.06q2.18,0,2.18-1.72T640.71,509A4.72,4.72,0,0,0,640.07,509Z" transform="translate(-616.31 -507.84)"/><path d="M650.51,516.58v-4.15h-3.75v4.15h-1.17V508h1.17v3.44h3.75V508h1.17v8.58Z" transform="translate(-616.31 -507.84)"/><path d="M653.65,516.58V508h1.17v8.58Z" transform="translate(-616.31 -507.84)"/><path d="M662.26,508.31l-.39,1a3,3,0,0,0-1.77-.41,2.11,2.11,0,0,0-1.81,1,4.27,4.27,0,0,0-.68,2.51,3.79,3.79,0,0,0,.7,2.38,2.34,2.34,0,0,0,3.67.06l.64.9a3.56,3.56,0,0,1-2.62,1,3.2,3.2,0,0,1-2.65-1.21,5,5,0,0,1-1-3.2,4.91,4.91,0,0,1,1-3.19,3.28,3.28,0,0,1,2.67-1.27A4.35,4.35,0,0,1,662.26,508.31Z" transform="translate(-616.31 -507.84)"/></svg>