<svg id="レイヤー_15" data-name="レイヤー 15" xmlns="http://www.w3.org/2000/svg" viewBox="0 0 29.79 39.09"><title>clese</title><path id="close" d="M651.45,396a3.72,3.72,0,1,0-3.72-3.72A3.73,3.73,0,0,0,651.45,396Zm11.17-16.75h-1.86v-3.72a9.31,9.31,0,1,0-18.62,0v3.72h-1.86a3.73,3.73,0,0,0-3.72,3.72v18.62a3.73,3.73,0,0,0,3.72,3.72h22.34a3.73,3.73,0,0,0,3.72-3.72V382.94A3.73,3.73,0,0,0,662.61,379.22Zm-16.94-3.72a5.77,5.77,0,0,1,11.54,0v3.72H645.67Zm16.94,26.06H640.28V382.94h22.34Z" transform="translate(-636.55 -366.19)"/></svg>