<svg id="レイヤー_15" data-name="レイヤー 15" xmlns="http://www.w3.org/2000/svg" viewBox="0 0 208.99 39.03"><title>otherLogo</title><path d="M569.76,515.08a27,27,0,0,1-1.22,8.49,17.32,17.32,0,0,1-3.36,6.11,14.11,14.11,0,0,1-5,3.67,16.54,16.54,0,0,1-12.58,0,14.1,14.1,0,0,1-5-3.67,17.3,17.3,0,0,1-3.36-6.11,30.14,30.14,0,0,1,0-17,17.35,17.35,0,0,1,3.36-6.08,14.4,14.4,0,0,1,5-3.7,16.22,16.22,0,0,1,12.58,0,14.41,14.41,0,0,1,5,3.7,17.36,17.36,0,0,1,3.36,6.08A26.78,26.78,0,0,1,569.76,515.08Zm-16,14.44a9.08,9.08,0,0,0,3.65-.75,8.14,8.14,0,0,0,3.11-2.46,12.45,12.45,0,0,0,2.15-4.48,27.75,27.75,0,0,0,0-13.35,13.32,13.32,0,0,0-2.07-4.48,8,8,0,0,0-3-2.54,8.36,8.36,0,0,0-3.55-.78,9.38,9.38,0,0,0-3.65.72,7.83,7.83,0,0,0-3.11,2.46,12.74,12.74,0,0,0-2.15,4.48,26.3,26.3,0,0,0-.83,6.73,26.72,26.72,0,0,0,.8,6.63,13,13,0,0,0,2.07,4.48,8.26,8.26,0,0,0,3,2.54A8.13,8.13,0,0,0,553.72,529.52Z" transform="translate(-537.99 -495.57)"/><path d="M611.79,496.19v4.24H600.4v33.9h-6.26v-33.9H582.75v-4.24Z" transform="translate(-537.99 -495.57)"/><path d="M658.93,496.19v38.15h-6.21V517.15H636.21v17.18h-6.31V496.19h6.31v16.72h16.51V496.19Z" transform="translate(-537.99 -495.57)"/><path d="M683.5,500.9v12h15.94v4.24H683.5v12.47H701v4.71H677.19V496.19H701v4.71Z" transform="translate(-537.99 -495.57)"/><path d="M740.4,534.33l-7.19-13.82-.41,0c-.17,0-.44,0-.8,0H727.3v13.77h-6.21V496.19h11a15.44,15.44,0,0,1,4.81.78,13,13,0,0,1,4.27,2.33A12.17,12.17,0,0,1,744.2,503a10.39,10.39,0,0,1,1.17,4.94,12.48,12.48,0,0,1-1.92,7,11.48,11.48,0,0,1-5.18,4.3l8.7,15ZM727.3,516h5.64a7,7,0,0,0,2.28-.39,5.64,5.64,0,0,0,2.07-1.27,6.21,6.21,0,0,0,1.5-2.46,11.62,11.62,0,0,0,.57-3.91,10.51,10.51,0,0,0-.26-2.15,6.19,6.19,0,0,0-1.06-2.33,6.28,6.28,0,0,0-2.25-1.86,8.37,8.37,0,0,0-3.83-.75H727.3Z" transform="translate(-537.99 -495.57)"/></svg>