<svg id="レイヤー_12" data-name="レイヤー 12" xmlns="http://www.w3.org/2000/svg" viewBox="0 0 136.38 138.57"><title>webAppLogo</title><path d="M623.54,445.93l-10.3,38.35h-8.07l-6.26-28.78-6.68,28.78h-8.13l-9.68-38.35h7l6.73,32.92,7.25-32.92h7l6.73,32.92,7.3-32.92Z" transform="translate(-574.23 -445.93)"/><path d="M645.87,450.64v12h15.94v4.24H645.87v12.47h17.55v4.71H639.56V445.93h23.86v4.71Z" transform="translate(-574.23 -445.93)"/><path d="M702.84,464a8.83,8.83,0,0,1,2.54.78,9,9,0,0,1,2.51,1.76,9.62,9.62,0,0,1,1.94,2.77,8.64,8.64,0,0,1,.78,3.75,11.54,11.54,0,0,1-.78,4.45,9.89,9.89,0,0,1-1.94,3.08,9.47,9.47,0,0,1-2.54,1.92,14.86,14.86,0,0,1-2.64,1.06,11.54,11.54,0,0,1-2.25.44q-1,.08-1.29.08H684.83V445.93h11a19.39,19.39,0,0,1,4.71.57,12,12,0,0,1,4,1.81,9,9,0,0,1,2.79,3.24,10.16,10.16,0,0,1,1,4.74,8,8,0,0,1-.52,2.92,9,9,0,0,1-1.29,2.3,7.25,7.25,0,0,1-1.79,1.63A6.06,6.06,0,0,1,702.84,464Zm-7.19-1.76q1.14,0,2.33-.05a5.44,5.44,0,0,0,2.23-.57,3.88,3.88,0,0,0,1.68-1.76,9,9,0,0,0,.39-5.51,4.2,4.2,0,0,0-1-1.84,5.56,5.56,0,0,0-2.23-1.35,11.66,11.66,0,0,0-3.83-.52H691v11.59h4.61Zm3.16,17.29a5.43,5.43,0,0,0,4.3-1.76,6.86,6.86,0,0,0,1.55-4.71,7.08,7.08,0,0,0-1.61-4.71,5.79,5.79,0,0,0-4.71-1.92H691v13.09Z" transform="translate(-574.23 -445.93)"/><path d="M574.23,584.5l13.35-38.09h6.16L607,584.5h-6.42l-2.74-7.92H583.49l-2.79,7.92Zm10.71-12.11h11.39l-5.64-16.46Z" transform="translate(-574.23 -445.93)"/><path d="M639.19,584.5H633V546.35h11a15.44,15.44,0,0,1,4.81.78,13,13,0,0,1,4.27,2.33,12.18,12.18,0,0,1,3.05,3.75,10.4,10.4,0,0,1,1.16,4.94,13.51,13.51,0,0,1-1,5.25,11,11,0,0,1-2.74,4,12.29,12.29,0,0,1-4.24,2.48,16.33,16.33,0,0,1-5.49.88h-4.61Zm0-33.44v15.11h5.69a6.77,6.77,0,0,0,2.25-.39,5.68,5.68,0,0,0,2-1.27,6.21,6.21,0,0,0,1.5-2.46,11.61,11.61,0,0,0,.57-3.91A10.48,10.48,0,0,0,651,556a6.18,6.18,0,0,0-1.06-2.33,6.27,6.27,0,0,0-2.25-1.86,8.37,8.37,0,0,0-3.83-.75Z" transform="translate(-574.23 -445.93)"/><path d="M690.64,584.5h-6.21V546.35h11a15.45,15.45,0,0,1,4.81.78,13,13,0,0,1,4.27,2.33,12.17,12.17,0,0,1,3.05,3.75,10.4,10.4,0,0,1,1.17,4.94,13.49,13.49,0,0,1-1,5.25,11,11,0,0,1-2.74,4,12.3,12.3,0,0,1-4.24,2.48,16.34,16.34,0,0,1-5.49.88h-4.61Zm0-33.44v15.11h5.69a6.77,6.77,0,0,0,2.25-.39,5.68,5.68,0,0,0,2-1.27,6.19,6.19,0,0,0,1.5-2.46,11.6,11.6,0,0,0,.57-3.91,10.45,10.45,0,0,0-.26-2.15,6.16,6.16,0,0,0-1.06-2.33,6.26,6.26,0,0,0-2.25-1.86,8.37,8.37,0,0,0-3.83-.75Z" transform="translate(-574.23 -445.93)"/><path d="M705.34,527l-2.49-3.11a8,8,0,0,1-3,2.46,10.15,10.15,0,0,1-4.44.9,7.56,7.56,0,0,1-2.29-.36,6,6,0,0,1-2.08-1.16,5.84,5.84,0,0,1-1.52-2,7,7,0,0,1-.58-2.94,8,8,0,0,1,.43-2.67,8.66,8.66,0,0,1,1.16-2.22,11.11,11.11,0,0,1,1.64-1.81,13.5,13.5,0,0,1,1.86-1.39q-.43-.43-1-1.07a11.26,11.26,0,0,1-1.1-1.43,7.8,7.8,0,0,1-.87-1.81,6.57,6.57,0,0,1-.34-2.13,6.12,6.12,0,0,1,.47-2.38,5.55,5.55,0,0,1,1.37-2,6.69,6.69,0,0,1,2.1-1.3,7.15,7.15,0,0,1,2.64-.47,8.26,8.26,0,0,1,2.47.38,6.12,6.12,0,0,1,2.13,1.16,5.48,5.48,0,0,1,1.46,2,6.89,6.89,0,0,1,.54,2.84,8.3,8.3,0,0,1-.51,2.55,7.8,7.8,0,0,1-1.14,2,9.11,9.11,0,0,1-1.55,1.57,10.87,10.87,0,0,1-1.68,1.1,20,20,0,0,0,1.77,2.13q1.08,1.16,2.06,2.28c.26-.41.52-.84.76-1.28s.51-1,.79-1.61l2.82,1.16a17,17,0,0,1-1,2.28q-.58,1.12-1.23,2.24l4.88,6.07Zm-9.61-2.89a5.6,5.6,0,0,0,1.91-.29,6,6,0,0,0,1.41-.72,6.1,6.1,0,0,0,1-.92q.43-.49.76-.92-1.19-1.48-2.57-3A35.91,35.91,0,0,1,696,515.4a8.16,8.16,0,0,0-2.73,2.62,5.35,5.35,0,0,0-.85,2.73,3.71,3.71,0,0,0,.16,1,3.27,3.27,0,0,0,.56,1.1,3.66,3.66,0,0,0,1,.9A3,3,0,0,0,695.73,524.11Zm1.52-20.49a3.59,3.59,0,0,0-1.1.18,3.17,3.17,0,0,0-1,.54,2.7,2.7,0,0,0-.7.83,2.16,2.16,0,0,0-.25,1,4.27,4.27,0,0,0,.33,1.7,7.47,7.47,0,0,0,.76,1.37,9.14,9.14,0,0,0,.9,1.1q.47.49.76.81a5.76,5.76,0,0,0,2.67-2,4.62,4.62,0,0,0,.9-2.62,2.62,2.62,0,0,0-.94-2.19A3.62,3.62,0,0,0,697.25,503.62Z" transform="translate(-574.23 -445.93)"/></svg>